M48
; DRILL file {KiCad 7.0.10-7.0.10~ubuntu22.04.1} date Wed 03 Jan 2024 05:28:32 PM PST
; FORMAT={-:-/ absolute / inch / decimal}
; #@! TF.CreationDate,2024-01-03T17:28:32-08:00
; #@! TF.GenerationSoftware,Kicad,Pcbnew,7.0.10-7.0.10~ubuntu22.04.1
; #@! TF.FileFunction,Plated,1,2,PTH
FMAT,2
INCH
; #@! TA.AperFunction,Plated,PTH,ViaDrill
T1C0.0157
; #@! TA.AperFunction,Plated,PTH,ComponentDrill
T2C0.0197
; #@! TA.AperFunction,Plated,PTH,ComponentDrill
T3C0.0276
; #@! TA.AperFunction,Plated,PTH,ComponentDrill
T4C0.0295
; #@! TA.AperFunction,Plated,PTH,ComponentDrill
T5C0.0315
; #@! TA.AperFunction,Plated,PTH,ComponentDrill
T6C0.0394
; #@! TA.AperFunction,Plated,PTH,ComponentDrill
T7C0.0512
; #@! TA.AperFunction,Plated,PTH,ComponentDrill
T8C0.0866
; #@! TA.AperFunction,Plated,PTH,ComponentDrill
T9C0.1260
%
G90
G05
T1
X5.4409Y-3.0591
T2
X4.0394Y-2.1654
X4.0394Y-3.7402
X4.067Y-2.0985
X4.067Y-2.2322
X4.067Y-3.6733
X4.067Y-3.807
X4.1339Y-2.0709
X4.1339Y-2.2598
X4.1339Y-3.6457
X4.1339Y-3.8346
X4.2007Y-2.0985
X4.2007Y-2.2322
X4.2007Y-3.6733
X4.2007Y-3.807
X4.2283Y-2.1654
X4.2283Y-3.7402
X6.4016Y-2.1654
X6.4016Y-3.7402
X6.4292Y-2.0985
X6.4292Y-2.2322
X6.4292Y-3.6733
X6.4292Y-3.807
X6.4961Y-2.0709
X6.4961Y-2.2598
X6.4961Y-3.6457
X6.4961Y-3.8346
X6.5629Y-2.0985
X6.5629Y-2.2322
X6.5629Y-3.6733
X6.5629Y-3.807
X6.5906Y-2.1654
X6.5906Y-3.7402
T3
X6.2972Y-3.2756
X6.5531Y-3.2756
T4
X5.0102Y-2.7323
X5.0602Y-2.7323
X5.1102Y-2.7323
X5.7189Y-2.6654
X5.7689Y-2.6654
X5.8189Y-2.6654
X5.8425Y-3.0669
X5.8925Y-3.0669
X5.9425Y-3.0669
T5
X4.6874Y-3.5039
X4.7874Y-3.5039
X4.8543Y-2.665
X4.8543Y-2.965
X4.874Y-3.1496
X4.8762Y-3.3386
X4.9762Y-3.3386
X5.0142Y-2.937
X5.0299Y-3.5039
X5.0709Y-3.1496
X5.1142Y-2.937
X5.1299Y-3.5039
X5.2906Y-2.8543
X5.2906Y-3.1543
X5.3906Y-2.8543
X5.3906Y-3.1543
X5.3937Y-3.3386
X5.4724Y-2.6654
X5.4906Y-2.8543
X5.4906Y-3.1543
X5.5039Y-3.5236
X5.5724Y-2.6654
X5.5906Y-2.8543
X5.5906Y-3.1543
X5.5906Y-3.3386
X5.6039Y-3.5236
X5.811Y-3.3937
X5.911Y-3.3937
X5.9764Y-2.6378
X5.9764Y-2.8346
X6.0354Y-3.3937
X6.0866Y-3.0118
X6.0866Y-3.2087
X6.1181Y-2.6378
X6.1181Y-2.8346
X6.1354Y-3.3937
T6
X4.439Y-3.7835
X4.6161Y-3.7835
X4.6427Y-2.3848
X4.7427Y-2.3848
X4.8427Y-2.3848
X4.9114Y-3.7835
X4.9427Y-2.3848
X5.0427Y-2.3848
X5.0886Y-3.7835
X5.3839Y-3.7835
X5.561Y-3.7835
X5.9252Y-3.7992
X6.0236Y-3.7992
X6.122Y-3.7992
X6.2953Y-2.6654
X6.2953Y-2.8622
T7
X4.3898Y-3.6831
X4.6654Y-3.6831
X4.8622Y-3.6831
X5.1378Y-3.6831
X5.2756Y-2.2835
X5.3346Y-3.6831
X5.4724Y-2.0866
X5.6102Y-3.6831
X5.6693Y-2.2835
X5.8661Y-2.2835
X6.063Y-2.0866
X6.2598Y-2.2835
X6.4921Y-2.7638
T8
X5.8622Y-3.6693
X6.185Y-3.6693
T9
X4.1339Y-2.1654
X4.1339Y-3.7402
X6.4961Y-2.1654
X6.4961Y-3.7402
M30
