%TF.GenerationSoftware,KiCad,Pcbnew,7.0.10-7.0.10~ubuntu22.04.1*%
%TF.CreationDate,2024-01-03T17:37:56-08:00*%
%TF.ProjectId,EtherKeyerMini,45746865-724b-4657-9965-724d696e692e,A*%
%TF.SameCoordinates,Original*%
%TF.FileFunction,Soldermask,Bot*%
%TF.FilePolarity,Negative*%
%FSLAX46Y46*%
G04 Gerber Fmt 4.6, Leading zero omitted, Abs format (unit mm)*
G04 Created by KiCad (PCBNEW 7.0.10-7.0.10~ubuntu22.04.1) date 2024-01-03 17:37:56*
%MOMM*%
%LPD*%
G01*
G04 APERTURE LIST*
%ADD10R,1.600000X2.400000*%
%ADD11O,1.600000X2.400000*%
%ADD12C,2.300000*%
%ADD13C,2.000000*%
%ADD14C,1.500000*%
%ADD15C,4.200000*%
%ADD16C,1.600000*%
%ADD17O,1.600000X1.600000*%
%ADD18C,1.800000*%
%ADD19C,2.100000*%
%ADD20R,1.050000X1.500000*%
%ADD21O,1.050000X1.500000*%
%ADD22O,1.700000X1.700000*%
%ADD23R,1.700000X1.700000*%
%ADD24C,1.900000*%
%ADD25C,0.800000*%
%ADD26C,6.400000*%
%ADD27R,1.600000X1.600000*%
%ADD28R,5.100000X2.500000*%
%ADD29C,17.800000*%
G04 APERTURE END LIST*
D10*
%TO.C,U1*%
X142000000Y-72500000D03*
D11*
X139460000Y-72500000D03*
X136920000Y-72500000D03*
X134380000Y-72500000D03*
X134380000Y-80120000D03*
X136920000Y-80120000D03*
X139460000Y-80120000D03*
X142000000Y-80120000D03*
%TD*%
D12*
%TO.C,S3*%
X135500000Y-93550000D03*
X142500000Y-93550000D03*
D13*
X136750000Y-96100000D03*
X141250000Y-96100000D03*
%TD*%
D12*
%TO.C,S2*%
X123500000Y-93550000D03*
X130500000Y-93550000D03*
D13*
X124750000Y-96100000D03*
X129250000Y-96100000D03*
%TD*%
%TO.C,S1*%
X117250000Y-96100000D03*
X112750000Y-96100000D03*
D12*
X118500000Y-93550000D03*
X111500000Y-93550000D03*
%TD*%
D14*
%TO.C,SP1*%
X159950000Y-83200000D03*
X166450000Y-83200000D03*
%TD*%
D15*
%TO.C,R10*%
X148900000Y-93200000D03*
X157100000Y-93200000D03*
D13*
X155500000Y-96500000D03*
X153000000Y-96500000D03*
X150500000Y-96500000D03*
%TD*%
D16*
%TO.C,R9*%
X147600000Y-86200000D03*
D17*
X150140000Y-86200000D03*
%TD*%
D16*
%TO.C,R8*%
X123855000Y-84800000D03*
D17*
X126395000Y-84800000D03*
%TD*%
D16*
%TO.C,R7*%
X153300000Y-86200000D03*
D17*
X155840000Y-86200000D03*
%TD*%
D16*
%TO.C,R6*%
X139000000Y-67700000D03*
D17*
X141540000Y-67700000D03*
%TD*%
D16*
%TO.C,R5*%
X139800000Y-89500000D03*
D17*
X142340000Y-89500000D03*
%TD*%
D16*
%TO.C,R4*%
X127760000Y-89000000D03*
D17*
X130300000Y-89000000D03*
%TD*%
D16*
%TO.C,R3*%
X119060000Y-89000000D03*
D17*
X121600000Y-89000000D03*
%TD*%
D13*
%TO.C,R2*%
X162400000Y-70200000D03*
D18*
X159900000Y-72700000D03*
D19*
X164900000Y-70200000D03*
D18*
X159900000Y-67700000D03*
%TD*%
D16*
%TO.C,R1*%
X127360000Y-74600000D03*
D17*
X129900000Y-74600000D03*
%TD*%
D20*
%TO.C,Q3*%
X148400000Y-77900000D03*
D21*
X149670000Y-77900000D03*
X150940000Y-77900000D03*
%TD*%
D20*
%TO.C,Q2*%
X145260000Y-67700000D03*
D21*
X146530000Y-67700000D03*
X147800000Y-67700000D03*
%TD*%
D20*
%TO.C,Q1*%
X127260000Y-69400000D03*
D21*
X128530000Y-69400000D03*
X129800000Y-69400000D03*
%TD*%
D22*
%TO.C,J3*%
X128085000Y-60575000D03*
X125545000Y-60575000D03*
X123005000Y-60575000D03*
X120465000Y-60575000D03*
D23*
X117925000Y-60575000D03*
%TD*%
D16*
%TO.C,J2*%
X159000000Y-53000000D03*
X153990000Y-58000000D03*
X149000000Y-53000000D03*
D24*
X159000000Y-58000000D03*
X154000000Y-53000000D03*
X149000000Y-58000000D03*
%TD*%
D16*
%TO.C,J1*%
X144000000Y-53000000D03*
X138990000Y-58000000D03*
X134000000Y-53000000D03*
D24*
X144000000Y-58000000D03*
X139000000Y-53000000D03*
X134000000Y-58000000D03*
%TD*%
D25*
%TO.C,H4*%
X107400000Y-95000000D03*
X103302944Y-96697056D03*
X106697056Y-96697056D03*
X105000000Y-97400000D03*
D26*
X105000000Y-95000000D03*
D25*
X102600000Y-95000000D03*
X106697056Y-93302944D03*
X103302944Y-93302944D03*
X105000000Y-92600000D03*
%TD*%
%TO.C,H3*%
X105000000Y-52600000D03*
X103302944Y-53302944D03*
X106697056Y-53302944D03*
X102600000Y-55000000D03*
D26*
X105000000Y-55000000D03*
D25*
X105000000Y-57400000D03*
X106697056Y-56697056D03*
X103302944Y-56697056D03*
X107400000Y-55000000D03*
%TD*%
%TO.C,H2*%
X167400000Y-95000000D03*
X163302944Y-96697056D03*
X166697056Y-96697056D03*
X165000000Y-97400000D03*
D26*
X165000000Y-95000000D03*
D25*
X162600000Y-95000000D03*
X166697056Y-93302944D03*
X163302944Y-93302944D03*
X165000000Y-92600000D03*
%TD*%
%TO.C,H1*%
X167400000Y-55000000D03*
X163302944Y-56697056D03*
X166697056Y-56697056D03*
X165000000Y-57400000D03*
D26*
X165000000Y-55000000D03*
D25*
X162600000Y-55000000D03*
X166697056Y-53302944D03*
X163302944Y-53302944D03*
X165000000Y-52600000D03*
%TD*%
D27*
%TO.C,D1*%
X123300000Y-67690000D03*
D17*
X123300000Y-75310000D03*
%TD*%
D16*
%TO.C,C5*%
X155400000Y-67000000D03*
X155400000Y-72000000D03*
%TD*%
%TO.C,C4*%
X151800000Y-67000000D03*
X151800000Y-72000000D03*
%TD*%
%TO.C,C3*%
X142000000Y-84800000D03*
X137000000Y-84800000D03*
%TD*%
%TO.C,C2*%
X128800000Y-80000000D03*
X123800000Y-80000000D03*
%TD*%
%TO.C,C1*%
X154600000Y-81500000D03*
X154600000Y-76500000D03*
%TD*%
D28*
%TO.C,BT1*%
X111000000Y-86450000D03*
X111000000Y-63550000D03*
D29*
X111000000Y-75000000D03*
%TD*%
M02*
