%TF.GenerationSoftware,KiCad,Pcbnew,7.0.10-7.0.10~ubuntu22.04.1*%
%TF.CreationDate,2024-01-03T17:37:56-08:00*%
%TF.ProjectId,EtherKeyerMini,45746865-724b-4657-9965-724d696e692e,A*%
%TF.SameCoordinates,Original*%
%TF.FileFunction,Copper,L1,Top*%
%TF.FilePolarity,Positive*%
%FSLAX46Y46*%
G04 Gerber Fmt 4.6, Leading zero omitted, Abs format (unit mm)*
G04 Created by KiCad (PCBNEW 7.0.10-7.0.10~ubuntu22.04.1) date 2024-01-03 17:37:56*
%MOMM*%
%LPD*%
G01*
G04 APERTURE LIST*
%ADD10C,0.300000*%
%TA.AperFunction,ComponentPad*%
%ADD11R,1.600000X2.400000*%
%TD*%
%TA.AperFunction,ComponentPad*%
%ADD12O,1.600000X2.400000*%
%TD*%
%TA.AperFunction,ComponentPad*%
%ADD13C,2.300000*%
%TD*%
%TA.AperFunction,ComponentPad*%
%ADD14C,2.000000*%
%TD*%
%TA.AperFunction,ComponentPad*%
%ADD15C,1.500000*%
%TD*%
%TA.AperFunction,ComponentPad*%
%ADD16C,4.200000*%
%TD*%
%TA.AperFunction,ComponentPad*%
%ADD17C,1.600000*%
%TD*%
%TA.AperFunction,ComponentPad*%
%ADD18O,1.600000X1.600000*%
%TD*%
%TA.AperFunction,ComponentPad*%
%ADD19C,1.800000*%
%TD*%
%TA.AperFunction,ComponentPad*%
%ADD20C,2.100000*%
%TD*%
%TA.AperFunction,ComponentPad*%
%ADD21R,1.050000X1.500000*%
%TD*%
%TA.AperFunction,ComponentPad*%
%ADD22O,1.050000X1.500000*%
%TD*%
%TA.AperFunction,ComponentPad*%
%ADD23O,1.700000X1.700000*%
%TD*%
%TA.AperFunction,ComponentPad*%
%ADD24R,1.700000X1.700000*%
%TD*%
%TA.AperFunction,WasherPad*%
%ADD25C,1.600000*%
%TD*%
%TA.AperFunction,ComponentPad*%
%ADD26C,1.900000*%
%TD*%
%TA.AperFunction,ComponentPad*%
%ADD27C,0.800000*%
%TD*%
%TA.AperFunction,ComponentPad*%
%ADD28C,6.400000*%
%TD*%
%TA.AperFunction,ComponentPad*%
%ADD29R,1.600000X1.600000*%
%TD*%
%TA.AperFunction,ViaPad*%
%ADD30C,0.800000*%
%TD*%
%TA.AperFunction,Conductor*%
%ADD31C,0.250000*%
%TD*%
G04 APERTURE END LIST*
D10*
G36*
X162779943Y-60295535D02*
G01*
X162816947Y-60332539D01*
X162861653Y-60421951D01*
X162861653Y-60565418D01*
X162816946Y-60654831D01*
X162779941Y-60691836D01*
X162690529Y-60736542D01*
X162304510Y-60736542D01*
X162304510Y-60250828D01*
X162690529Y-60250828D01*
X162779943Y-60295535D01*
G37*
G36*
X164114136Y-60784060D02*
G01*
X164140311Y-60836411D01*
X163733082Y-60917857D01*
X163733082Y-60850523D01*
X163766313Y-60784060D01*
X163832778Y-60750828D01*
X164047672Y-60750828D01*
X164114136Y-60784060D01*
G37*
G36*
X167660683Y-61022257D02*
G01*
X167362624Y-61022257D01*
X167511653Y-60575169D01*
X167660683Y-61022257D01*
G37*
G36*
X168372894Y-61965114D02*
G01*
X161790224Y-61965114D01*
X161790224Y-61600828D01*
X162004510Y-61600828D01*
X162024606Y-61675828D01*
X162079510Y-61730732D01*
X162154510Y-61750828D01*
X162229510Y-61730732D01*
X162284414Y-61675828D01*
X162304510Y-61600828D01*
X162304510Y-61036542D01*
X162433555Y-61036542D01*
X162888768Y-61686847D01*
X162948241Y-61736765D01*
X163024706Y-61750259D01*
X163097672Y-61723713D01*
X163147590Y-61664240D01*
X163161084Y-61587775D01*
X163134538Y-61514809D01*
X163044751Y-61386542D01*
X163433082Y-61386542D01*
X163442006Y-61419847D01*
X163448918Y-61453623D01*
X163520346Y-61596482D01*
X163526433Y-61603346D01*
X163529334Y-61612049D01*
X163551869Y-61632032D01*
X163571861Y-61654577D01*
X163580566Y-61657478D01*
X163587429Y-61663564D01*
X163730287Y-61734993D01*
X163764071Y-61741906D01*
X163797368Y-61750828D01*
X164083082Y-61750828D01*
X164116385Y-61741904D01*
X164150164Y-61734992D01*
X164293021Y-61663564D01*
X164351116Y-61612049D01*
X164375670Y-61538388D01*
X164360103Y-61462318D01*
X164308588Y-61404223D01*
X164234927Y-61379669D01*
X164158858Y-61395236D01*
X164047672Y-61450828D01*
X163832777Y-61450828D01*
X163766314Y-61417597D01*
X163733082Y-61351133D01*
X163733082Y-61223798D01*
X164326786Y-61105058D01*
X164348726Y-61094209D01*
X164372368Y-61087875D01*
X164382959Y-61077283D01*
X164396388Y-61070644D01*
X164409965Y-61050277D01*
X164427272Y-61032971D01*
X164431149Y-61018501D01*
X164439458Y-61006038D01*
X164441033Y-60981613D01*
X164447368Y-60957971D01*
X164447368Y-60815114D01*
X164438445Y-60781813D01*
X164431532Y-60748031D01*
X164360103Y-60605175D01*
X164354016Y-60598311D01*
X164351116Y-60589609D01*
X164333389Y-60573889D01*
X164649806Y-60573889D01*
X164656106Y-60651278D01*
X165013249Y-61651278D01*
X165028616Y-61673510D01*
X165040188Y-61697939D01*
X165050364Y-61704973D01*
X165057399Y-61715150D01*
X165081827Y-61726721D01*
X165104060Y-61742089D01*
X165116389Y-61743092D01*
X165127571Y-61748389D01*
X165154510Y-61746195D01*
X165181449Y-61748389D01*
X165192630Y-61743092D01*
X165204960Y-61742089D01*
X165227192Y-61726721D01*
X165251621Y-61715150D01*
X165258655Y-61704973D01*
X165268832Y-61697939D01*
X165280403Y-61673510D01*
X165295771Y-61651278D01*
X165303049Y-61630900D01*
X166864698Y-61630900D01*
X166899423Y-61700349D01*
X166964219Y-61743130D01*
X167041725Y-61747783D01*
X167111174Y-61713058D01*
X167153955Y-61648262D01*
X167262624Y-61322257D01*
X167760683Y-61322257D01*
X167869351Y-61648262D01*
X167912132Y-61713059D01*
X167981581Y-61747783D01*
X168059087Y-61743131D01*
X168123884Y-61700349D01*
X168158608Y-61630900D01*
X168153956Y-61553394D01*
X167653955Y-60053394D01*
X167637359Y-60028258D01*
X167623884Y-60001307D01*
X167616227Y-59996251D01*
X167611174Y-59988598D01*
X167584231Y-59975126D01*
X167559087Y-59958525D01*
X167549929Y-59957975D01*
X167541725Y-59953873D01*
X167511656Y-59955678D01*
X167481581Y-59953873D01*
X167473374Y-59957976D01*
X167464219Y-59958526D01*
X167439083Y-59975121D01*
X167412132Y-59988597D01*
X167407076Y-59996253D01*
X167399423Y-60001307D01*
X167385949Y-60028253D01*
X167369351Y-60053394D01*
X166869351Y-61553394D01*
X166864698Y-61630900D01*
X165303049Y-61630900D01*
X165652914Y-60651279D01*
X165659214Y-60573889D01*
X165625975Y-60503717D01*
X165562103Y-60459567D01*
X165484714Y-60453267D01*
X165414542Y-60486506D01*
X165370392Y-60550378D01*
X165154510Y-61154847D01*
X164938628Y-60550378D01*
X164894478Y-60486506D01*
X164824306Y-60453267D01*
X164746917Y-60459567D01*
X164683045Y-60503717D01*
X164649806Y-60573889D01*
X164333389Y-60573889D01*
X164328575Y-60569620D01*
X164308587Y-60547080D01*
X164299884Y-60544179D01*
X164293021Y-60538093D01*
X164150164Y-60466664D01*
X164116383Y-60459751D01*
X164083082Y-60450828D01*
X163797368Y-60450828D01*
X163764066Y-60459751D01*
X163730286Y-60466664D01*
X163587428Y-60538093D01*
X163580565Y-60544178D01*
X163571861Y-60547080D01*
X163551873Y-60569620D01*
X163529333Y-60589608D01*
X163526431Y-60598312D01*
X163520346Y-60605175D01*
X163448918Y-60748032D01*
X163442005Y-60781810D01*
X163433082Y-60815114D01*
X163433082Y-61386542D01*
X163044751Y-61386542D01*
X162789211Y-61021485D01*
X162793021Y-61020706D01*
X162935878Y-60949278D01*
X162953947Y-60933254D01*
X162974862Y-60921180D01*
X163046291Y-60849751D01*
X163058365Y-60828836D01*
X163074389Y-60810767D01*
X163145817Y-60667909D01*
X163152728Y-60634133D01*
X163161653Y-60600828D01*
X163161653Y-60386542D01*
X163152728Y-60353236D01*
X163145817Y-60319461D01*
X163074389Y-60176603D01*
X163058365Y-60158533D01*
X163046290Y-60137618D01*
X162974861Y-60066190D01*
X162953946Y-60054115D01*
X162935878Y-60038093D01*
X162793021Y-59966664D01*
X162759240Y-59959751D01*
X162725939Y-59950828D01*
X162154510Y-59950828D01*
X162079510Y-59970924D01*
X162024606Y-60025828D01*
X162004510Y-60100828D01*
X162004510Y-61600828D01*
X161790224Y-61600828D01*
X161790224Y-59736542D01*
X168372894Y-59736542D01*
X168372894Y-61965114D01*
G37*
D11*
%TO.P,U1,1,PB5/RESET*%
%TO.N,Net-(U1-PB5{slash}RESET)*%
X142000000Y-72500000D03*
D12*
%TO.P,U1,2,PB3*%
%TO.N,Net-(Q2-G)*%
X139460000Y-72500000D03*
%TO.P,U1,3,PB4*%
%TO.N,Net-(Q3-G)*%
X136920000Y-72500000D03*
%TO.P,U1,4,GND*%
%TO.N,GND*%
X134380000Y-72500000D03*
%TO.P,U1,5,PB0*%
%TO.N,RX*%
X134380000Y-80120000D03*
%TO.P,U1,6,PB1*%
%TO.N,TX*%
X136920000Y-80120000D03*
%TO.P,U1,7,PB2*%
%TO.N,Net-(U1-PB2)*%
X139460000Y-80120000D03*
%TO.P,U1,8,VCC*%
%TO.N,VDD*%
X142000000Y-80120000D03*
%TD*%
D13*
%TO.P,S3,*%
%TO.N,*%
X135500000Y-93550000D03*
X142500000Y-93550000D03*
D14*
%TO.P,S3,1,1*%
%TO.N,Net-(R5-Pad2)*%
X136750000Y-96100000D03*
%TO.P,S3,2,2*%
%TO.N,Net-(U1-PB5{slash}RESET)*%
X141250000Y-96100000D03*
%TD*%
D13*
%TO.P,S2,*%
%TO.N,*%
X123500000Y-93550000D03*
X130500000Y-93550000D03*
D14*
%TO.P,S2,1,1*%
%TO.N,Net-(R4-Pad2)*%
X124750000Y-96100000D03*
%TO.P,S2,2,2*%
%TO.N,Net-(U1-PB5{slash}RESET)*%
X129250000Y-96100000D03*
%TD*%
%TO.P,S1,2,2*%
%TO.N,Net-(U1-PB5{slash}RESET)*%
X117250000Y-96100000D03*
%TO.P,S1,1,1*%
%TO.N,Net-(R3-Pad2)*%
X112750000Y-96100000D03*
D13*
%TO.P,S1,*%
%TO.N,*%
X118500000Y-93550000D03*
X111500000Y-93550000D03*
%TD*%
D15*
%TO.P,SP1,1,1*%
%TO.N,Net-(R2-Pad2)*%
X159950000Y-83200000D03*
%TO.P,SP1,2,2*%
%TO.N,GND*%
X166450000Y-83200000D03*
%TD*%
D16*
%TO.P,R10,*%
%TO.N,*%
X148900000Y-93200000D03*
X157100000Y-93200000D03*
D14*
%TO.P,R10,1,1*%
%TO.N,VDD*%
X155500000Y-96500000D03*
%TO.P,R10,2,2*%
%TO.N,Net-(U1-PB2)*%
X153000000Y-96500000D03*
%TO.P,R10,3,3*%
%TO.N,GND*%
X150500000Y-96500000D03*
%TD*%
D17*
%TO.P,R9,1*%
%TO.N,Net-(Q3-G)*%
X147600000Y-86200000D03*
D18*
%TO.P,R9,2*%
%TO.N,GND*%
X150140000Y-86200000D03*
%TD*%
D17*
%TO.P,R8,1*%
%TO.N,VDD*%
X123855000Y-84800000D03*
D18*
%TO.P,R8,2*%
%TO.N,Net-(U1-PB5{slash}RESET)*%
X126395000Y-84800000D03*
%TD*%
D17*
%TO.P,R7,1*%
%TO.N,VDD*%
X153300000Y-86200000D03*
D18*
%TO.P,R7,2*%
%TO.N,Net-(Q3-D)*%
X155840000Y-86200000D03*
%TD*%
D17*
%TO.P,R6,1*%
%TO.N,Net-(Q2-G)*%
X139000000Y-67700000D03*
D18*
%TO.P,R6,2*%
%TO.N,GND*%
X141540000Y-67700000D03*
%TD*%
D17*
%TO.P,R5,1*%
%TO.N,GND*%
X139800000Y-89500000D03*
D18*
%TO.P,R5,2*%
%TO.N,Net-(R5-Pad2)*%
X142340000Y-89500000D03*
%TD*%
D17*
%TO.P,R4,1*%
%TO.N,GND*%
X127760000Y-89000000D03*
D18*
%TO.P,R4,2*%
%TO.N,Net-(R4-Pad2)*%
X130300000Y-89000000D03*
%TD*%
D17*
%TO.P,R3,1*%
%TO.N,GND*%
X119060000Y-89000000D03*
D18*
%TO.P,R3,2*%
%TO.N,Net-(R3-Pad2)*%
X121600000Y-89000000D03*
%TD*%
D19*
%TO.P,R2,1,1*%
%TO.N,Net-(C1-Pad2)*%
X159900000Y-72700000D03*
D20*
%TO.P,R2,2,2*%
%TO.N,Net-(R2-Pad2)*%
X164900000Y-70200000D03*
D19*
%TO.P,R2,3,3*%
%TO.N,GND*%
X159900000Y-67700000D03*
%TD*%
D17*
%TO.P,R1,1*%
%TO.N,+5V*%
X127360000Y-74600000D03*
D18*
%TO.P,R1,2*%
%TO.N,GND*%
X129900000Y-74600000D03*
%TD*%
D21*
%TO.P,Q3,1,S*%
%TO.N,GND*%
X148400000Y-77900000D03*
D22*
%TO.P,Q3,2,G*%
%TO.N,Net-(Q3-G)*%
X149670000Y-77900000D03*
%TO.P,Q3,3,D*%
%TO.N,Net-(Q3-D)*%
X150940000Y-77900000D03*
%TD*%
D21*
%TO.P,Q2,1,S*%
%TO.N,GND*%
X145260000Y-67700000D03*
D22*
%TO.P,Q2,2,G*%
%TO.N,Net-(Q2-G)*%
X146530000Y-67700000D03*
%TO.P,Q2,3,D*%
%TO.N,Net-(Q2-D)*%
X147800000Y-67700000D03*
%TD*%
D21*
%TO.P,Q1,1,S*%
%TO.N,VDD*%
X127260000Y-69400000D03*
D22*
%TO.P,Q1,2,G*%
%TO.N,+5V*%
X128530000Y-69400000D03*
%TO.P,Q1,3,D*%
%TO.N,Net-(BT1-+)*%
X129800000Y-69400000D03*
%TD*%
D23*
%TO.P,J3,5,Pin_5*%
%TO.N,GND*%
X128085000Y-60575000D03*
%TO.P,J3,4,Pin_4*%
%TO.N,+5V*%
X125545000Y-60575000D03*
%TO.P,J3,3,Pin_3*%
%TO.N,TX*%
X123005000Y-60575000D03*
%TO.P,J3,2,Pin_2*%
%TO.N,RX*%
X120465000Y-60575000D03*
D24*
%TO.P,J3,1,Pin_1*%
%TO.N,DTR*%
X117925000Y-60575000D03*
%TD*%
D25*
%TO.P,J2,*%
%TO.N,*%
X159000000Y-53000000D03*
X153990000Y-58000000D03*
X149000000Y-53000000D03*
D26*
%TO.P,J2,R*%
%TO.N,RX*%
X159000000Y-58000000D03*
%TO.P,J2,S*%
%TO.N,GND*%
X154000000Y-53000000D03*
%TO.P,J2,T*%
%TO.N,TX*%
X149000000Y-58000000D03*
%TD*%
D25*
%TO.P,J1,*%
%TO.N,*%
X144000000Y-53000000D03*
X138990000Y-58000000D03*
X134000000Y-53000000D03*
D26*
%TO.P,J1,R*%
%TO.N,Net-(Q2-D)*%
X144000000Y-58000000D03*
%TO.P,J1,S*%
%TO.N,GND*%
X139000000Y-53000000D03*
%TO.P,J1,T*%
%TO.N,Net-(Q2-D)*%
X134000000Y-58000000D03*
%TD*%
D27*
%TO.P,H4,1,1*%
%TO.N,GND*%
X107400000Y-95000000D03*
X103302944Y-96697056D03*
X106697056Y-96697056D03*
X105000000Y-97400000D03*
D28*
X105000000Y-95000000D03*
D27*
X102600000Y-95000000D03*
X106697056Y-93302944D03*
X103302944Y-93302944D03*
X105000000Y-92600000D03*
%TD*%
%TO.P,H3,1,1*%
%TO.N,GND*%
X105000000Y-52600000D03*
X103302944Y-53302944D03*
X106697056Y-53302944D03*
X102600000Y-55000000D03*
D28*
X105000000Y-55000000D03*
D27*
X105000000Y-57400000D03*
X106697056Y-56697056D03*
X103302944Y-56697056D03*
X107400000Y-55000000D03*
%TD*%
%TO.P,H2,1,1*%
%TO.N,GND*%
X167400000Y-95000000D03*
X163302944Y-96697056D03*
X166697056Y-96697056D03*
X165000000Y-97400000D03*
D28*
X165000000Y-95000000D03*
D27*
X162600000Y-95000000D03*
X166697056Y-93302944D03*
X163302944Y-93302944D03*
X165000000Y-92600000D03*
%TD*%
%TO.P,H1,1,1*%
%TO.N,GND*%
X167400000Y-55000000D03*
X163302944Y-56697056D03*
X166697056Y-56697056D03*
X165000000Y-57400000D03*
D28*
X165000000Y-55000000D03*
D27*
X162600000Y-55000000D03*
X166697056Y-53302944D03*
X163302944Y-53302944D03*
X165000000Y-52600000D03*
%TD*%
D29*
%TO.P,D1,1,K*%
%TO.N,VDD*%
X123300000Y-67690000D03*
D18*
%TO.P,D1,2,A*%
%TO.N,+5V*%
X123300000Y-75310000D03*
%TD*%
D17*
%TO.P,C5,1*%
%TO.N,RX*%
X155400000Y-67000000D03*
%TO.P,C5,2*%
%TO.N,GND*%
X155400000Y-72000000D03*
%TD*%
%TO.P,C4,1*%
%TO.N,TX*%
X151800000Y-67000000D03*
%TO.P,C4,2*%
%TO.N,GND*%
X151800000Y-72000000D03*
%TD*%
%TO.P,C3,1*%
%TO.N,VDD*%
X142000000Y-84800000D03*
%TO.P,C3,2*%
%TO.N,GND*%
X137000000Y-84800000D03*
%TD*%
%TO.P,C2,1*%
%TO.N,Net-(U1-PB5{slash}RESET)*%
X128800000Y-80000000D03*
%TO.P,C2,2*%
%TO.N,DTR*%
X123800000Y-80000000D03*
%TD*%
%TO.P,C1,1*%
%TO.N,Net-(Q3-D)*%
X154600000Y-81500000D03*
%TO.P,C1,2*%
%TO.N,Net-(C1-Pad2)*%
X154600000Y-76500000D03*
%TD*%
D30*
%TO.N,Net-(Q3-G)*%
X138200000Y-77700000D03*
%TD*%
D31*
%TO.N,Net-(Q3-G)*%
X146675000Y-77700000D02*
X147550000Y-76825000D01*
X138200000Y-77700000D02*
X146675000Y-77700000D01*
X147550000Y-76825000D02*
X149325000Y-76825000D01*
X149325000Y-76825000D02*
X149670000Y-77170000D01*
X149670000Y-77170000D02*
X149670000Y-77900000D01*
%TO.N,Net-(U1-PB2)*%
X139460000Y-80120000D02*
X151325000Y-91985000D01*
X151325000Y-91985000D02*
X151325000Y-94825000D01*
X151325000Y-94825000D02*
X153000000Y-96500000D01*
%TO.N,Net-(R2-Pad2)*%
X164900000Y-70200000D02*
X164900000Y-78250000D01*
X164900000Y-78250000D02*
X159950000Y-83200000D01*
%TO.N,Net-(C1-Pad2)*%
X159900000Y-72700000D02*
X158400000Y-72700000D01*
X158400000Y-72700000D02*
X154600000Y-76500000D01*
%TO.N,Net-(Q3-D)*%
X154600000Y-81500000D02*
X154600000Y-84960000D01*
X154600000Y-84960000D02*
X155840000Y-86200000D01*
X150940000Y-77900000D02*
X151000000Y-77900000D01*
X151000000Y-77900000D02*
X154600000Y-81500000D01*
%TO.N,Net-(Q3-G)*%
X147600000Y-86200000D02*
X149670000Y-84130000D01*
X149670000Y-84130000D02*
X149670000Y-77900000D01*
%TO.N,VDD*%
X155500000Y-96500000D02*
X153300000Y-94300000D01*
X153300000Y-94300000D02*
X153300000Y-86200000D01*
%TO.N,RX*%
X134380000Y-80120000D02*
X138050000Y-76450000D01*
X138050000Y-76450000D02*
X145750000Y-76450000D01*
X155200000Y-67000000D02*
X155400000Y-67000000D01*
X145750000Y-76450000D02*
X155200000Y-67000000D01*
%TO.N,Net-(Q2-D)*%
X147800000Y-67700000D02*
X147800000Y-61800000D01*
X147800000Y-61800000D02*
X144000000Y-58000000D01*
%TO.N,Net-(Q2-G)*%
X139000000Y-67700000D02*
X140125000Y-66575000D01*
X140125000Y-66575000D02*
X146405000Y-66575000D01*
X146405000Y-66575000D02*
X146530000Y-66700000D01*
X146530000Y-66700000D02*
X146530000Y-67700000D01*
X139460000Y-72500000D02*
X139460000Y-68160000D01*
X139460000Y-68160000D02*
X139000000Y-67700000D01*
%TO.N,RX*%
X159000000Y-58000000D02*
X159000000Y-63400000D01*
X159000000Y-63400000D02*
X155400000Y-67000000D01*
%TO.N,TX*%
X149000000Y-58000000D02*
X149000000Y-64200000D01*
X149000000Y-64200000D02*
X151800000Y-67000000D01*
%TO.N,Net-(Q2-D)*%
X134000000Y-58000000D02*
X135125000Y-56875000D01*
X135125000Y-56875000D02*
X142875000Y-56875000D01*
X142875000Y-56875000D02*
X144000000Y-58000000D01*
%TO.N,Net-(U1-PB5{slash}RESET)*%
X132800000Y-76000000D02*
X140300000Y-76000000D01*
X128800000Y-80000000D02*
X132800000Y-76000000D01*
X140300000Y-76000000D02*
X142000000Y-74300000D01*
X142000000Y-74300000D02*
X142000000Y-72500000D01*
X128800000Y-80000000D02*
X128800000Y-82395000D01*
X128800000Y-82395000D02*
X126395000Y-84800000D01*
X126395000Y-84800000D02*
X127690991Y-84800000D01*
X132000000Y-89109009D02*
X132000000Y-94200000D01*
X132000000Y-94200000D02*
X130100000Y-96100000D01*
X127690991Y-84800000D02*
X132000000Y-89109009D01*
X130100000Y-96100000D02*
X129250000Y-96100000D01*
X129250000Y-96100000D02*
X130575000Y-97425000D01*
X130575000Y-97425000D02*
X139925000Y-97425000D01*
X139925000Y-97425000D02*
X141250000Y-96100000D01*
%TO.N,Net-(R5-Pad2)*%
X136750000Y-96100000D02*
X142340000Y-90510000D01*
X142340000Y-90510000D02*
X142340000Y-89500000D01*
%TO.N,Net-(U1-PB5{slash}RESET)*%
X117250000Y-96100000D02*
X118575000Y-97425000D01*
X118575000Y-97425000D02*
X127925000Y-97425000D01*
X127925000Y-97425000D02*
X129250000Y-96100000D01*
%TO.N,Net-(R4-Pad2)*%
X124750000Y-96100000D02*
X124750000Y-94550000D01*
X124750000Y-94550000D02*
X130300000Y-89000000D01*
%TO.N,Net-(R3-Pad2)*%
X112750000Y-96100000D02*
X116775000Y-92075000D01*
X116775000Y-92075000D02*
X118525000Y-92075000D01*
X118525000Y-92075000D02*
X121600000Y-89000000D01*
%TO.N,+5V*%
X128530000Y-69400000D02*
X128530000Y-73430000D01*
X128530000Y-73430000D02*
X127360000Y-74600000D01*
%TO.N,DTR*%
X117925000Y-60575000D02*
X117925000Y-74125000D01*
X117925000Y-74125000D02*
X123800000Y-80000000D01*
%TO.N,+5V*%
X125545000Y-60575000D02*
X122175000Y-63945000D01*
X122175000Y-63945000D02*
X122175000Y-74185000D01*
X122175000Y-74185000D02*
X123300000Y-75310000D01*
X127360000Y-74600000D02*
X124010000Y-74600000D01*
X124010000Y-74600000D02*
X123300000Y-75310000D01*
%TO.N,VDD*%
X123300000Y-67690000D02*
X125550000Y-67690000D01*
X125550000Y-67690000D02*
X127260000Y-69400000D01*
%TD*%
%TA.AperFunction,Conductor*%
%TO.N,GND*%
G36*
X106731939Y-96449096D02*
G01*
X106721680Y-96447056D01*
X106672432Y-96447056D01*
X106599511Y-96461561D01*
X106516816Y-96516816D01*
X106461561Y-96599511D01*
X106442158Y-96697056D01*
X106449096Y-96731939D01*
X105982318Y-96265161D01*
X106134870Y-96134870D01*
X106265161Y-95982318D01*
X106731939Y-96449096D01*
G37*
%TD.AperFunction*%
%TA.AperFunction,Conductor*%
G36*
X103865130Y-96134870D02*
G01*
X104017681Y-96265160D01*
X103550903Y-96731938D01*
X103557842Y-96697056D01*
X103538439Y-96599511D01*
X103483184Y-96516816D01*
X103400489Y-96461561D01*
X103327568Y-96447056D01*
X103278320Y-96447056D01*
X103268057Y-96449097D01*
X103734838Y-95982316D01*
X103865130Y-96134870D01*
G37*
%TD.AperFunction*%
%TA.AperFunction,Conductor*%
G36*
X104017681Y-93734838D02*
G01*
X103865130Y-93865130D01*
X103734838Y-94017681D01*
X103268060Y-93550903D01*
X103278320Y-93552944D01*
X103327568Y-93552944D01*
X103400489Y-93538439D01*
X103483184Y-93483184D01*
X103538439Y-93400489D01*
X103557842Y-93302944D01*
X103550903Y-93268060D01*
X104017681Y-93734838D01*
G37*
%TD.AperFunction*%
%TA.AperFunction,Conductor*%
G36*
X106442158Y-93302944D02*
G01*
X106461561Y-93400489D01*
X106516816Y-93483184D01*
X106599511Y-93538439D01*
X106672432Y-93552944D01*
X106721680Y-93552944D01*
X106731937Y-93550903D01*
X106265160Y-94017681D01*
X106134870Y-93865130D01*
X105982318Y-93734838D01*
X106449096Y-93268059D01*
X106442158Y-93302944D01*
G37*
%TD.AperFunction*%
%TA.AperFunction,Conductor*%
G36*
X166731939Y-96449096D02*
G01*
X166721680Y-96447056D01*
X166672432Y-96447056D01*
X166599511Y-96461561D01*
X166516816Y-96516816D01*
X166461561Y-96599511D01*
X166442158Y-96697056D01*
X166449096Y-96731939D01*
X165982318Y-96265161D01*
X166134870Y-96134870D01*
X166265161Y-95982318D01*
X166731939Y-96449096D01*
G37*
%TD.AperFunction*%
%TA.AperFunction,Conductor*%
G36*
X163865130Y-96134870D02*
G01*
X164017681Y-96265160D01*
X163550903Y-96731938D01*
X163557842Y-96697056D01*
X163538439Y-96599511D01*
X163483184Y-96516816D01*
X163400489Y-96461561D01*
X163327568Y-96447056D01*
X163278320Y-96447056D01*
X163268058Y-96449097D01*
X163734838Y-95982317D01*
X163865130Y-96134870D01*
G37*
%TD.AperFunction*%
%TA.AperFunction,Conductor*%
G36*
X164017681Y-93734838D02*
G01*
X163865130Y-93865130D01*
X163734838Y-94017681D01*
X163268060Y-93550903D01*
X163278320Y-93552944D01*
X163327568Y-93552944D01*
X163400489Y-93538439D01*
X163483184Y-93483184D01*
X163538439Y-93400489D01*
X163557842Y-93302944D01*
X163550903Y-93268060D01*
X164017681Y-93734838D01*
G37*
%TD.AperFunction*%
%TA.AperFunction,Conductor*%
G36*
X166442158Y-93302944D02*
G01*
X166461561Y-93400489D01*
X166516816Y-93483184D01*
X166599511Y-93538439D01*
X166672432Y-93552944D01*
X166721680Y-93552944D01*
X166731937Y-93550903D01*
X166265160Y-94017681D01*
X166134870Y-93865130D01*
X165982318Y-93734838D01*
X166449096Y-93268059D01*
X166442158Y-93302944D01*
G37*
%TD.AperFunction*%
%TA.AperFunction,Conductor*%
G36*
X106731939Y-56449096D02*
G01*
X106721680Y-56447056D01*
X106672432Y-56447056D01*
X106599511Y-56461561D01*
X106516816Y-56516816D01*
X106461561Y-56599511D01*
X106442158Y-56697056D01*
X106449096Y-56731939D01*
X105982318Y-56265161D01*
X106134870Y-56134870D01*
X106265161Y-55982318D01*
X106731939Y-56449096D01*
G37*
%TD.AperFunction*%
%TA.AperFunction,Conductor*%
G36*
X103865130Y-56134870D02*
G01*
X104017681Y-56265160D01*
X103550903Y-56731938D01*
X103557842Y-56697056D01*
X103538439Y-56599511D01*
X103483184Y-56516816D01*
X103400489Y-56461561D01*
X103327568Y-56447056D01*
X103278320Y-56447056D01*
X103268057Y-56449097D01*
X103734838Y-55982316D01*
X103865130Y-56134870D01*
G37*
%TD.AperFunction*%
%TA.AperFunction,Conductor*%
G36*
X104017681Y-53734838D02*
G01*
X103865130Y-53865130D01*
X103734838Y-54017681D01*
X103268060Y-53550903D01*
X103278320Y-53552944D01*
X103327568Y-53552944D01*
X103400489Y-53538439D01*
X103483184Y-53483184D01*
X103538439Y-53400489D01*
X103557842Y-53302944D01*
X103550903Y-53268060D01*
X104017681Y-53734838D01*
G37*
%TD.AperFunction*%
%TA.AperFunction,Conductor*%
G36*
X106442158Y-53302944D02*
G01*
X106461561Y-53400489D01*
X106516816Y-53483184D01*
X106599511Y-53538439D01*
X106672432Y-53552944D01*
X106721680Y-53552944D01*
X106731937Y-53550903D01*
X106265160Y-54017681D01*
X106134870Y-53865130D01*
X105982318Y-53734838D01*
X106449096Y-53268059D01*
X106442158Y-53302944D01*
G37*
%TD.AperFunction*%
%TA.AperFunction,Conductor*%
G36*
X166731939Y-56449096D02*
G01*
X166721680Y-56447056D01*
X166672432Y-56447056D01*
X166599511Y-56461561D01*
X166516816Y-56516816D01*
X166461561Y-56599511D01*
X166442158Y-56697056D01*
X166449096Y-56731939D01*
X165982318Y-56265161D01*
X166134870Y-56134870D01*
X166265161Y-55982318D01*
X166731939Y-56449096D01*
G37*
%TD.AperFunction*%
%TA.AperFunction,Conductor*%
G36*
X163865130Y-56134870D02*
G01*
X164017681Y-56265160D01*
X163550903Y-56731938D01*
X163557842Y-56697056D01*
X163538439Y-56599511D01*
X163483184Y-56516816D01*
X163400489Y-56461561D01*
X163327568Y-56447056D01*
X163278320Y-56447056D01*
X163268058Y-56449097D01*
X163734838Y-55982317D01*
X163865130Y-56134870D01*
G37*
%TD.AperFunction*%
%TA.AperFunction,Conductor*%
G36*
X164017681Y-53734838D02*
G01*
X163865130Y-53865130D01*
X163734838Y-54017681D01*
X163268060Y-53550903D01*
X163278320Y-53552944D01*
X163327568Y-53552944D01*
X163400489Y-53538439D01*
X163483184Y-53483184D01*
X163538439Y-53400489D01*
X163557842Y-53302944D01*
X163550903Y-53268060D01*
X164017681Y-53734838D01*
G37*
%TD.AperFunction*%
%TA.AperFunction,Conductor*%
G36*
X166442158Y-53302944D02*
G01*
X166461561Y-53400489D01*
X166516816Y-53483184D01*
X166599511Y-53538439D01*
X166672432Y-53552944D01*
X166721680Y-53552944D01*
X166731937Y-53550903D01*
X166265160Y-54017681D01*
X166134870Y-53865130D01*
X165982318Y-53734838D01*
X166449096Y-53268059D01*
X166442158Y-53302944D01*
G37*
%TD.AperFunction*%
%TA.AperFunction,Conductor*%
G36*
X166851355Y-50000549D02*
G01*
X167162756Y-50009286D01*
X167173129Y-50010015D01*
X167494797Y-50046258D01*
X167508504Y-50048587D01*
X167688118Y-50089582D01*
X167822411Y-50120233D01*
X167835759Y-50124078D01*
X168139677Y-50230423D01*
X168152519Y-50235743D01*
X168442598Y-50375438D01*
X168454768Y-50382164D01*
X168727384Y-50553460D01*
X168738725Y-50561507D01*
X168990457Y-50762257D01*
X169000825Y-50771523D01*
X169228476Y-50999174D01*
X169237742Y-51009542D01*
X169438492Y-51261274D01*
X169446539Y-51272615D01*
X169617835Y-51545231D01*
X169624561Y-51557401D01*
X169764256Y-51847480D01*
X169769578Y-51860327D01*
X169875918Y-52164230D01*
X169879767Y-52177593D01*
X169951412Y-52491495D01*
X169953741Y-52505203D01*
X169989983Y-52826856D01*
X169990714Y-52837262D01*
X169999451Y-53148643D01*
X169999500Y-53152121D01*
X169999500Y-96847877D01*
X169999451Y-96851355D01*
X169990714Y-97162737D01*
X169989983Y-97173143D01*
X169953741Y-97494796D01*
X169951412Y-97508504D01*
X169879767Y-97822406D01*
X169875918Y-97835769D01*
X169769578Y-98139672D01*
X169764256Y-98152519D01*
X169624561Y-98442598D01*
X169617835Y-98454768D01*
X169446539Y-98727384D01*
X169438492Y-98738725D01*
X169237742Y-98990457D01*
X169228476Y-99000825D01*
X169000825Y-99228476D01*
X168990457Y-99237742D01*
X168738725Y-99438492D01*
X168727384Y-99446539D01*
X168454768Y-99617835D01*
X168442598Y-99624561D01*
X168152519Y-99764256D01*
X168139672Y-99769578D01*
X167835769Y-99875918D01*
X167822406Y-99879767D01*
X167508504Y-99951412D01*
X167494796Y-99953741D01*
X167173143Y-99989983D01*
X167162737Y-99990714D01*
X166851355Y-99999451D01*
X166847877Y-99999500D01*
X103152123Y-99999500D01*
X103148645Y-99999451D01*
X102837262Y-99990714D01*
X102826856Y-99989983D01*
X102505203Y-99953741D01*
X102491495Y-99951412D01*
X102177593Y-99879767D01*
X102164230Y-99875918D01*
X101860327Y-99769578D01*
X101847480Y-99764256D01*
X101557401Y-99624561D01*
X101545231Y-99617835D01*
X101272615Y-99446539D01*
X101261274Y-99438492D01*
X101009542Y-99237742D01*
X100999174Y-99228476D01*
X100771523Y-99000825D01*
X100762257Y-98990457D01*
X100561507Y-98738725D01*
X100553460Y-98727384D01*
X100382164Y-98454768D01*
X100375438Y-98442598D01*
X100368511Y-98428215D01*
X100235743Y-98152519D01*
X100230421Y-98139672D01*
X100129236Y-97850500D01*
X100124078Y-97835759D01*
X100120232Y-97822406D01*
X100116251Y-97804966D01*
X100048587Y-97508504D01*
X100046258Y-97494796D01*
X100036193Y-97405468D01*
X100010015Y-97173129D01*
X100009286Y-97162756D01*
X100000549Y-96851355D01*
X100000500Y-96847877D01*
X100000500Y-95000000D01*
X101495197Y-95000000D01*
X101514397Y-95366353D01*
X101571784Y-95728684D01*
X101571784Y-95728686D01*
X101666736Y-96083051D01*
X101798204Y-96425535D01*
X101964754Y-96752406D01*
X102164553Y-97060070D01*
X102384936Y-97332219D01*
X103054985Y-96662169D01*
X103048046Y-96697056D01*
X103067449Y-96794601D01*
X103122704Y-96877296D01*
X103205399Y-96932551D01*
X103278320Y-96947056D01*
X103327568Y-96947056D01*
X103337826Y-96945015D01*
X102667779Y-97615062D01*
X102939929Y-97835446D01*
X103247593Y-98035245D01*
X103574464Y-98201795D01*
X103916948Y-98333263D01*
X104271314Y-98428215D01*
X104633646Y-98485602D01*
X104999999Y-98504803D01*
X105000001Y-98504803D01*
X105366353Y-98485602D01*
X105728684Y-98428215D01*
X105728686Y-98428215D01*
X106083051Y-98333263D01*
X106425535Y-98201795D01*
X106752406Y-98035245D01*
X107060064Y-97835450D01*
X107332219Y-97615062D01*
X106662172Y-96945015D01*
X106672432Y-96947056D01*
X106721680Y-96947056D01*
X106794601Y-96932551D01*
X106877296Y-96877296D01*
X106932551Y-96794601D01*
X106951954Y-96697056D01*
X106945015Y-96662172D01*
X107615062Y-97332219D01*
X107835450Y-97060064D01*
X108035245Y-96752406D01*
X108201795Y-96425535D01*
X108333263Y-96083051D01*
X108428215Y-95728686D01*
X108428215Y-95728684D01*
X108485602Y-95366353D01*
X108504803Y-95000000D01*
X108504803Y-94999999D01*
X108485602Y-94633646D01*
X108428215Y-94271315D01*
X108428215Y-94271313D01*
X108333263Y-93916948D01*
X108201795Y-93574464D01*
X108189332Y-93550005D01*
X110044529Y-93550005D01*
X110064379Y-93789559D01*
X110123389Y-94022589D01*
X110219951Y-94242729D01*
X110351427Y-94443966D01*
X110351429Y-94443969D01*
X110514236Y-94620825D01*
X110514239Y-94620827D01*
X110514242Y-94620830D01*
X110703924Y-94768466D01*
X110703930Y-94768470D01*
X110703933Y-94768472D01*
X110848125Y-94846505D01*
X110896963Y-94872935D01*
X110915344Y-94882882D01*
X110915347Y-94882883D01*
X111142699Y-94960933D01*
X111142701Y-94960933D01*
X111142703Y-94960934D01*
X111379808Y-95000500D01*
X111379809Y-95000500D01*
X111620190Y-95000500D01*
X111620192Y-95000500D01*
X111706663Y-94986070D01*
X111776026Y-94994452D01*
X111829848Y-95039004D01*
X111851039Y-95105582D01*
X111832872Y-95173049D01*
X111814753Y-95196060D01*
X111749951Y-95260862D01*
X111619432Y-95447265D01*
X111619431Y-95447267D01*
X111523261Y-95653502D01*
X111523258Y-95653511D01*
X111464366Y-95873302D01*
X111464364Y-95873313D01*
X111444532Y-96099998D01*
X111444532Y-96100001D01*
X111464364Y-96326686D01*
X111464366Y-96326697D01*
X111523258Y-96546488D01*
X111523261Y-96546497D01*
X111619431Y-96752732D01*
X111619432Y-96752734D01*
X111749954Y-96939141D01*
X111910858Y-97100045D01*
X111910861Y-97100047D01*
X112097266Y-97230568D01*
X112303504Y-97326739D01*
X112303509Y-97326740D01*
X112303511Y-97326741D01*
X112349782Y-97339139D01*
X112523308Y-97385635D01*
X112685230Y-97399801D01*
X112749998Y-97405468D01*
X112750000Y-97405468D01*
X112750002Y-97405468D01*
X112812499Y-97400000D01*
X112976692Y-97385635D01*
X113196496Y-97326739D01*
X113402734Y-97230568D01*
X113589139Y-97100047D01*
X113750047Y-96939139D01*
X113880568Y-96752734D01*
X113976739Y-96546496D01*
X114035635Y-96326692D01*
X114055468Y-96100000D01*
X114035635Y-95873308D01*
X113976739Y-95653504D01*
X113956667Y-95610461D01*
X113946176Y-95541386D01*
X113974695Y-95477602D01*
X113981356Y-95470390D01*
X116914929Y-92536819D01*
X116976252Y-92503334D01*
X117002610Y-92500500D01*
X117223911Y-92500500D01*
X117290950Y-92520185D01*
X117336705Y-92572989D01*
X117346649Y-92642147D01*
X117327719Y-92692321D01*
X117312274Y-92715960D01*
X117219951Y-92857270D01*
X117123389Y-93077410D01*
X117064379Y-93310440D01*
X117044529Y-93549994D01*
X117044529Y-93550005D01*
X117064379Y-93789559D01*
X117123389Y-94022589D01*
X117219951Y-94242729D01*
X117351427Y-94443966D01*
X117351429Y-94443969D01*
X117452001Y-94553220D01*
X117494599Y-94599493D01*
X117525521Y-94662148D01*
X117517661Y-94731574D01*
X117473514Y-94785729D01*
X117407096Y-94807420D01*
X117392562Y-94807004D01*
X117250002Y-94794532D01*
X117249998Y-94794532D01*
X117023313Y-94814364D01*
X117023302Y-94814366D01*
X116803511Y-94873258D01*
X116803502Y-94873261D01*
X116597267Y-94969431D01*
X116597265Y-94969432D01*
X116410858Y-95099954D01*
X116249954Y-95260858D01*
X116119432Y-95447265D01*
X116119431Y-95447267D01*
X116023261Y-95653502D01*
X116023258Y-95653511D01*
X115964366Y-95873302D01*
X115964364Y-95873313D01*
X115944532Y-96099998D01*
X115944532Y-96100001D01*
X115964364Y-96326686D01*
X115964366Y-96326697D01*
X116023258Y-96546488D01*
X116023261Y-96546497D01*
X116119431Y-96752732D01*
X116119432Y-96752734D01*
X116249954Y-96939141D01*
X116410858Y-97100045D01*
X116410861Y-97100047D01*
X116597266Y-97230568D01*
X116803504Y-97326739D01*
X116803509Y-97326740D01*
X116803511Y-97326741D01*
X116849782Y-97339139D01*
X117023308Y-97385635D01*
X117185230Y-97399801D01*
X117249998Y-97405468D01*
X117250000Y-97405468D01*
X117250002Y-97405468D01*
X117312499Y-97400000D01*
X117476692Y-97385635D01*
X117696496Y-97326739D01*
X117739533Y-97306669D01*
X117808609Y-97296175D01*
X117872394Y-97324693D01*
X117879621Y-97331369D01*
X118226472Y-97678220D01*
X118321780Y-97773528D01*
X118343299Y-97784492D01*
X118359878Y-97794651D01*
X118379419Y-97808849D01*
X118402381Y-97816309D01*
X118420354Y-97823753D01*
X118441874Y-97834719D01*
X118465724Y-97838495D01*
X118484645Y-97843039D01*
X118506489Y-97850136D01*
X118507607Y-97850500D01*
X118507608Y-97850500D01*
X127992392Y-97850500D01*
X127992393Y-97850500D01*
X128015360Y-97843036D01*
X128034276Y-97838495D01*
X128058126Y-97834719D01*
X128079636Y-97823757D01*
X128097614Y-97816310D01*
X128120581Y-97808849D01*
X128140118Y-97794653D01*
X128156706Y-97784488D01*
X128178220Y-97773528D01*
X128273528Y-97678220D01*
X128620379Y-97331367D01*
X128681700Y-97297884D01*
X128751391Y-97302868D01*
X128760447Y-97306660D01*
X128803504Y-97326739D01*
X128803510Y-97326740D01*
X128803511Y-97326741D01*
X128849782Y-97339139D01*
X129023308Y-97385635D01*
X129185230Y-97399801D01*
X129249998Y-97405468D01*
X129250000Y-97405468D01*
X129250002Y-97405468D01*
X129312499Y-97400000D01*
X129476692Y-97385635D01*
X129696496Y-97326739D01*
X129739533Y-97306669D01*
X129808609Y-97296175D01*
X129872394Y-97324693D01*
X129879621Y-97331369D01*
X130226472Y-97678220D01*
X130321780Y-97773528D01*
X130343299Y-97784492D01*
X130359878Y-97794651D01*
X130379419Y-97808849D01*
X130402381Y-97816309D01*
X130420354Y-97823753D01*
X130441874Y-97834719D01*
X130465724Y-97838495D01*
X130484645Y-97843039D01*
X130506489Y-97850136D01*
X130507607Y-97850500D01*
X130507608Y-97850500D01*
X139992392Y-97850500D01*
X139992393Y-97850500D01*
X140015360Y-97843036D01*
X140034276Y-97838495D01*
X140058126Y-97834719D01*
X140079636Y-97823757D01*
X140097614Y-97816310D01*
X140120581Y-97808849D01*
X140140118Y-97794653D01*
X140156706Y-97784488D01*
X140178220Y-97773528D01*
X140273528Y-97678220D01*
X140620379Y-97331367D01*
X140681700Y-97297884D01*
X140751391Y-97302868D01*
X140760447Y-97306660D01*
X140803504Y-97326739D01*
X140803510Y-97326740D01*
X140803511Y-97326741D01*
X140849782Y-97339139D01*
X141023308Y-97385635D01*
X141185230Y-97399801D01*
X141249998Y-97405468D01*
X141250000Y-97405468D01*
X141250002Y-97405468D01*
X141312499Y-97400000D01*
X141476692Y-97385635D01*
X141696496Y-97326739D01*
X141902734Y-97230568D01*
X142089139Y-97100047D01*
X142250047Y-96939139D01*
X142380568Y-96752734D01*
X142476739Y-96546496D01*
X142535635Y-96326692D01*
X142555468Y-96100000D01*
X142535635Y-95873308D01*
X142476739Y-95653504D01*
X142380568Y-95447266D01*
X142260157Y-95275300D01*
X142250045Y-95260858D01*
X142185247Y-95196060D01*
X142151762Y-95134737D01*
X142156746Y-95065045D01*
X142198618Y-95009112D01*
X142264082Y-94984695D01*
X142293332Y-94986069D01*
X142379808Y-95000500D01*
X142379809Y-95000500D01*
X142620191Y-95000500D01*
X142620192Y-95000500D01*
X142857297Y-94960934D01*
X142865477Y-94958126D01*
X143027641Y-94902455D01*
X143084656Y-94882882D01*
X143296067Y-94768472D01*
X143310027Y-94757607D01*
X143361997Y-94717157D01*
X143485764Y-94620825D01*
X143648571Y-94443969D01*
X143780049Y-94242728D01*
X143876610Y-94022591D01*
X143935620Y-93789563D01*
X143953444Y-93574464D01*
X143955471Y-93550005D01*
X143955471Y-93549994D01*
X143935620Y-93310440D01*
X143935620Y-93310437D01*
X143876610Y-93077409D01*
X143780049Y-92857272D01*
X143765821Y-92835495D01*
X143714310Y-92756651D01*
X143648571Y-92656031D01*
X143485764Y-92479175D01*
X143485759Y-92479171D01*
X143485757Y-92479169D01*
X143296075Y-92331533D01*
X143296069Y-92331529D01*
X143084657Y-92217118D01*
X143084652Y-92217116D01*
X142857300Y-92139066D01*
X142679468Y-92109391D01*
X142620192Y-92099500D01*
X142379808Y-92099500D01*
X142332387Y-92107413D01*
X142142699Y-92139066D01*
X141915347Y-92217116D01*
X141915342Y-92217118D01*
X141703930Y-92331529D01*
X141703924Y-92331533D01*
X141514242Y-92479169D01*
X141514239Y-92479172D01*
X141351430Y-92656029D01*
X141351427Y-92656033D01*
X141219951Y-92857270D01*
X141123389Y-93077410D01*
X141064379Y-93310440D01*
X141044529Y-93549994D01*
X141044529Y-93550005D01*
X141064379Y-93789559D01*
X141123389Y-94022589D01*
X141219951Y-94242729D01*
X141351427Y-94443966D01*
X141351429Y-94443969D01*
X141452001Y-94553220D01*
X141494599Y-94599493D01*
X141525521Y-94662148D01*
X141517661Y-94731574D01*
X141473514Y-94785729D01*
X141407096Y-94807420D01*
X141392562Y-94807004D01*
X141250002Y-94794532D01*
X141249998Y-94794532D01*
X141023313Y-94814364D01*
X141023302Y-94814366D01*
X140803511Y-94873258D01*
X140803502Y-94873261D01*
X140597267Y-94969431D01*
X140597265Y-94969432D01*
X140410858Y-95099954D01*
X140249954Y-95260858D01*
X140119432Y-95447265D01*
X140119431Y-95447267D01*
X140023261Y-95653502D01*
X140023258Y-95653511D01*
X139964366Y-95873302D01*
X139964364Y-95873313D01*
X139944532Y-96099998D01*
X139944532Y-96100001D01*
X139964364Y-96326686D01*
X139964366Y-96326697D01*
X140023258Y-96546488D01*
X140023260Y-96546493D01*
X140023261Y-96546496D01*
X140042745Y-96588279D01*
X140043331Y-96589536D01*
X140053822Y-96658614D01*
X140025301Y-96722398D01*
X140018630Y-96729621D01*
X139785069Y-96963182D01*
X139723749Y-96996666D01*
X139697390Y-96999500D01*
X137945982Y-96999500D01*
X137878943Y-96979815D01*
X137833188Y-96927011D01*
X137823244Y-96857853D01*
X137844406Y-96804378D01*
X137880568Y-96752734D01*
X137976739Y-96546496D01*
X138035635Y-96326692D01*
X138055468Y-96100000D01*
X138035635Y-95873308D01*
X137976739Y-95653504D01*
X137956667Y-95610461D01*
X137946176Y-95541386D01*
X137974695Y-95477602D01*
X137981356Y-95470390D01*
X142664554Y-90787194D01*
X142688528Y-90763220D01*
X142699490Y-90741705D01*
X142709652Y-90725121D01*
X142723850Y-90705581D01*
X142731311Y-90682614D01*
X142738760Y-90664633D01*
X142749718Y-90643129D01*
X142749718Y-90643128D01*
X142749718Y-90643127D01*
X142749719Y-90643126D01*
X142753496Y-90619273D01*
X142758035Y-90600366D01*
X142765500Y-90577393D01*
X142765500Y-90577390D01*
X142768516Y-90568109D01*
X142770764Y-90568839D01*
X142794810Y-90518098D01*
X142828000Y-90492748D01*
X142827763Y-90492366D01*
X142831662Y-90489951D01*
X142832115Y-90489606D01*
X142832618Y-90489355D01*
X142832637Y-90489348D01*
X143006041Y-90381981D01*
X143156764Y-90244579D01*
X143279673Y-90081821D01*
X143370582Y-89899250D01*
X143426397Y-89703083D01*
X143445215Y-89500000D01*
X143426397Y-89296917D01*
X143370582Y-89100750D01*
X143341137Y-89041617D01*
X143297693Y-88954369D01*
X143279673Y-88918179D01*
X143156764Y-88755421D01*
X143156762Y-88755418D01*
X143006041Y-88618019D01*
X143006039Y-88618017D01*
X142832642Y-88510655D01*
X142832635Y-88510651D01*
X142643705Y-88437460D01*
X142642456Y-88436976D01*
X142441976Y-88399500D01*
X142238024Y-88399500D01*
X142037544Y-88436976D01*
X142037541Y-88436976D01*
X142037541Y-88436977D01*
X141847364Y-88510651D01*
X141847357Y-88510655D01*
X141673960Y-88618017D01*
X141673958Y-88618019D01*
X141523237Y-88755418D01*
X141400327Y-88918178D01*
X141309422Y-89100739D01*
X141309417Y-89100752D01*
X141253602Y-89296917D01*
X141234785Y-89499999D01*
X141234785Y-89500000D01*
X141253602Y-89703082D01*
X141309417Y-89899247D01*
X141309422Y-89899260D01*
X141400327Y-90081821D01*
X141523237Y-90244581D01*
X141678195Y-90385843D01*
X141676429Y-90387779D01*
X141711434Y-90434921D01*
X141716148Y-90504632D01*
X141682766Y-90565484D01*
X137379621Y-94868629D01*
X137318298Y-94902114D01*
X137248606Y-94897130D01*
X137239536Y-94893331D01*
X137217126Y-94882881D01*
X137196496Y-94873261D01*
X137196493Y-94873260D01*
X137196488Y-94873258D01*
X136976697Y-94814366D01*
X136976693Y-94814365D01*
X136976692Y-94814365D01*
X136976691Y-94814364D01*
X136976686Y-94814364D01*
X136750002Y-94794532D01*
X136749998Y-94794532D01*
X136607437Y-94807004D01*
X136538937Y-94793237D01*
X136488754Y-94744622D01*
X136472821Y-94676593D01*
X136496197Y-94610750D01*
X136505388Y-94599506D01*
X136648571Y-94443969D01*
X136780049Y-94242728D01*
X136876610Y-94022591D01*
X136935620Y-93789563D01*
X136953444Y-93574464D01*
X136955471Y-93550005D01*
X136955471Y-93549994D01*
X136935620Y-93310440D01*
X136935620Y-93310437D01*
X136876610Y-93077409D01*
X136780049Y-92857272D01*
X136765821Y-92835495D01*
X136714310Y-92756651D01*
X136648571Y-92656031D01*
X136485764Y-92479175D01*
X136485759Y-92479171D01*
X136485757Y-92479169D01*
X136296075Y-92331533D01*
X136296069Y-92331529D01*
X136084657Y-92217118D01*
X136084652Y-92217116D01*
X135857300Y-92139066D01*
X135679468Y-92109391D01*
X135620192Y-92099500D01*
X135379808Y-92099500D01*
X135332387Y-92107413D01*
X135142699Y-92139066D01*
X134915347Y-92217116D01*
X134915342Y-92217118D01*
X134703930Y-92331529D01*
X134703924Y-92331533D01*
X134514242Y-92479169D01*
X134514239Y-92479172D01*
X134351430Y-92656029D01*
X134351427Y-92656033D01*
X134219951Y-92857270D01*
X134123389Y-93077410D01*
X134064379Y-93310440D01*
X134044529Y-93549994D01*
X134044529Y-93550005D01*
X134064379Y-93789559D01*
X134123389Y-94022589D01*
X134219951Y-94242729D01*
X134351427Y-94443966D01*
X134351429Y-94443969D01*
X134514236Y-94620825D01*
X134514239Y-94620827D01*
X134514242Y-94620830D01*
X134703924Y-94768466D01*
X134703930Y-94768470D01*
X134703933Y-94768472D01*
X134848125Y-94846505D01*
X134896963Y-94872935D01*
X134915344Y-94882882D01*
X134915347Y-94882883D01*
X135142699Y-94960933D01*
X135142701Y-94960933D01*
X135142703Y-94960934D01*
X135379808Y-95000500D01*
X135379809Y-95000500D01*
X135620190Y-95000500D01*
X135620192Y-95000500D01*
X135706663Y-94986070D01*
X135776026Y-94994452D01*
X135829848Y-95039004D01*
X135851039Y-95105582D01*
X135832872Y-95173049D01*
X135814753Y-95196060D01*
X135749951Y-95260862D01*
X135619432Y-95447265D01*
X135619431Y-95447267D01*
X135523261Y-95653502D01*
X135523258Y-95653511D01*
X135464366Y-95873302D01*
X135464364Y-95873313D01*
X135444532Y-96099998D01*
X135444532Y-96100001D01*
X135464364Y-96326686D01*
X135464366Y-96326697D01*
X135523258Y-96546488D01*
X135523261Y-96546497D01*
X135607288Y-96726692D01*
X135619432Y-96752734D01*
X135655593Y-96804378D01*
X135677920Y-96870583D01*
X135660910Y-96938350D01*
X135609962Y-96986163D01*
X135554018Y-96999500D01*
X130802610Y-96999500D01*
X130735571Y-96979815D01*
X130714929Y-96963181D01*
X130481369Y-96729621D01*
X130447884Y-96668298D01*
X130452868Y-96598606D01*
X130456665Y-96589542D01*
X130476739Y-96546496D01*
X130535635Y-96326692D01*
X130537509Y-96305264D01*
X130562960Y-96240197D01*
X130573348Y-96228398D01*
X132324554Y-94477194D01*
X132348528Y-94453220D01*
X132359490Y-94431705D01*
X132369652Y-94415121D01*
X132383850Y-94395581D01*
X132391311Y-94372614D01*
X132398760Y-94354633D01*
X132409718Y-94333129D01*
X132409718Y-94333128D01*
X132409718Y-94333127D01*
X132409719Y-94333126D01*
X132413496Y-94309273D01*
X132418035Y-94290366D01*
X132425500Y-94267393D01*
X132425500Y-94132607D01*
X132425500Y-89500000D01*
X138695287Y-89500000D01*
X138714096Y-89702989D01*
X138714097Y-89702992D01*
X138769883Y-89899063D01*
X138769886Y-89899069D01*
X138860750Y-90081549D01*
X138860755Y-90081556D01*
X138892957Y-90124200D01*
X139411714Y-89605443D01*
X139414835Y-89625148D01*
X139472359Y-89738045D01*
X139561955Y-89827641D01*
X139674852Y-89885165D01*
X139694555Y-89888285D01*
X139175641Y-90407199D01*
X139175641Y-90407200D01*
X139307583Y-90488897D01*
X139307587Y-90488899D01*
X139497677Y-90562539D01*
X139698072Y-90600000D01*
X139901928Y-90600000D01*
X140102322Y-90562539D01*
X140292410Y-90488899D01*
X140424357Y-90407200D01*
X140424357Y-90407199D01*
X139905444Y-89888285D01*
X139925148Y-89885165D01*
X140038045Y-89827641D01*
X140127641Y-89738045D01*
X140185165Y-89625148D01*
X140188285Y-89605443D01*
X140707041Y-90124199D01*
X140739244Y-90081558D01*
X140739249Y-90081550D01*
X140830113Y-89899069D01*
X140830116Y-89899063D01*
X140885902Y-89702992D01*
X140885903Y-89702989D01*
X140904713Y-89500000D01*
X140904713Y-89499999D01*
X140885903Y-89297010D01*
X140885902Y-89297007D01*
X140830116Y-89100936D01*
X140830113Y-89100930D01*
X140739245Y-88918443D01*
X140707041Y-88875798D01*
X140188285Y-89394555D01*
X140185165Y-89374852D01*
X140127641Y-89261955D01*
X140038045Y-89172359D01*
X139925148Y-89114835D01*
X139905443Y-89111714D01*
X140424358Y-88592799D01*
X140424357Y-88592798D01*
X140292413Y-88511101D01*
X140292412Y-88511100D01*
X140102322Y-88437460D01*
X139901928Y-88400000D01*
X139698072Y-88400000D01*
X139497678Y-88437460D01*
X139307584Y-88511102D01*
X139175640Y-88592799D01*
X139694556Y-89111714D01*
X139674852Y-89114835D01*
X139561955Y-89172359D01*
X139472359Y-89261955D01*
X139414835Y-89374852D01*
X139411714Y-89394556D01*
X138892956Y-88875798D01*
X138860756Y-88918439D01*
X138769886Y-89100930D01*
X138769883Y-89100936D01*
X138714097Y-89297007D01*
X138714096Y-89297010D01*
X138695287Y-89499999D01*
X138695287Y-89500000D01*
X132425500Y-89500000D01*
X132425500Y-89075521D01*
X132425500Y-89041616D01*
X132418039Y-89018654D01*
X132413495Y-88999730D01*
X132409719Y-88975883D01*
X132398753Y-88954363D01*
X132391308Y-88936387D01*
X132385392Y-88918179D01*
X132383849Y-88913428D01*
X132369651Y-88893887D01*
X132359492Y-88877308D01*
X132348528Y-88855789D01*
X132253220Y-88760481D01*
X128292739Y-84800000D01*
X135895287Y-84800000D01*
X135914096Y-85002989D01*
X135914097Y-85002992D01*
X135969883Y-85199063D01*
X135969886Y-85199069D01*
X136060750Y-85381549D01*
X136060755Y-85381556D01*
X136092957Y-85424200D01*
X136611714Y-84905443D01*
X136614835Y-84925148D01*
X136672359Y-85038045D01*
X136761955Y-85127641D01*
X136874852Y-85185165D01*
X136894555Y-85188285D01*
X136375641Y-85707199D01*
X136375641Y-85707200D01*
X136507583Y-85788897D01*
X136507587Y-85788899D01*
X136697677Y-85862539D01*
X136898072Y-85900000D01*
X137101928Y-85900000D01*
X137302322Y-85862539D01*
X137492410Y-85788899D01*
X137624357Y-85707200D01*
X137624357Y-85707199D01*
X137105444Y-85188285D01*
X137125148Y-85185165D01*
X137238045Y-85127641D01*
X137327641Y-85038045D01*
X137385165Y-84925148D01*
X137388285Y-84905443D01*
X137907041Y-85424199D01*
X137939244Y-85381558D01*
X137939249Y-85381550D01*
X138030113Y-85199069D01*
X138030116Y-85199063D01*
X138085902Y-85002992D01*
X138085903Y-85002989D01*
X138104713Y-84800000D01*
X138104713Y-84799999D01*
X138085903Y-84597010D01*
X138085902Y-84597007D01*
X138030116Y-84400936D01*
X138030113Y-84400930D01*
X137939245Y-84218443D01*
X137907041Y-84175798D01*
X137388285Y-84694555D01*
X137385165Y-84674852D01*
X137327641Y-84561955D01*
X137238045Y-84472359D01*
X137125148Y-84414835D01*
X137105443Y-84411714D01*
X137624358Y-83892799D01*
X137624357Y-83892798D01*
X137492413Y-83811101D01*
X137492412Y-83811100D01*
X137302322Y-83737460D01*
X137101928Y-83700000D01*
X136898072Y-83700000D01*
X136697678Y-83737460D01*
X136507584Y-83811102D01*
X136375640Y-83892799D01*
X136894556Y-84411714D01*
X136874852Y-84414835D01*
X136761955Y-84472359D01*
X136672359Y-84561955D01*
X136614835Y-84674852D01*
X136611714Y-84694556D01*
X136092956Y-84175798D01*
X136060756Y-84218439D01*
X135969886Y-84400930D01*
X135969883Y-84400936D01*
X135914097Y-84597007D01*
X135914096Y-84597010D01*
X135895287Y-84799999D01*
X135895287Y-84800000D01*
X128292739Y-84800000D01*
X127968185Y-84475446D01*
X127944211Y-84451472D01*
X127944209Y-84451470D01*
X127922694Y-84440508D01*
X127906101Y-84430340D01*
X127886571Y-84416150D01*
X127863606Y-84408688D01*
X127845632Y-84401243D01*
X127824118Y-84390281D01*
X127819001Y-84389470D01*
X127800264Y-84386503D01*
X127781349Y-84381962D01*
X127758385Y-84374500D01*
X127758384Y-84374500D01*
X127724479Y-84374500D01*
X127721610Y-84374500D01*
X127654571Y-84354815D01*
X127608816Y-84302011D01*
X127598872Y-84232853D01*
X127627897Y-84169297D01*
X127633929Y-84162819D01*
X128390914Y-83405834D01*
X129124554Y-82672194D01*
X129148528Y-82648220D01*
X129159490Y-82626705D01*
X129169652Y-82610121D01*
X129183850Y-82590581D01*
X129191311Y-82567614D01*
X129198760Y-82549633D01*
X129209718Y-82528129D01*
X129209718Y-82528128D01*
X129209718Y-82528127D01*
X129209719Y-82528126D01*
X129213496Y-82504273D01*
X129218035Y-82485366D01*
X129225500Y-82462393D01*
X129225500Y-82327607D01*
X129225500Y-81099555D01*
X129245185Y-81032516D01*
X129288555Y-80993645D01*
X129287763Y-80992366D01*
X129466039Y-80881982D01*
X129466038Y-80881982D01*
X129466041Y-80881981D01*
X129616764Y-80744579D01*
X129739673Y-80581821D01*
X129830582Y-80399250D01*
X129886397Y-80203083D01*
X129905215Y-80000000D01*
X129886397Y-79796917D01*
X129843970Y-79647803D01*
X129844556Y-79577940D01*
X129875553Y-79526193D01*
X132939929Y-76461819D01*
X133001252Y-76428334D01*
X133027610Y-76425500D01*
X137173390Y-76425500D01*
X137240429Y-76445185D01*
X137286184Y-76497989D01*
X137296128Y-76567147D01*
X137267103Y-76630703D01*
X137261071Y-76637181D01*
X135124998Y-78773252D01*
X135063675Y-78806737D01*
X134993983Y-78801753D01*
X134975321Y-78792960D01*
X134850480Y-78720883D01*
X134839246Y-78714397D01*
X134839245Y-78714396D01*
X134839244Y-78714396D01*
X134640633Y-78645656D01*
X134432602Y-78615746D01*
X134432598Y-78615746D01*
X134222672Y-78625745D01*
X134018421Y-78675296D01*
X134018417Y-78675298D01*
X133827256Y-78762598D01*
X133827251Y-78762601D01*
X133656046Y-78884515D01*
X133656040Y-78884520D01*
X133511014Y-79036620D01*
X133397388Y-79213425D01*
X133319274Y-79408544D01*
X133281301Y-79605570D01*
X133279500Y-79614915D01*
X133279500Y-80572425D01*
X133294472Y-80729218D01*
X133353684Y-80930875D01*
X133421810Y-81063022D01*
X133449991Y-81117686D01*
X133579905Y-81282883D01*
X133579909Y-81282887D01*
X133738746Y-81420521D01*
X133920750Y-81525601D01*
X133920752Y-81525601D01*
X133920756Y-81525604D01*
X134119367Y-81594344D01*
X134327398Y-81624254D01*
X134537330Y-81614254D01*
X134741576Y-81564704D01*
X134827199Y-81525601D01*
X134932743Y-81477401D01*
X134932746Y-81477399D01*
X134932753Y-81477396D01*
X135103952Y-81355486D01*
X135159794Y-81296921D01*
X135248985Y-81203379D01*
X135304057Y-81117686D01*
X135362613Y-81026572D01*
X135440725Y-80831457D01*
X135480500Y-80625085D01*
X135480500Y-79672609D01*
X135500185Y-79605570D01*
X135516813Y-79584933D01*
X135612946Y-79488800D01*
X135674265Y-79455318D01*
X135743957Y-79460302D01*
X135799891Y-79502173D01*
X135824308Y-79567637D01*
X135822384Y-79599946D01*
X135819500Y-79614913D01*
X135819500Y-79614915D01*
X135819500Y-80572425D01*
X135834472Y-80729218D01*
X135893684Y-80930875D01*
X135961810Y-81063022D01*
X135989991Y-81117686D01*
X136119905Y-81282883D01*
X136119909Y-81282887D01*
X136278746Y-81420521D01*
X136460750Y-81525601D01*
X136460752Y-81525601D01*
X136460756Y-81525604D01*
X136659367Y-81594344D01*
X136867398Y-81624254D01*
X137077330Y-81614254D01*
X137281576Y-81564704D01*
X137367199Y-81525601D01*
X137472743Y-81477401D01*
X137472746Y-81477399D01*
X137472753Y-81477396D01*
X137643952Y-81355486D01*
X137699794Y-81296921D01*
X137788985Y-81203379D01*
X137844057Y-81117686D01*
X137902613Y-81026572D01*
X137980725Y-80831457D01*
X138020500Y-80625085D01*
X138020500Y-79667575D01*
X138005528Y-79510782D01*
X137946316Y-79309125D01*
X137850011Y-79122318D01*
X137850009Y-79122316D01*
X137850008Y-79122313D01*
X137720094Y-78957116D01*
X137720090Y-78957112D01*
X137561253Y-78819478D01*
X137379249Y-78714398D01*
X137379245Y-78714396D01*
X137379244Y-78714396D01*
X137180633Y-78645656D01*
X136972602Y-78615746D01*
X136972598Y-78615746D01*
X136782045Y-78624823D01*
X136714145Y-78608350D01*
X136665929Y-78557783D01*
X136652707Y-78489176D01*
X136678675Y-78424311D01*
X136688456Y-78413290D01*
X137304250Y-77797496D01*
X137365571Y-77764013D01*
X137435263Y-77768997D01*
X137491196Y-77810869D01*
X137511691Y-77861926D01*
X137513065Y-77861588D01*
X137514860Y-77868874D01*
X137575182Y-78027931D01*
X137634243Y-78113494D01*
X137671817Y-78167929D01*
X137746806Y-78234363D01*
X137799150Y-78280736D01*
X137930430Y-78349637D01*
X137949775Y-78359790D01*
X138114944Y-78400500D01*
X138285056Y-78400500D01*
X138450225Y-78359790D01*
X138557466Y-78303505D01*
X138600849Y-78280736D01*
X138600850Y-78280734D01*
X138600852Y-78280734D01*
X138728183Y-78167929D01*
X138728185Y-78167925D01*
X138728767Y-78167270D01*
X138729312Y-78166927D01*
X138733797Y-78162955D01*
X138734457Y-78163700D01*
X138787958Y-78130145D01*
X138821580Y-78125500D01*
X146742392Y-78125500D01*
X146742393Y-78125500D01*
X146765360Y-78118036D01*
X146784276Y-78113495D01*
X146808126Y-78109719D01*
X146829636Y-78098757D01*
X146847614Y-78091310D01*
X146870581Y-78083849D01*
X146890118Y-78069653D01*
X146906706Y-78059488D01*
X146928220Y-78048528D01*
X147023528Y-77953220D01*
X147363321Y-77613426D01*
X147424642Y-77579943D01*
X147494333Y-77584927D01*
X147550267Y-77626798D01*
X147574684Y-77692263D01*
X147574958Y-77699958D01*
X147575000Y-77700000D01*
X148078239Y-77700000D01*
X148031449Y-77806670D01*
X148021114Y-77931395D01*
X148051837Y-78052719D01*
X148082727Y-78100000D01*
X147575001Y-78100000D01*
X147575001Y-78694785D01*
X147575002Y-78694808D01*
X147577908Y-78719869D01*
X147577909Y-78719873D01*
X147623211Y-78822474D01*
X147623214Y-78822479D01*
X147702520Y-78901785D01*
X147702525Y-78901788D01*
X147805123Y-78947089D01*
X147830206Y-78949999D01*
X148199999Y-78949999D01*
X148200000Y-78949998D01*
X148200000Y-78219534D01*
X148219052Y-78234363D01*
X148337424Y-78275000D01*
X148431073Y-78275000D01*
X148523446Y-78259586D01*
X148600000Y-78218156D01*
X148600000Y-78949999D01*
X148969786Y-78949999D01*
X148969808Y-78949997D01*
X148994869Y-78947091D01*
X148994872Y-78947090D01*
X149070415Y-78913736D01*
X149139693Y-78904665D01*
X149202878Y-78934489D01*
X149239908Y-78993739D01*
X149244500Y-79027171D01*
X149244500Y-83902389D01*
X149224815Y-83969428D01*
X149208181Y-83990070D01*
X148074061Y-85124189D01*
X148012738Y-85157674D01*
X147943046Y-85152690D01*
X147941587Y-85152135D01*
X147902460Y-85136977D01*
X147902457Y-85136976D01*
X147829488Y-85123336D01*
X147701976Y-85099500D01*
X147498024Y-85099500D01*
X147297544Y-85136976D01*
X147297541Y-85136976D01*
X147297541Y-85136977D01*
X147107364Y-85210651D01*
X147107357Y-85210655D01*
X146933960Y-85318017D01*
X146933958Y-85318019D01*
X146783237Y-85455418D01*
X146660327Y-85618178D01*
X146569422Y-85800739D01*
X146569417Y-85800752D01*
X146513602Y-85996917D01*
X146494785Y-86199999D01*
X146494785Y-86200001D01*
X146499152Y-86247130D01*
X146485737Y-86315700D01*
X146437380Y-86366132D01*
X146369434Y-86382414D01*
X146303471Y-86359376D01*
X146288000Y-86346252D01*
X141765396Y-81823648D01*
X141731911Y-81762325D01*
X141736895Y-81692633D01*
X141778767Y-81636700D01*
X141844231Y-81612283D01*
X141870714Y-81613228D01*
X141947398Y-81624254D01*
X142157330Y-81614254D01*
X142361576Y-81564704D01*
X142447199Y-81525601D01*
X142552743Y-81477401D01*
X142552746Y-81477399D01*
X142552753Y-81477396D01*
X142723952Y-81355486D01*
X142779794Y-81296921D01*
X142868985Y-81203379D01*
X142924057Y-81117686D01*
X142982613Y-81026572D01*
X143060725Y-80831457D01*
X143100500Y-80625085D01*
X143100500Y-79667575D01*
X143085528Y-79510782D01*
X143026316Y-79309125D01*
X142930011Y-79122318D01*
X142930009Y-79122316D01*
X142930008Y-79122313D01*
X142800094Y-78957116D01*
X142800090Y-78957112D01*
X142641253Y-78819478D01*
X142459249Y-78714398D01*
X142459245Y-78714396D01*
X142459244Y-78714396D01*
X142260633Y-78645656D01*
X142052602Y-78615746D01*
X142052598Y-78615746D01*
X141842672Y-78625745D01*
X141638421Y-78675296D01*
X141638417Y-78675298D01*
X141447256Y-78762598D01*
X141447251Y-78762601D01*
X141276046Y-78884515D01*
X141276040Y-78884520D01*
X141131014Y-79036620D01*
X141017388Y-79213425D01*
X140939274Y-79408544D01*
X140901301Y-79605570D01*
X140899500Y-79614915D01*
X140899500Y-80572425D01*
X140901536Y-80593746D01*
X140907390Y-80655055D01*
X140894166Y-80723662D01*
X140845950Y-80774229D01*
X140778050Y-80790701D01*
X140712023Y-80767848D01*
X140696275Y-80754527D01*
X140596818Y-80655070D01*
X140563334Y-80593746D01*
X140560500Y-80567389D01*
X140560500Y-79667580D01*
X140558612Y-79647806D01*
X140545528Y-79510782D01*
X140486316Y-79309125D01*
X140390011Y-79122318D01*
X140390009Y-79122316D01*
X140390008Y-79122313D01*
X140260094Y-78957116D01*
X140260090Y-78957112D01*
X140101253Y-78819478D01*
X139919249Y-78714398D01*
X139919245Y-78714396D01*
X139919244Y-78714396D01*
X139720633Y-78645656D01*
X139512602Y-78615746D01*
X139512598Y-78615746D01*
X139302672Y-78625745D01*
X139098421Y-78675296D01*
X139098417Y-78675298D01*
X138907256Y-78762598D01*
X138907251Y-78762601D01*
X138736046Y-78884515D01*
X138736040Y-78884520D01*
X138591014Y-79036620D01*
X138477388Y-79213425D01*
X138399274Y-79408544D01*
X138361301Y-79605570D01*
X138359500Y-79614915D01*
X138359500Y-80572425D01*
X138374472Y-80729218D01*
X138433684Y-80930875D01*
X138501810Y-81063022D01*
X138529991Y-81117686D01*
X138659905Y-81282883D01*
X138659909Y-81282887D01*
X138818746Y-81420521D01*
X139000750Y-81525601D01*
X139000752Y-81525601D01*
X139000756Y-81525604D01*
X139199367Y-81594344D01*
X139407398Y-81624254D01*
X139617330Y-81614254D01*
X139821576Y-81564704D01*
X140012753Y-81477396D01*
X140045819Y-81453849D01*
X140111844Y-81430997D01*
X140179744Y-81447468D01*
X140205427Y-81467175D01*
X142231801Y-83493549D01*
X142265286Y-83554872D01*
X142260302Y-83624564D01*
X142218430Y-83680497D01*
X142152966Y-83704914D01*
X142121336Y-83703119D01*
X142101976Y-83699500D01*
X141898024Y-83699500D01*
X141697544Y-83736976D01*
X141697541Y-83736976D01*
X141697541Y-83736977D01*
X141507364Y-83810651D01*
X141507357Y-83810655D01*
X141333960Y-83918017D01*
X141333958Y-83918019D01*
X141183237Y-84055418D01*
X141060327Y-84218178D01*
X140969422Y-84400739D01*
X140969417Y-84400752D01*
X140913602Y-84596917D01*
X140894785Y-84799999D01*
X140894785Y-84800000D01*
X140913602Y-85003082D01*
X140969417Y-85199247D01*
X140969422Y-85199260D01*
X141060327Y-85381821D01*
X141183237Y-85544581D01*
X141333958Y-85681980D01*
X141333960Y-85681982D01*
X141374689Y-85707200D01*
X141507363Y-85789348D01*
X141697544Y-85863024D01*
X141898024Y-85900500D01*
X141898026Y-85900500D01*
X142101974Y-85900500D01*
X142101976Y-85900500D01*
X142302456Y-85863024D01*
X142492637Y-85789348D01*
X142666041Y-85681981D01*
X142816764Y-85544579D01*
X142939673Y-85381821D01*
X143030582Y-85199250D01*
X143086397Y-85003083D01*
X143105215Y-84800000D01*
X143092677Y-84664696D01*
X143106092Y-84596130D01*
X143154448Y-84545698D01*
X143222394Y-84529415D01*
X143288357Y-84552452D01*
X143303829Y-84565577D01*
X149352035Y-90613783D01*
X149385520Y-90675106D01*
X149380536Y-90744798D01*
X149338664Y-90800731D01*
X149273200Y-90825148D01*
X149248812Y-90824486D01*
X149051036Y-90799500D01*
X149051027Y-90799500D01*
X148748973Y-90799500D01*
X148748963Y-90799500D01*
X148449304Y-90837357D01*
X148156737Y-90912474D01*
X148156734Y-90912475D01*
X147875904Y-91023663D01*
X147875903Y-91023664D01*
X147611205Y-91169184D01*
X147611193Y-91169191D01*
X147366846Y-91346719D01*
X147366836Y-91346727D01*
X147146652Y-91553494D01*
X146954111Y-91786236D01*
X146792268Y-92041261D01*
X146792265Y-92041267D01*
X146663661Y-92314563D01*
X146663659Y-92314568D01*
X146570320Y-92601835D01*
X146513719Y-92898546D01*
X146513718Y-92898553D01*
X146494754Y-93199994D01*
X146494754Y-93200005D01*
X146513718Y-93501446D01*
X146513719Y-93501453D01*
X146527243Y-93572347D01*
X146563077Y-93760198D01*
X146570320Y-93798164D01*
X146663659Y-94085431D01*
X146663661Y-94085436D01*
X146792265Y-94358732D01*
X146792268Y-94358738D01*
X146954111Y-94613763D01*
X146954114Y-94613767D01*
X146954115Y-94613768D01*
X147124526Y-94819760D01*
X147146652Y-94846505D01*
X147185391Y-94882883D01*
X147360821Y-95047624D01*
X147366836Y-95053272D01*
X147366846Y-95053280D01*
X147611193Y-95230808D01*
X147611198Y-95230810D01*
X147611205Y-95230816D01*
X147875896Y-95376332D01*
X147875901Y-95376334D01*
X147875903Y-95376335D01*
X147875904Y-95376336D01*
X148156734Y-95487524D01*
X148156737Y-95487525D01*
X148205142Y-95499953D01*
X148449302Y-95562642D01*
X148585562Y-95579856D01*
X148748963Y-95600499D01*
X148748969Y-95600499D01*
X148748973Y-95600500D01*
X148748975Y-95600500D01*
X149051025Y-95600500D01*
X149051027Y-95600500D01*
X149051032Y-95600499D01*
X149051036Y-95600499D01*
X149134729Y-95589925D01*
X149312939Y-95567412D01*
X149381916Y-95578539D01*
X149433929Y-95625191D01*
X149452462Y-95692558D01*
X149431632Y-95759251D01*
X149430055Y-95761557D01*
X149369868Y-95847512D01*
X149369866Y-95847516D01*
X149273734Y-96053673D01*
X149273730Y-96053682D01*
X149214860Y-96273389D01*
X149214858Y-96273400D01*
X149195034Y-96499997D01*
X149195034Y-96500002D01*
X149214858Y-96726599D01*
X149214860Y-96726610D01*
X149273730Y-96946317D01*
X149273734Y-96946326D01*
X149369865Y-97152482D01*
X149450095Y-97267061D01*
X150032972Y-96684184D01*
X150040507Y-96709844D01*
X150118239Y-96830798D01*
X150226900Y-96924952D01*
X150316823Y-96966018D01*
X149732937Y-97549903D01*
X149847521Y-97630136D01*
X150053668Y-97726264D01*
X150053682Y-97726269D01*
X150273389Y-97785139D01*
X150273400Y-97785141D01*
X150499998Y-97804966D01*
X150500002Y-97804966D01*
X150726599Y-97785141D01*
X150726610Y-97785139D01*
X150946317Y-97726269D01*
X150946331Y-97726264D01*
X151152478Y-97630136D01*
X151152486Y-97630132D01*
X151267061Y-97549904D01*
X150683176Y-96966019D01*
X150773100Y-96924952D01*
X150881761Y-96830798D01*
X150959493Y-96709844D01*
X150967027Y-96684184D01*
X151549904Y-97267061D01*
X151630132Y-97152486D01*
X151630132Y-97152485D01*
X151637340Y-97137028D01*
X151683511Y-97084587D01*
X151750704Y-97065433D01*
X151817585Y-97085646D01*
X151862105Y-97137022D01*
X151869430Y-97152730D01*
X151869432Y-97152734D01*
X151999954Y-97339141D01*
X152160858Y-97500045D01*
X152160861Y-97500047D01*
X152347266Y-97630568D01*
X152553504Y-97726739D01*
X152773308Y-97785635D01*
X152935230Y-97799801D01*
X152999998Y-97805468D01*
X153000000Y-97805468D01*
X153000002Y-97805468D01*
X153056673Y-97800509D01*
X153226692Y-97785635D01*
X153446496Y-97726739D01*
X153652734Y-97630568D01*
X153839139Y-97500047D01*
X154000047Y-97339139D01*
X154130568Y-97152734D01*
X154137618Y-97137614D01*
X154183789Y-97085176D01*
X154250982Y-97066023D01*
X154317864Y-97086238D01*
X154362381Y-97137614D01*
X154369432Y-97152733D01*
X154369432Y-97152734D01*
X154499954Y-97339141D01*
X154660858Y-97500045D01*
X154660861Y-97500047D01*
X154847266Y-97630568D01*
X155053504Y-97726739D01*
X155273308Y-97785635D01*
X155435230Y-97799801D01*
X155499998Y-97805468D01*
X155500000Y-97805468D01*
X155500002Y-97805468D01*
X155556673Y-97800509D01*
X155726692Y-97785635D01*
X155946496Y-97726739D01*
X156152734Y-97630568D01*
X156339139Y-97500047D01*
X156500047Y-97339139D01*
X156630568Y-97152734D01*
X156726739Y-96946496D01*
X156785635Y-96726692D01*
X156805468Y-96500000D01*
X156785635Y-96273308D01*
X156726739Y-96053504D01*
X156630568Y-95847266D01*
X156570614Y-95761642D01*
X156548287Y-95695435D01*
X156565298Y-95627668D01*
X156616246Y-95579856D01*
X156684956Y-95567178D01*
X156687731Y-95567497D01*
X156948963Y-95600499D01*
X156948969Y-95600499D01*
X156948973Y-95600500D01*
X156948975Y-95600500D01*
X157251025Y-95600500D01*
X157251027Y-95600500D01*
X157251032Y-95600499D01*
X157251036Y-95600499D01*
X157330591Y-95590448D01*
X157550698Y-95562642D01*
X157843262Y-95487525D01*
X157868325Y-95477602D01*
X158124095Y-95376336D01*
X158124096Y-95376335D01*
X158124094Y-95376335D01*
X158124104Y-95376332D01*
X158388795Y-95230816D01*
X158633162Y-95053274D01*
X158689893Y-95000000D01*
X161495197Y-95000000D01*
X161514397Y-95366353D01*
X161571784Y-95728684D01*
X161571784Y-95728686D01*
X161666736Y-96083051D01*
X161798204Y-96425535D01*
X161964754Y-96752406D01*
X162164553Y-97060070D01*
X162384936Y-97332219D01*
X163054985Y-96662170D01*
X163048046Y-96697056D01*
X163067449Y-96794601D01*
X163122704Y-96877296D01*
X163205399Y-96932551D01*
X163278320Y-96947056D01*
X163327568Y-96947056D01*
X163337826Y-96945015D01*
X162667779Y-97615062D01*
X162939929Y-97835446D01*
X163247593Y-98035245D01*
X163574464Y-98201795D01*
X163916948Y-98333263D01*
X164271314Y-98428215D01*
X164633646Y-98485602D01*
X164999999Y-98504803D01*
X165000001Y-98504803D01*
X165366353Y-98485602D01*
X165728684Y-98428215D01*
X165728686Y-98428215D01*
X166083051Y-98333263D01*
X166425535Y-98201795D01*
X166752406Y-98035245D01*
X167060064Y-97835450D01*
X167332219Y-97615062D01*
X166662172Y-96945015D01*
X166672432Y-96947056D01*
X166721680Y-96947056D01*
X166794601Y-96932551D01*
X166877296Y-96877296D01*
X166932551Y-96794601D01*
X166951954Y-96697056D01*
X166945015Y-96662172D01*
X167615062Y-97332219D01*
X167835450Y-97060064D01*
X168035245Y-96752406D01*
X168201795Y-96425535D01*
X168333263Y-96083051D01*
X168428215Y-95728686D01*
X168428215Y-95728684D01*
X168485602Y-95366353D01*
X168504803Y-95000000D01*
X168504803Y-94999999D01*
X168485602Y-94633646D01*
X168428215Y-94271315D01*
X168428215Y-94271313D01*
X168333263Y-93916948D01*
X168201795Y-93574464D01*
X168035245Y-93247594D01*
X167835446Y-92939929D01*
X167615062Y-92667779D01*
X166945015Y-93337825D01*
X166951954Y-93302944D01*
X166932551Y-93205399D01*
X166877296Y-93122704D01*
X166794601Y-93067449D01*
X166721680Y-93052944D01*
X166672432Y-93052944D01*
X166662171Y-93054984D01*
X167332220Y-92384936D01*
X167060070Y-92164553D01*
X166752406Y-91964754D01*
X166425535Y-91798204D01*
X166083051Y-91666736D01*
X165728685Y-91571784D01*
X165366353Y-91514397D01*
X165000001Y-91495197D01*
X164999999Y-91495197D01*
X164633646Y-91514397D01*
X164271315Y-91571784D01*
X164271313Y-91571784D01*
X163916948Y-91666736D01*
X163574464Y-91798204D01*
X163247594Y-91964754D01*
X162939924Y-92164557D01*
X162667779Y-92384934D01*
X162667778Y-92384935D01*
X163337827Y-93054984D01*
X163327568Y-93052944D01*
X163278320Y-93052944D01*
X163205399Y-93067449D01*
X163122704Y-93122704D01*
X163067449Y-93205399D01*
X163048046Y-93302944D01*
X163054984Y-93337827D01*
X162384935Y-92667778D01*
X162384934Y-92667779D01*
X162164557Y-92939924D01*
X161964754Y-93247594D01*
X161798204Y-93574464D01*
X161666736Y-93916948D01*
X161571784Y-94271313D01*
X161571784Y-94271315D01*
X161514397Y-94633646D01*
X161495197Y-94999999D01*
X161495197Y-95000000D01*
X158689893Y-95000000D01*
X158853349Y-94846504D01*
X159045885Y-94613768D01*
X159207733Y-94358736D01*
X159336341Y-94085430D01*
X159429681Y-93798160D01*
X159486280Y-93501457D01*
X159487430Y-93483184D01*
X159505246Y-93200005D01*
X159505246Y-93199994D01*
X159486281Y-92898553D01*
X159486280Y-92898546D01*
X159486280Y-92898543D01*
X159429681Y-92601840D01*
X159336341Y-92314570D01*
X159207733Y-92041264D01*
X159108795Y-91885362D01*
X159045888Y-91786236D01*
X158996447Y-91726472D01*
X158853349Y-91553496D01*
X158633162Y-91346726D01*
X158633159Y-91346724D01*
X158633153Y-91346719D01*
X158388806Y-91169191D01*
X158388799Y-91169186D01*
X158388795Y-91169184D01*
X158124104Y-91023668D01*
X158124101Y-91023666D01*
X158124096Y-91023664D01*
X158124095Y-91023663D01*
X157843265Y-90912475D01*
X157843262Y-90912474D01*
X157550695Y-90837357D01*
X157251036Y-90799500D01*
X157251027Y-90799500D01*
X156948973Y-90799500D01*
X156948963Y-90799500D01*
X156649304Y-90837357D01*
X156356737Y-90912474D01*
X156356734Y-90912475D01*
X156075904Y-91023663D01*
X156075903Y-91023664D01*
X155811205Y-91169184D01*
X155811193Y-91169191D01*
X155566846Y-91346719D01*
X155566836Y-91346727D01*
X155346652Y-91553494D01*
X155154111Y-91786236D01*
X154992268Y-92041261D01*
X154992265Y-92041267D01*
X154863661Y-92314563D01*
X154863659Y-92314568D01*
X154770320Y-92601835D01*
X154713719Y-92898546D01*
X154713718Y-92898553D01*
X154694754Y-93199994D01*
X154694754Y-93200005D01*
X154713718Y-93501446D01*
X154713719Y-93501453D01*
X154727243Y-93572347D01*
X154763077Y-93760198D01*
X154770320Y-93798164D01*
X154863659Y-94085431D01*
X154863661Y-94085436D01*
X154992265Y-94358732D01*
X154992268Y-94358738D01*
X155154111Y-94613763D01*
X155154114Y-94613767D01*
X155154115Y-94613768D01*
X155346651Y-94846504D01*
X155496672Y-94987384D01*
X155532066Y-95047624D01*
X155529274Y-95117438D01*
X155489180Y-95174659D01*
X155424515Y-95201120D01*
X155422596Y-95201303D01*
X155273312Y-95214364D01*
X155273302Y-95214366D01*
X155053511Y-95273258D01*
X155053506Y-95273260D01*
X155010460Y-95293332D01*
X154941382Y-95303822D01*
X154877599Y-95275300D01*
X154870377Y-95268629D01*
X153761819Y-94160071D01*
X153728334Y-94098748D01*
X153725500Y-94072390D01*
X153725500Y-87299555D01*
X153745185Y-87232516D01*
X153788555Y-87193645D01*
X153787763Y-87192366D01*
X153966039Y-87081982D01*
X153966038Y-87081982D01*
X153966041Y-87081981D01*
X154116764Y-86944579D01*
X154239673Y-86781821D01*
X154330582Y-86599250D01*
X154386397Y-86403083D01*
X154405215Y-86200000D01*
X154386397Y-85996917D01*
X154330582Y-85800750D01*
X154323991Y-85787514D01*
X154239804Y-85618443D01*
X154239673Y-85618179D01*
X154116764Y-85455421D01*
X154116762Y-85455418D01*
X153966041Y-85318019D01*
X153966039Y-85318017D01*
X153792642Y-85210655D01*
X153792635Y-85210651D01*
X153650479Y-85155580D01*
X153602456Y-85136976D01*
X153401976Y-85099500D01*
X153198024Y-85099500D01*
X152997544Y-85136976D01*
X152997541Y-85136976D01*
X152997541Y-85136977D01*
X152807364Y-85210651D01*
X152807357Y-85210655D01*
X152633960Y-85318017D01*
X152633958Y-85318019D01*
X152483237Y-85455418D01*
X152360327Y-85618178D01*
X152269422Y-85800739D01*
X152269417Y-85800752D01*
X152213602Y-85996917D01*
X152194785Y-86199999D01*
X152194785Y-86200000D01*
X152213602Y-86403082D01*
X152269417Y-86599247D01*
X152269422Y-86599260D01*
X152360327Y-86781821D01*
X152483237Y-86944581D01*
X152633958Y-87081980D01*
X152633960Y-87081982D01*
X152812237Y-87192366D01*
X152811375Y-87193756D01*
X152856998Y-87236041D01*
X152874500Y-87299555D01*
X152874500Y-94367394D01*
X152881962Y-94390358D01*
X152886503Y-94409273D01*
X152887429Y-94415116D01*
X152890281Y-94433127D01*
X152901243Y-94454641D01*
X152908688Y-94472615D01*
X152916150Y-94495580D01*
X152930340Y-94515110D01*
X152940508Y-94531703D01*
X152951470Y-94553218D01*
X153426644Y-95028392D01*
X153460129Y-95089715D01*
X153455145Y-95159407D01*
X153413273Y-95215340D01*
X153347809Y-95239757D01*
X153306870Y-95235848D01*
X153226697Y-95214366D01*
X153226693Y-95214365D01*
X153226692Y-95214365D01*
X153226691Y-95214364D01*
X153226686Y-95214364D01*
X153000002Y-95194532D01*
X152999998Y-95194532D01*
X152773313Y-95214364D01*
X152773302Y-95214366D01*
X152553511Y-95273258D01*
X152553506Y-95273260D01*
X152510460Y-95293332D01*
X152441382Y-95303822D01*
X152377599Y-95275300D01*
X152370377Y-95268629D01*
X151786819Y-94685071D01*
X151753334Y-94623748D01*
X151750500Y-94597390D01*
X151750500Y-91917608D01*
X151750499Y-91917604D01*
X151743039Y-91894645D01*
X151738495Y-91875721D01*
X151734719Y-91851874D01*
X151723753Y-91830354D01*
X151716308Y-91812378D01*
X151708849Y-91789420D01*
X151708849Y-91789419D01*
X151694651Y-91769878D01*
X151684492Y-91753299D01*
X151673528Y-91731780D01*
X151578220Y-91636472D01*
X147453929Y-87512181D01*
X147420444Y-87450858D01*
X147425428Y-87381166D01*
X147467300Y-87325233D01*
X147532764Y-87300816D01*
X147541610Y-87300500D01*
X147701974Y-87300500D01*
X147701976Y-87300500D01*
X147902456Y-87263024D01*
X148092637Y-87189348D01*
X148266041Y-87081981D01*
X148416764Y-86944579D01*
X148539673Y-86781821D01*
X148630582Y-86599250D01*
X148686397Y-86403083D01*
X148686683Y-86400000D01*
X149053820Y-86400000D01*
X149054096Y-86402986D01*
X149054098Y-86402996D01*
X149109883Y-86599063D01*
X149109886Y-86599069D01*
X149200754Y-86781556D01*
X149323608Y-86944242D01*
X149474260Y-87081578D01*
X149647584Y-87188897D01*
X149837677Y-87262539D01*
X149940000Y-87281666D01*
X149940000Y-86547025D01*
X150014852Y-86585165D01*
X150108519Y-86600000D01*
X150171481Y-86600000D01*
X150265148Y-86585165D01*
X150340000Y-86547025D01*
X150340000Y-87281666D01*
X150442322Y-87262539D01*
X150632415Y-87188897D01*
X150805739Y-87081578D01*
X150956391Y-86944242D01*
X151079245Y-86781556D01*
X151170113Y-86599069D01*
X151170116Y-86599063D01*
X151225901Y-86402996D01*
X151225903Y-86402986D01*
X151226179Y-86400000D01*
X150487026Y-86400000D01*
X150525165Y-86325148D01*
X150544986Y-86200000D01*
X150525165Y-86074852D01*
X150487026Y-86000000D01*
X151226180Y-86000000D01*
X151226179Y-85999999D01*
X151225903Y-85997013D01*
X151225901Y-85997003D01*
X151170116Y-85800936D01*
X151170113Y-85800930D01*
X151079245Y-85618443D01*
X150956391Y-85455757D01*
X150805739Y-85318421D01*
X150632415Y-85211102D01*
X150442322Y-85137460D01*
X150340000Y-85118332D01*
X150340000Y-85852974D01*
X150265148Y-85814835D01*
X150171481Y-85800000D01*
X150108519Y-85800000D01*
X150014852Y-85814835D01*
X149940000Y-85852974D01*
X149940000Y-85118332D01*
X149837677Y-85137460D01*
X149647584Y-85211102D01*
X149474260Y-85318421D01*
X149323608Y-85455757D01*
X149200754Y-85618443D01*
X149109886Y-85800930D01*
X149109883Y-85800936D01*
X149054098Y-85997003D01*
X149054096Y-85997013D01*
X149053820Y-85999999D01*
X149053820Y-86000000D01*
X149792974Y-86000000D01*
X149754835Y-86074852D01*
X149735014Y-86200000D01*
X149754835Y-86325148D01*
X149792974Y-86400000D01*
X149053820Y-86400000D01*
X148686683Y-86400000D01*
X148705215Y-86200000D01*
X148686397Y-85996917D01*
X148643970Y-85847803D01*
X148644556Y-85777939D01*
X148675553Y-85726192D01*
X149923218Y-84478529D01*
X149923220Y-84478528D01*
X150018528Y-84383220D01*
X150029493Y-84361698D01*
X150039658Y-84345112D01*
X150053849Y-84325581D01*
X150061310Y-84302614D01*
X150068759Y-84284634D01*
X150079718Y-84263128D01*
X150079718Y-84263127D01*
X150079719Y-84263126D01*
X150083495Y-84239276D01*
X150088036Y-84220360D01*
X150095500Y-84197393D01*
X150095500Y-84062607D01*
X150095500Y-78904048D01*
X150115185Y-78837009D01*
X150139221Y-78809542D01*
X150222676Y-78738656D01*
X150286513Y-78710259D01*
X150355570Y-78720883D01*
X150392972Y-78747889D01*
X150402431Y-78757875D01*
X150402434Y-78757877D01*
X150402435Y-78757878D01*
X150425110Y-78773252D01*
X150551049Y-78858640D01*
X150551050Y-78858640D01*
X150551051Y-78858641D01*
X150551053Y-78858642D01*
X150717847Y-78925099D01*
X150717848Y-78925099D01*
X150717853Y-78925101D01*
X150895045Y-78954150D01*
X151074339Y-78944429D01*
X151143291Y-78925285D01*
X151247344Y-78896395D01*
X151247344Y-78896394D01*
X151247351Y-78896393D01*
X151262646Y-78888283D01*
X151331095Y-78874273D01*
X151396254Y-78899493D01*
X151408410Y-78910158D01*
X153524443Y-81026191D01*
X153557928Y-81087514D01*
X153556029Y-81147806D01*
X153513602Y-81296921D01*
X153494785Y-81499999D01*
X153494785Y-81500000D01*
X153513602Y-81703082D01*
X153569417Y-81899247D01*
X153569422Y-81899260D01*
X153660327Y-82081821D01*
X153783237Y-82244581D01*
X153933958Y-82381980D01*
X153933960Y-82381982D01*
X154112237Y-82492366D01*
X154111375Y-82493756D01*
X154156998Y-82536041D01*
X154174500Y-82599555D01*
X154174500Y-85027394D01*
X154181962Y-85050358D01*
X154186503Y-85069273D01*
X154188652Y-85082842D01*
X154190281Y-85093127D01*
X154201243Y-85114641D01*
X154208688Y-85132615D01*
X154216150Y-85155580D01*
X154230340Y-85175110D01*
X154240508Y-85191703D01*
X154251470Y-85213218D01*
X154764443Y-85726191D01*
X154797928Y-85787514D01*
X154796029Y-85847806D01*
X154753602Y-85996921D01*
X154734785Y-86199999D01*
X154734785Y-86200000D01*
X154753602Y-86403082D01*
X154809417Y-86599247D01*
X154809422Y-86599260D01*
X154900327Y-86781821D01*
X155023237Y-86944581D01*
X155173958Y-87081980D01*
X155173960Y-87081982D01*
X155273141Y-87143392D01*
X155347363Y-87189348D01*
X155537544Y-87263024D01*
X155738024Y-87300500D01*
X155738026Y-87300500D01*
X155941974Y-87300500D01*
X155941976Y-87300500D01*
X156142456Y-87263024D01*
X156332637Y-87189348D01*
X156506041Y-87081981D01*
X156656764Y-86944579D01*
X156779673Y-86781821D01*
X156870582Y-86599250D01*
X156926397Y-86403083D01*
X156945215Y-86200000D01*
X156926397Y-85996917D01*
X156870582Y-85800750D01*
X156863991Y-85787514D01*
X156779804Y-85618443D01*
X156779673Y-85618179D01*
X156656764Y-85455421D01*
X156656762Y-85455418D01*
X156506041Y-85318019D01*
X156506039Y-85318017D01*
X156332642Y-85210655D01*
X156332635Y-85210651D01*
X156190479Y-85155580D01*
X156142456Y-85136976D01*
X155941976Y-85099500D01*
X155738024Y-85099500D01*
X155637784Y-85118238D01*
X155537542Y-85136976D01*
X155537540Y-85136977D01*
X155498409Y-85152136D01*
X155428786Y-85157996D01*
X155367046Y-85125285D01*
X155365937Y-85124189D01*
X155061819Y-84820071D01*
X155028334Y-84758748D01*
X155025500Y-84732390D01*
X155025500Y-83200000D01*
X158894417Y-83200000D01*
X158914699Y-83405932D01*
X158914700Y-83405934D01*
X158974768Y-83603954D01*
X159072315Y-83786450D01*
X159092546Y-83811102D01*
X159203589Y-83946410D01*
X159256790Y-83990070D01*
X159363550Y-84077685D01*
X159546046Y-84175232D01*
X159744066Y-84235300D01*
X159744065Y-84235300D01*
X159762529Y-84237118D01*
X159950000Y-84255583D01*
X160155934Y-84235300D01*
X160353954Y-84175232D01*
X160536450Y-84077685D01*
X160696410Y-83946410D01*
X160827685Y-83786450D01*
X160925232Y-83603954D01*
X160985300Y-83405934D01*
X161005583Y-83200000D01*
X165394919Y-83200000D01*
X165415191Y-83405834D01*
X165475233Y-83603766D01*
X165572731Y-83786171D01*
X165572732Y-83786172D01*
X165576451Y-83790703D01*
X165576452Y-83790703D01*
X166104754Y-83262402D01*
X166125047Y-83342538D01*
X166188936Y-83440327D01*
X166281115Y-83512072D01*
X166385079Y-83547763D01*
X165859295Y-84073546D01*
X165863829Y-84077269D01*
X166046233Y-84174766D01*
X166244165Y-84234808D01*
X166450000Y-84255080D01*
X166655834Y-84234808D01*
X166853766Y-84174766D01*
X167036167Y-84077270D01*
X167036177Y-84077263D01*
X167040704Y-84073546D01*
X166511701Y-83544543D01*
X166565216Y-83535614D01*
X166667947Y-83480019D01*
X166747060Y-83394079D01*
X166793982Y-83287108D01*
X166795969Y-83263126D01*
X167323546Y-83790704D01*
X167327263Y-83786177D01*
X167327270Y-83786167D01*
X167424766Y-83603766D01*
X167484808Y-83405834D01*
X167505080Y-83200000D01*
X167484808Y-82994165D01*
X167424766Y-82796233D01*
X167327269Y-82613829D01*
X167323546Y-82609295D01*
X166795245Y-83137596D01*
X166774953Y-83057462D01*
X166711064Y-82959673D01*
X166618885Y-82887928D01*
X166514920Y-82852236D01*
X167040703Y-82326452D01*
X167040703Y-82326451D01*
X167036172Y-82322732D01*
X167036171Y-82322731D01*
X166853766Y-82225233D01*
X166655834Y-82165191D01*
X166450000Y-82144919D01*
X166244165Y-82165191D01*
X166046233Y-82225233D01*
X165863830Y-82322730D01*
X165859295Y-82326452D01*
X166388298Y-82855455D01*
X166334784Y-82864386D01*
X166232053Y-82919981D01*
X166152940Y-83005921D01*
X166106018Y-83112892D01*
X166104030Y-83136873D01*
X165576452Y-82609295D01*
X165572730Y-82613830D01*
X165475233Y-82796233D01*
X165415191Y-82994165D01*
X165394919Y-83200000D01*
X161005583Y-83200000D01*
X160985300Y-82994066D01*
X160953896Y-82890544D01*
X160953274Y-82820678D01*
X160984875Y-82766871D01*
X165143010Y-78608735D01*
X165143015Y-78608732D01*
X165153218Y-78598528D01*
X165153220Y-78598528D01*
X165248528Y-78503220D01*
X165259493Y-78481698D01*
X165269658Y-78465112D01*
X165283849Y-78445581D01*
X165291310Y-78422614D01*
X165298759Y-78404634D01*
X165309718Y-78383128D01*
X165309718Y-78383127D01*
X165309719Y-78383126D01*
X165313495Y-78359276D01*
X165318036Y-78340360D01*
X165325500Y-78317393D01*
X165325500Y-78182607D01*
X165325500Y-71570695D01*
X165345185Y-71503656D01*
X165397094Y-71458313D01*
X165577830Y-71374035D01*
X165771401Y-71238495D01*
X165938495Y-71071401D01*
X166074035Y-70877830D01*
X166173903Y-70663663D01*
X166235063Y-70435408D01*
X166255659Y-70200000D01*
X166235063Y-69964592D01*
X166173903Y-69736337D01*
X166074035Y-69522171D01*
X166000517Y-69417175D01*
X165938494Y-69328597D01*
X165771402Y-69161506D01*
X165771395Y-69161501D01*
X165577834Y-69025967D01*
X165577830Y-69025965D01*
X165574695Y-69024503D01*
X165363663Y-68926097D01*
X165363659Y-68926096D01*
X165363655Y-68926094D01*
X165135413Y-68864938D01*
X165135403Y-68864936D01*
X164900001Y-68844341D01*
X164899999Y-68844341D01*
X164664596Y-68864936D01*
X164664586Y-68864938D01*
X164436344Y-68926094D01*
X164436335Y-68926098D01*
X164222171Y-69025964D01*
X164222169Y-69025965D01*
X164028597Y-69161505D01*
X163861505Y-69328597D01*
X163725965Y-69522169D01*
X163725963Y-69522172D01*
X163704764Y-69567634D01*
X163658591Y-69620072D01*
X163591397Y-69639223D01*
X163524516Y-69619006D01*
X163483189Y-69573986D01*
X163471101Y-69551524D01*
X163447852Y-69508319D01*
X163307508Y-69332334D01*
X163137996Y-69184235D01*
X162944764Y-69068785D01*
X162830676Y-69025967D01*
X162734023Y-68989692D01*
X162512550Y-68949500D01*
X162512547Y-68949500D01*
X162343845Y-68949500D01*
X162305399Y-68952960D01*
X162175813Y-68964622D01*
X162175807Y-68964623D01*
X161958839Y-69024503D01*
X161958826Y-69024508D01*
X161756033Y-69122167D01*
X161756025Y-69122171D01*
X161573927Y-69254473D01*
X161573925Y-69254474D01*
X161418366Y-69417176D01*
X161294363Y-69605033D01*
X161205899Y-69812004D01*
X161205895Y-69812017D01*
X161155810Y-70031457D01*
X161155808Y-70031468D01*
X161146089Y-70247890D01*
X161145710Y-70256330D01*
X161175925Y-70479387D01*
X161175926Y-70479390D01*
X161245483Y-70693465D01*
X161352146Y-70891678D01*
X161352148Y-70891681D01*
X161492489Y-71067663D01*
X161492491Y-71067664D01*
X161492492Y-71067666D01*
X161662004Y-71215765D01*
X161855236Y-71331215D01*
X162065976Y-71410307D01*
X162287450Y-71450500D01*
X162287453Y-71450500D01*
X162456148Y-71450500D01*
X162456155Y-71450500D01*
X162624188Y-71435377D01*
X162624192Y-71435376D01*
X162841160Y-71375496D01*
X162841162Y-71375495D01*
X162841170Y-71375493D01*
X163043973Y-71277829D01*
X163226078Y-71145522D01*
X163381632Y-70982825D01*
X163489953Y-70818725D01*
X163543312Y-70773621D01*
X163612587Y-70764524D01*
X163675782Y-70794325D01*
X163705820Y-70834630D01*
X163725965Y-70877830D01*
X163725966Y-70877832D01*
X163725967Y-70877833D01*
X163725967Y-70877834D01*
X163814870Y-71004799D01*
X163861505Y-71071401D01*
X164028599Y-71238495D01*
X164084774Y-71277829D01*
X164222165Y-71374032D01*
X164222167Y-71374033D01*
X164222170Y-71374035D01*
X164402905Y-71458313D01*
X164455344Y-71504485D01*
X164474500Y-71570695D01*
X164474500Y-78022389D01*
X164454815Y-78089428D01*
X164438181Y-78110070D01*
X160383129Y-82165121D01*
X160321806Y-82198606D01*
X160259454Y-82196101D01*
X160155933Y-82164699D01*
X160155934Y-82164699D01*
X159950000Y-82144417D01*
X159744067Y-82164699D01*
X159546043Y-82224769D01*
X159489355Y-82255070D01*
X159363550Y-82322315D01*
X159363548Y-82322316D01*
X159363547Y-82322317D01*
X159203589Y-82453589D01*
X159075133Y-82610116D01*
X159072315Y-82613550D01*
X159040969Y-82672194D01*
X158974769Y-82796043D01*
X158914699Y-82994067D01*
X158894417Y-83200000D01*
X155025500Y-83200000D01*
X155025500Y-82599555D01*
X155045185Y-82532516D01*
X155088555Y-82493645D01*
X155087763Y-82492366D01*
X155266039Y-82381982D01*
X155266038Y-82381982D01*
X155266041Y-82381981D01*
X155416764Y-82244579D01*
X155539673Y-82081821D01*
X155630582Y-81899250D01*
X155686397Y-81703083D01*
X155705215Y-81500000D01*
X155703120Y-81477396D01*
X155686397Y-81296917D01*
X155659783Y-81203379D01*
X155630582Y-81100750D01*
X155623991Y-81087514D01*
X155577250Y-80993645D01*
X155539673Y-80918179D01*
X155430967Y-80774229D01*
X155416762Y-80755418D01*
X155266041Y-80618019D01*
X155266039Y-80618017D01*
X155092642Y-80510655D01*
X155092635Y-80510651D01*
X154956715Y-80457996D01*
X154902456Y-80436976D01*
X154701976Y-80399500D01*
X154498024Y-80399500D01*
X154397784Y-80418238D01*
X154297542Y-80436976D01*
X154297540Y-80436977D01*
X154258409Y-80452136D01*
X154188786Y-80457996D01*
X154127046Y-80425285D01*
X154125937Y-80424189D01*
X151801819Y-78100071D01*
X151768334Y-78038748D01*
X151765500Y-78012390D01*
X151765500Y-77630244D01*
X151765500Y-77630240D01*
X151750954Y-77496495D01*
X151693622Y-77326338D01*
X151601050Y-77172483D01*
X151575538Y-77145550D01*
X151477568Y-77042123D01*
X151328948Y-76941358D01*
X151328946Y-76941357D01*
X151162152Y-76874900D01*
X151162147Y-76874899D01*
X150984955Y-76845850D01*
X150984951Y-76845850D01*
X150805661Y-76855571D01*
X150805656Y-76855571D01*
X150632651Y-76903605D01*
X150632645Y-76903608D01*
X150474006Y-76987714D01*
X150387325Y-77061342D01*
X150323486Y-77089740D01*
X150254429Y-77079115D01*
X150217026Y-77052109D01*
X150207567Y-77042123D01*
X150127318Y-76987714D01*
X150058951Y-76941360D01*
X150058948Y-76941358D01*
X150058945Y-76941357D01*
X150056332Y-76940316D01*
X150053651Y-76938550D01*
X150053014Y-76938213D01*
X150053046Y-76938152D01*
X150014555Y-76912807D01*
X149601748Y-76500000D01*
X153494785Y-76500000D01*
X153513602Y-76703082D01*
X153569417Y-76899247D01*
X153569422Y-76899260D01*
X153660327Y-77081821D01*
X153783237Y-77244581D01*
X153933958Y-77381980D01*
X153933960Y-77381982D01*
X153978988Y-77409862D01*
X154107363Y-77489348D01*
X154297544Y-77563024D01*
X154498024Y-77600500D01*
X154498026Y-77600500D01*
X154701974Y-77600500D01*
X154701976Y-77600500D01*
X154902456Y-77563024D01*
X155092637Y-77489348D01*
X155266041Y-77381981D01*
X155416764Y-77244579D01*
X155539673Y-77081821D01*
X155630582Y-76899250D01*
X155686397Y-76703083D01*
X155705215Y-76500000D01*
X155686397Y-76296917D01*
X155643970Y-76147803D01*
X155644556Y-76077940D01*
X155675553Y-76026193D01*
X158539929Y-73161819D01*
X158601252Y-73128334D01*
X158627610Y-73125500D01*
X158694000Y-73125500D01*
X158761039Y-73145185D01*
X158805000Y-73194228D01*
X158874938Y-73334683D01*
X158874943Y-73334691D01*
X159009020Y-73512238D01*
X159173437Y-73662123D01*
X159173439Y-73662125D01*
X159362595Y-73779245D01*
X159362596Y-73779245D01*
X159362599Y-73779247D01*
X159570060Y-73859618D01*
X159788757Y-73900500D01*
X159788759Y-73900500D01*
X160011241Y-73900500D01*
X160011243Y-73900500D01*
X160229940Y-73859618D01*
X160437401Y-73779247D01*
X160626562Y-73662124D01*
X160777869Y-73524189D01*
X160790979Y-73512238D01*
X160800599Y-73499500D01*
X160925058Y-73334689D01*
X161024229Y-73135528D01*
X161085115Y-72921536D01*
X161105643Y-72700000D01*
X161085115Y-72478464D01*
X161024229Y-72264472D01*
X161024224Y-72264461D01*
X160925061Y-72065316D01*
X160925056Y-72065308D01*
X160790979Y-71887761D01*
X160626562Y-71737876D01*
X160626560Y-71737874D01*
X160437404Y-71620754D01*
X160437398Y-71620752D01*
X160229940Y-71540382D01*
X160011243Y-71499500D01*
X159788757Y-71499500D01*
X159570060Y-71540382D01*
X159438864Y-71591207D01*
X159362601Y-71620752D01*
X159362595Y-71620754D01*
X159173439Y-71737874D01*
X159173437Y-71737876D01*
X159009020Y-71887761D01*
X158874943Y-72065308D01*
X158874938Y-72065316D01*
X158805000Y-72205772D01*
X158757497Y-72257009D01*
X158694000Y-72274500D01*
X158467393Y-72274500D01*
X158332607Y-72274500D01*
X158332605Y-72274500D01*
X158332601Y-72274501D01*
X158309642Y-72281961D01*
X158290724Y-72286503D01*
X158266878Y-72290279D01*
X158266870Y-72290282D01*
X158245352Y-72301245D01*
X158227389Y-72308686D01*
X158204417Y-72316151D01*
X158204416Y-72316151D01*
X158184884Y-72330342D01*
X158168303Y-72340504D01*
X158146780Y-72351472D01*
X158146779Y-72351472D01*
X158122806Y-72375446D01*
X155074061Y-75424189D01*
X155012738Y-75457674D01*
X154943046Y-75452690D01*
X154941587Y-75452135D01*
X154902460Y-75436977D01*
X154902457Y-75436976D01*
X154834051Y-75424189D01*
X154701976Y-75399500D01*
X154498024Y-75399500D01*
X154297544Y-75436976D01*
X154297541Y-75436976D01*
X154297541Y-75436977D01*
X154107364Y-75510651D01*
X154107357Y-75510655D01*
X153933960Y-75618017D01*
X153933958Y-75618019D01*
X153783237Y-75755418D01*
X153660327Y-75918178D01*
X153569422Y-76100739D01*
X153569417Y-76100752D01*
X153513602Y-76296917D01*
X153494785Y-76499999D01*
X153494785Y-76500000D01*
X149601748Y-76500000D01*
X149578218Y-76476470D01*
X149556703Y-76465508D01*
X149540110Y-76455340D01*
X149520580Y-76441150D01*
X149497615Y-76433688D01*
X149479641Y-76426243D01*
X149458127Y-76415281D01*
X149453010Y-76414470D01*
X149434273Y-76411503D01*
X149415358Y-76406962D01*
X149392394Y-76399500D01*
X149392393Y-76399500D01*
X149358488Y-76399500D01*
X147617393Y-76399500D01*
X147482607Y-76399500D01*
X147482604Y-76399500D01*
X147459639Y-76406962D01*
X147440722Y-76411503D01*
X147416873Y-76415280D01*
X147395358Y-76426243D01*
X147377385Y-76433688D01*
X147354417Y-76441151D01*
X147354414Y-76441152D01*
X147334878Y-76455346D01*
X147318293Y-76465510D01*
X147296780Y-76476471D01*
X147284794Y-76488458D01*
X147272806Y-76500446D01*
X146535071Y-77238181D01*
X146473748Y-77271666D01*
X146447390Y-77274500D01*
X138821580Y-77274500D01*
X138754541Y-77254815D01*
X138733799Y-77237042D01*
X138733797Y-77237045D01*
X138733627Y-77236894D01*
X138728767Y-77232730D01*
X138728185Y-77232073D01*
X138600849Y-77119263D01*
X138581857Y-77109296D01*
X138531644Y-77060711D01*
X138515670Y-76992692D01*
X138539005Y-76926835D01*
X138594242Y-76884048D01*
X138639483Y-76875500D01*
X145817392Y-76875500D01*
X145817393Y-76875500D01*
X145840360Y-76868036D01*
X145859276Y-76863495D01*
X145883126Y-76859719D01*
X145904636Y-76848757D01*
X145922614Y-76841310D01*
X145945581Y-76833849D01*
X145965118Y-76819653D01*
X145981706Y-76809488D01*
X146003220Y-76798528D01*
X146098528Y-76703220D01*
X146098528Y-76703219D01*
X150539348Y-72262398D01*
X150600668Y-72228915D01*
X150670360Y-72233899D01*
X150726293Y-72275771D01*
X150746292Y-72316147D01*
X150769883Y-72399063D01*
X150769886Y-72399069D01*
X150860750Y-72581549D01*
X150860755Y-72581556D01*
X150892957Y-72624200D01*
X151411714Y-72105442D01*
X151414835Y-72125148D01*
X151472359Y-72238045D01*
X151561955Y-72327641D01*
X151674852Y-72385165D01*
X151694555Y-72388285D01*
X151175641Y-72907199D01*
X151175641Y-72907200D01*
X151307583Y-72988897D01*
X151307587Y-72988899D01*
X151497677Y-73062539D01*
X151698072Y-73100000D01*
X151901928Y-73100000D01*
X152102322Y-73062539D01*
X152292410Y-72988899D01*
X152424357Y-72907200D01*
X152424357Y-72907199D01*
X151905444Y-72388285D01*
X151925148Y-72385165D01*
X152038045Y-72327641D01*
X152127641Y-72238045D01*
X152185165Y-72125148D01*
X152188285Y-72105443D01*
X152707041Y-72624199D01*
X152739244Y-72581558D01*
X152739249Y-72581550D01*
X152830113Y-72399069D01*
X152830116Y-72399063D01*
X152885902Y-72202992D01*
X152885903Y-72202989D01*
X152904713Y-72000000D01*
X154295287Y-72000000D01*
X154314096Y-72202989D01*
X154314097Y-72202992D01*
X154369883Y-72399063D01*
X154369886Y-72399069D01*
X154460750Y-72581549D01*
X154460755Y-72581556D01*
X154492957Y-72624200D01*
X155011714Y-72105443D01*
X155014835Y-72125148D01*
X155072359Y-72238045D01*
X155161955Y-72327641D01*
X155274852Y-72385165D01*
X155294555Y-72388285D01*
X154775641Y-72907199D01*
X154775641Y-72907200D01*
X154907583Y-72988897D01*
X154907587Y-72988899D01*
X155097677Y-73062539D01*
X155298072Y-73100000D01*
X155501928Y-73100000D01*
X155702322Y-73062539D01*
X155892410Y-72988899D01*
X156024357Y-72907200D01*
X156024357Y-72907199D01*
X155505444Y-72388285D01*
X155525148Y-72385165D01*
X155638045Y-72327641D01*
X155727641Y-72238045D01*
X155785165Y-72125148D01*
X155788285Y-72105443D01*
X156307041Y-72624199D01*
X156339244Y-72581558D01*
X156339249Y-72581550D01*
X156430113Y-72399069D01*
X156430116Y-72399063D01*
X156485902Y-72202992D01*
X156485903Y-72202989D01*
X156504713Y-72000000D01*
X156504713Y-71999999D01*
X156485903Y-71797010D01*
X156485902Y-71797007D01*
X156430116Y-71600936D01*
X156430113Y-71600930D01*
X156339245Y-71418443D01*
X156307041Y-71375798D01*
X155788285Y-71894555D01*
X155785165Y-71874852D01*
X155727641Y-71761955D01*
X155638045Y-71672359D01*
X155525148Y-71614835D01*
X155505443Y-71611714D01*
X156024358Y-71092799D01*
X156024357Y-71092798D01*
X155892413Y-71011101D01*
X155892412Y-71011100D01*
X155702322Y-70937460D01*
X155501928Y-70900000D01*
X155298072Y-70900000D01*
X155097678Y-70937460D01*
X154907584Y-71011102D01*
X154775640Y-71092799D01*
X155294556Y-71611714D01*
X155274852Y-71614835D01*
X155161955Y-71672359D01*
X155072359Y-71761955D01*
X155014835Y-71874852D01*
X155011714Y-71894556D01*
X154492956Y-71375798D01*
X154460756Y-71418439D01*
X154369886Y-71600930D01*
X154369883Y-71600936D01*
X154314097Y-71797007D01*
X154314096Y-71797010D01*
X154295287Y-71999999D01*
X154295287Y-72000000D01*
X152904713Y-72000000D01*
X152904713Y-71999999D01*
X152885903Y-71797010D01*
X152885902Y-71797007D01*
X152830116Y-71600936D01*
X152830113Y-71600930D01*
X152739245Y-71418443D01*
X152707041Y-71375798D01*
X152188285Y-71894555D01*
X152185165Y-71874852D01*
X152127641Y-71761955D01*
X152038045Y-71672359D01*
X151925148Y-71614835D01*
X151905442Y-71611714D01*
X152424358Y-71092799D01*
X152424357Y-71092798D01*
X152292413Y-71011101D01*
X152292412Y-71011100D01*
X152108202Y-70939738D01*
X152052801Y-70897165D01*
X152029210Y-70831398D01*
X152044921Y-70763318D01*
X152065310Y-70736435D01*
X154781783Y-68019962D01*
X154843104Y-67986479D01*
X154912796Y-67991463D01*
X154914208Y-67992000D01*
X155097544Y-68063024D01*
X155298024Y-68100500D01*
X155298026Y-68100500D01*
X155501974Y-68100500D01*
X155501976Y-68100500D01*
X155702456Y-68063024D01*
X155892637Y-67989348D01*
X156066041Y-67881981D01*
X156216764Y-67744579D01*
X156250428Y-67700000D01*
X158694859Y-67700000D01*
X158715378Y-67921439D01*
X158776240Y-68135350D01*
X158875364Y-68334418D01*
X158875369Y-68334425D01*
X158921561Y-68395595D01*
X159432972Y-67884184D01*
X159440507Y-67909844D01*
X159518239Y-68030798D01*
X159626900Y-68124952D01*
X159716823Y-68166018D01*
X159203000Y-68679840D01*
X159362823Y-68778798D01*
X159362824Y-68778799D01*
X159570195Y-68859134D01*
X159788807Y-68900000D01*
X160011193Y-68900000D01*
X160229804Y-68859134D01*
X160437177Y-68778798D01*
X160437178Y-68778797D01*
X160596998Y-68679840D01*
X160083176Y-68166018D01*
X160173100Y-68124952D01*
X160281761Y-68030798D01*
X160359493Y-67909844D01*
X160367027Y-67884184D01*
X160878437Y-68395595D01*
X160924630Y-68334427D01*
X160924635Y-68334419D01*
X161023759Y-68135350D01*
X161084621Y-67921439D01*
X161105141Y-67700000D01*
X161105141Y-67699999D01*
X161084621Y-67478560D01*
X161023759Y-67264649D01*
X160924630Y-67065571D01*
X160878438Y-67004403D01*
X160878437Y-67004403D01*
X160367026Y-67515814D01*
X160359493Y-67490156D01*
X160281761Y-67369202D01*
X160173100Y-67275048D01*
X160083176Y-67233980D01*
X160596998Y-66720158D01*
X160596997Y-66720157D01*
X160437181Y-66621203D01*
X160437175Y-66621200D01*
X160229804Y-66540865D01*
X160011193Y-66500000D01*
X159788807Y-66500000D01*
X159570195Y-66540865D01*
X159362824Y-66621200D01*
X159362818Y-66621204D01*
X159203001Y-66720157D01*
X159203000Y-66720158D01*
X159716823Y-67233980D01*
X159626900Y-67275048D01*
X159518239Y-67369202D01*
X159440507Y-67490156D01*
X159432972Y-67515815D01*
X158921560Y-67004403D01*
X158875370Y-67065571D01*
X158776240Y-67264649D01*
X158715378Y-67478560D01*
X158694859Y-67699999D01*
X158694859Y-67700000D01*
X156250428Y-67700000D01*
X156339673Y-67581821D01*
X156430582Y-67399250D01*
X156486397Y-67203083D01*
X156505215Y-67000000D01*
X156486397Y-66796917D01*
X156443970Y-66647803D01*
X156444556Y-66577940D01*
X156475553Y-66526193D01*
X159324554Y-63677194D01*
X159348528Y-63653220D01*
X159359490Y-63631705D01*
X159369652Y-63615121D01*
X159383850Y-63595581D01*
X159391311Y-63572614D01*
X159398760Y-63554633D01*
X159409718Y-63533129D01*
X159409718Y-63533128D01*
X159409718Y-63533127D01*
X159409719Y-63533126D01*
X159413496Y-63509273D01*
X159418035Y-63490366D01*
X159425500Y-63467393D01*
X159425500Y-63332607D01*
X159425500Y-59741251D01*
X161794933Y-59741251D01*
X161794933Y-61960405D01*
X168368077Y-61960405D01*
X168368077Y-59741251D01*
X161794933Y-59741251D01*
X159425500Y-59741251D01*
X159425500Y-59260357D01*
X159445185Y-59193318D01*
X159497096Y-59147975D01*
X159530604Y-59132350D01*
X159627639Y-59087102D01*
X159806877Y-58961598D01*
X159961598Y-58806877D01*
X160087102Y-58627639D01*
X160179575Y-58429330D01*
X160236207Y-58217977D01*
X160255277Y-58000000D01*
X160236207Y-57782023D01*
X160191470Y-57615062D01*
X160179577Y-57570677D01*
X160179576Y-57570676D01*
X160179575Y-57570670D01*
X160087102Y-57372362D01*
X160087100Y-57372359D01*
X160087099Y-57372357D01*
X159961599Y-57193124D01*
X159886492Y-57118017D01*
X159806877Y-57038402D01*
X159627639Y-56912898D01*
X159627640Y-56912898D01*
X159627638Y-56912897D01*
X159528484Y-56866661D01*
X159429330Y-56820425D01*
X159429326Y-56820424D01*
X159429322Y-56820422D01*
X159217977Y-56763793D01*
X159000002Y-56744723D01*
X158999998Y-56744723D01*
X158854682Y-56757436D01*
X158782023Y-56763793D01*
X158782020Y-56763793D01*
X158570677Y-56820422D01*
X158570668Y-56820426D01*
X158372361Y-56912898D01*
X158372357Y-56912900D01*
X158193121Y-57038402D01*
X158038402Y-57193121D01*
X157912900Y-57372357D01*
X157912898Y-57372361D01*
X157820426Y-57570668D01*
X157820422Y-57570677D01*
X157763793Y-57782020D01*
X157763793Y-57782024D01*
X157744723Y-57999997D01*
X157744723Y-58000002D01*
X157763793Y-58217975D01*
X157763793Y-58217979D01*
X157820422Y-58429322D01*
X157820424Y-58429326D01*
X157820425Y-58429330D01*
X157835185Y-58460982D01*
X157912897Y-58627638D01*
X157912898Y-58627639D01*
X158038402Y-58806877D01*
X158193123Y-58961598D01*
X158372361Y-59087102D01*
X158469396Y-59132350D01*
X158502904Y-59147975D01*
X158555344Y-59194147D01*
X158574500Y-59260357D01*
X158574500Y-63172389D01*
X158554815Y-63239428D01*
X158538181Y-63260070D01*
X155874061Y-65924189D01*
X155812738Y-65957674D01*
X155743046Y-65952690D01*
X155741587Y-65952135D01*
X155702460Y-65936977D01*
X155702457Y-65936976D01*
X155634051Y-65924189D01*
X155501976Y-65899500D01*
X155298024Y-65899500D01*
X155097544Y-65936976D01*
X155097541Y-65936976D01*
X155097541Y-65936977D01*
X154907364Y-66010651D01*
X154907357Y-66010655D01*
X154733960Y-66118017D01*
X154733958Y-66118019D01*
X154583237Y-66255418D01*
X154460327Y-66418178D01*
X154369422Y-66600739D01*
X154369417Y-66600752D01*
X154313602Y-66796917D01*
X154294785Y-66999999D01*
X154294785Y-67000000D01*
X154313603Y-67203087D01*
X154314439Y-67207558D01*
X154307406Y-67277073D01*
X154280231Y-67318020D01*
X145610071Y-75988181D01*
X145548748Y-76021666D01*
X145522390Y-76024500D01*
X141176610Y-76024500D01*
X141109571Y-76004815D01*
X141063816Y-75952011D01*
X141053872Y-75882853D01*
X141082897Y-75819297D01*
X141088929Y-75812819D01*
X141591748Y-75309999D01*
X142235778Y-74665967D01*
X142235781Y-74665966D01*
X142253219Y-74648528D01*
X142253220Y-74648528D01*
X142348528Y-74553220D01*
X142359493Y-74531698D01*
X142369658Y-74515112D01*
X142383849Y-74495581D01*
X142391310Y-74472614D01*
X142398759Y-74454634D01*
X142409718Y-74433128D01*
X142409718Y-74433127D01*
X142409719Y-74433126D01*
X142413495Y-74409276D01*
X142418036Y-74390360D01*
X142425500Y-74367393D01*
X142425500Y-74232607D01*
X142425500Y-74124499D01*
X142445185Y-74057460D01*
X142497989Y-74011705D01*
X142549500Y-74000499D01*
X142844856Y-74000499D01*
X142844864Y-74000499D01*
X142844879Y-74000497D01*
X142844882Y-74000497D01*
X142869987Y-73997586D01*
X142869988Y-73997585D01*
X142869991Y-73997585D01*
X142972765Y-73952206D01*
X143052206Y-73872765D01*
X143097585Y-73769991D01*
X143100500Y-73744865D01*
X143100499Y-71255136D01*
X143100497Y-71255117D01*
X143097586Y-71230012D01*
X143097585Y-71230010D01*
X143097585Y-71230009D01*
X143052206Y-71127235D01*
X142972765Y-71047794D01*
X142972763Y-71047793D01*
X142869992Y-71002415D01*
X142844865Y-70999500D01*
X141155143Y-70999500D01*
X141155117Y-70999502D01*
X141130012Y-71002413D01*
X141130008Y-71002415D01*
X141027235Y-71047793D01*
X140947794Y-71127234D01*
X140902415Y-71230006D01*
X140902415Y-71230008D01*
X140899500Y-71255131D01*
X140899500Y-73744856D01*
X140899502Y-73744882D01*
X140902413Y-73769987D01*
X140902415Y-73769991D01*
X140947793Y-73872764D01*
X140947794Y-73872765D01*
X141027235Y-73952206D01*
X141130009Y-73997585D01*
X141155135Y-74000500D01*
X141398390Y-74000499D01*
X141465429Y-74020183D01*
X141511184Y-74072987D01*
X141521128Y-74142146D01*
X141492103Y-74205701D01*
X141486071Y-74212180D01*
X140160071Y-75538181D01*
X140098748Y-75571666D01*
X140072390Y-75574500D01*
X132732604Y-75574500D01*
X132709639Y-75581962D01*
X132690722Y-75586503D01*
X132666873Y-75590280D01*
X132645358Y-75601243D01*
X132627386Y-75608688D01*
X132604418Y-75616151D01*
X132604416Y-75616152D01*
X132584884Y-75630343D01*
X132568299Y-75640506D01*
X132546782Y-75651469D01*
X132546780Y-75651471D01*
X132522805Y-75675447D01*
X129274061Y-78924189D01*
X129212738Y-78957674D01*
X129143046Y-78952690D01*
X129141587Y-78952135D01*
X129102460Y-78936977D01*
X129102457Y-78936976D01*
X129034051Y-78924189D01*
X128901976Y-78899500D01*
X128698024Y-78899500D01*
X128497544Y-78936976D01*
X128497541Y-78936976D01*
X128497541Y-78936977D01*
X128307364Y-79010651D01*
X128307357Y-79010655D01*
X128133960Y-79118017D01*
X128133958Y-79118019D01*
X127983237Y-79255418D01*
X127860327Y-79418178D01*
X127769422Y-79600739D01*
X127769417Y-79600752D01*
X127713602Y-79796917D01*
X127694785Y-79999999D01*
X127694785Y-80000000D01*
X127713602Y-80203082D01*
X127769417Y-80399247D01*
X127769422Y-80399260D01*
X127860327Y-80581821D01*
X127983237Y-80744581D01*
X128133958Y-80881980D01*
X128133960Y-80881982D01*
X128312237Y-80992366D01*
X128311375Y-80993756D01*
X128356998Y-81036041D01*
X128374500Y-81099555D01*
X128374500Y-82167389D01*
X128354815Y-82234428D01*
X128338181Y-82255070D01*
X126869061Y-83724189D01*
X126807738Y-83757674D01*
X126738046Y-83752690D01*
X126736587Y-83752135D01*
X126697460Y-83736977D01*
X126697457Y-83736976D01*
X126629051Y-83724189D01*
X126496976Y-83699500D01*
X126293024Y-83699500D01*
X126092544Y-83736976D01*
X126092541Y-83736976D01*
X126092541Y-83736977D01*
X125902364Y-83810651D01*
X125902357Y-83810655D01*
X125728960Y-83918017D01*
X125728958Y-83918019D01*
X125578237Y-84055418D01*
X125455327Y-84218178D01*
X125364422Y-84400739D01*
X125364417Y-84400752D01*
X125308602Y-84596917D01*
X125289785Y-84799999D01*
X125289785Y-84800000D01*
X125308602Y-85003082D01*
X125364417Y-85199247D01*
X125364422Y-85199260D01*
X125455327Y-85381821D01*
X125578237Y-85544581D01*
X125728958Y-85681980D01*
X125728960Y-85681982D01*
X125769689Y-85707200D01*
X125902363Y-85789348D01*
X126092544Y-85863024D01*
X126293024Y-85900500D01*
X126293026Y-85900500D01*
X126496974Y-85900500D01*
X126496976Y-85900500D01*
X126697456Y-85863024D01*
X126887637Y-85789348D01*
X127061041Y-85681981D01*
X127211764Y-85544579D01*
X127334673Y-85381821D01*
X127369677Y-85311522D01*
X127417177Y-85260287D01*
X127484840Y-85242865D01*
X127551181Y-85264790D01*
X127568357Y-85279114D01*
X130027803Y-87738560D01*
X130061288Y-87799883D01*
X130056304Y-87869575D01*
X130014432Y-87925508D01*
X129984916Y-87941868D01*
X129807364Y-88010651D01*
X129807357Y-88010655D01*
X129633960Y-88118017D01*
X129633958Y-88118019D01*
X129483237Y-88255418D01*
X129360327Y-88418178D01*
X129269422Y-88600739D01*
X129269417Y-88600752D01*
X129213602Y-88796917D01*
X129194785Y-88999999D01*
X129194785Y-89000000D01*
X129213602Y-89203082D01*
X129213603Y-89203084D01*
X129256028Y-89352192D01*
X129255441Y-89422059D01*
X129224443Y-89473807D01*
X125159388Y-93538862D01*
X125098065Y-93572347D01*
X125028373Y-93567363D01*
X124972440Y-93525491D01*
X124948131Y-93461424D01*
X124935620Y-93310437D01*
X124876610Y-93077409D01*
X124780049Y-92857272D01*
X124765821Y-92835495D01*
X124714310Y-92756651D01*
X124648571Y-92656031D01*
X124485764Y-92479175D01*
X124485759Y-92479171D01*
X124485757Y-92479169D01*
X124296075Y-92331533D01*
X124296069Y-92331529D01*
X124084657Y-92217118D01*
X124084652Y-92217116D01*
X123857300Y-92139066D01*
X123679468Y-92109391D01*
X123620192Y-92099500D01*
X123379808Y-92099500D01*
X123332387Y-92107413D01*
X123142699Y-92139066D01*
X122915347Y-92217116D01*
X122915342Y-92217118D01*
X122703930Y-92331529D01*
X122703924Y-92331533D01*
X122514242Y-92479169D01*
X122514239Y-92479172D01*
X122351430Y-92656029D01*
X122351427Y-92656033D01*
X122219951Y-92857270D01*
X122123389Y-93077410D01*
X122064379Y-93310440D01*
X122044529Y-93549994D01*
X122044529Y-93550005D01*
X122064379Y-93789559D01*
X122123389Y-94022589D01*
X122219951Y-94242729D01*
X122351427Y-94443966D01*
X122351429Y-94443969D01*
X122514236Y-94620825D01*
X122514239Y-94620827D01*
X122514242Y-94620830D01*
X122703924Y-94768466D01*
X122703930Y-94768470D01*
X122703933Y-94768472D01*
X122848125Y-94846505D01*
X122896963Y-94872935D01*
X122915344Y-94882882D01*
X122915347Y-94882883D01*
X123142699Y-94960933D01*
X123142701Y-94960933D01*
X123142703Y-94960934D01*
X123379808Y-95000500D01*
X123379809Y-95000500D01*
X123620190Y-95000500D01*
X123620192Y-95000500D01*
X123706663Y-94986070D01*
X123776026Y-94994452D01*
X123829848Y-95039004D01*
X123851039Y-95105582D01*
X123832872Y-95173049D01*
X123814753Y-95196060D01*
X123749951Y-95260862D01*
X123619432Y-95447265D01*
X123619431Y-95447267D01*
X123523261Y-95653502D01*
X123523258Y-95653511D01*
X123464366Y-95873302D01*
X123464364Y-95873313D01*
X123444532Y-96099998D01*
X123444532Y-96100001D01*
X123464364Y-96326686D01*
X123464366Y-96326697D01*
X123523258Y-96546488D01*
X123523261Y-96546497D01*
X123607288Y-96726692D01*
X123619432Y-96752734D01*
X123655593Y-96804378D01*
X123677920Y-96870583D01*
X123660910Y-96938350D01*
X123609962Y-96986163D01*
X123554018Y-96999500D01*
X118802610Y-96999500D01*
X118735571Y-96979815D01*
X118714929Y-96963181D01*
X118481369Y-96729621D01*
X118447884Y-96668298D01*
X118452868Y-96598606D01*
X118456665Y-96589542D01*
X118476739Y-96546496D01*
X118535635Y-96326692D01*
X118555468Y-96100000D01*
X118535635Y-95873308D01*
X118476739Y-95653504D01*
X118380568Y-95447266D01*
X118260157Y-95275300D01*
X118250045Y-95260858D01*
X118185247Y-95196060D01*
X118151762Y-95134737D01*
X118156746Y-95065045D01*
X118198618Y-95009112D01*
X118264082Y-94984695D01*
X118293332Y-94986069D01*
X118379808Y-95000500D01*
X118379809Y-95000500D01*
X118620191Y-95000500D01*
X118620192Y-95000500D01*
X118857297Y-94960934D01*
X118865477Y-94958126D01*
X119027641Y-94902455D01*
X119084656Y-94882882D01*
X119296067Y-94768472D01*
X119310027Y-94757607D01*
X119361997Y-94717157D01*
X119485764Y-94620825D01*
X119648571Y-94443969D01*
X119780049Y-94242728D01*
X119876610Y-94022591D01*
X119935620Y-93789563D01*
X119953444Y-93574464D01*
X119955471Y-93550005D01*
X119955471Y-93549994D01*
X119935620Y-93310440D01*
X119935620Y-93310437D01*
X119876610Y-93077409D01*
X119780049Y-92857272D01*
X119765821Y-92835495D01*
X119714310Y-92756651D01*
X119648571Y-92656031D01*
X119485764Y-92479175D01*
X119485759Y-92479171D01*
X119485757Y-92479169D01*
X119296075Y-92331533D01*
X119296060Y-92331523D01*
X119166004Y-92261140D01*
X119116414Y-92211921D01*
X119101306Y-92143704D01*
X119125477Y-92078149D01*
X119137334Y-92064412D01*
X121125938Y-90075808D01*
X121187259Y-90042325D01*
X121256951Y-90047309D01*
X121258410Y-90047864D01*
X121292576Y-90061099D01*
X121297544Y-90063024D01*
X121498024Y-90100500D01*
X121498026Y-90100500D01*
X121701974Y-90100500D01*
X121701976Y-90100500D01*
X121902456Y-90063024D01*
X122092637Y-89989348D01*
X122266041Y-89881981D01*
X122416764Y-89744579D01*
X122539673Y-89581821D01*
X122630582Y-89399250D01*
X122686397Y-89203083D01*
X122705215Y-89000000D01*
X126655287Y-89000000D01*
X126674096Y-89202989D01*
X126674097Y-89202992D01*
X126729883Y-89399063D01*
X126729886Y-89399069D01*
X126820750Y-89581549D01*
X126820755Y-89581556D01*
X126852957Y-89624200D01*
X127371714Y-89105443D01*
X127374835Y-89125148D01*
X127432359Y-89238045D01*
X127521955Y-89327641D01*
X127634852Y-89385165D01*
X127654555Y-89388285D01*
X127135641Y-89907199D01*
X127135641Y-89907200D01*
X127267583Y-89988897D01*
X127267587Y-89988899D01*
X127457677Y-90062539D01*
X127658072Y-90100000D01*
X127861928Y-90100000D01*
X128062322Y-90062539D01*
X128252410Y-89988899D01*
X128384357Y-89907200D01*
X128384357Y-89907199D01*
X127865444Y-89388285D01*
X127885148Y-89385165D01*
X127998045Y-89327641D01*
X128087641Y-89238045D01*
X128145165Y-89125148D01*
X128148285Y-89105443D01*
X128667041Y-89624199D01*
X128699244Y-89581558D01*
X128699249Y-89581550D01*
X128790113Y-89399069D01*
X128790116Y-89399063D01*
X128845902Y-89202992D01*
X128845903Y-89202989D01*
X128864713Y-89000000D01*
X128864713Y-88999999D01*
X128845903Y-88797010D01*
X128845902Y-88797007D01*
X128790116Y-88600936D01*
X128790113Y-88600930D01*
X128699245Y-88418443D01*
X128667041Y-88375798D01*
X128148285Y-88894555D01*
X128145165Y-88874852D01*
X128087641Y-88761955D01*
X127998045Y-88672359D01*
X127885148Y-88614835D01*
X127865443Y-88611714D01*
X128384358Y-88092799D01*
X128384357Y-88092798D01*
X128252413Y-88011101D01*
X128252412Y-88011100D01*
X128062322Y-87937460D01*
X127861928Y-87900000D01*
X127658072Y-87900000D01*
X127457678Y-87937460D01*
X127267584Y-88011102D01*
X127135640Y-88092799D01*
X127654556Y-88611714D01*
X127634852Y-88614835D01*
X127521955Y-88672359D01*
X127432359Y-88761955D01*
X127374835Y-88874852D01*
X127371714Y-88894556D01*
X126852956Y-88375798D01*
X126820756Y-88418439D01*
X126729886Y-88600930D01*
X126729883Y-88600936D01*
X126674097Y-88797007D01*
X126674096Y-88797010D01*
X126655287Y-88999999D01*
X126655287Y-89000000D01*
X122705215Y-89000000D01*
X122694651Y-88885999D01*
X122686397Y-88796917D01*
X122663703Y-88717157D01*
X122630582Y-88600750D01*
X122626622Y-88592798D01*
X122585718Y-88510651D01*
X122539673Y-88418179D01*
X122416764Y-88255421D01*
X122416762Y-88255418D01*
X122266041Y-88118019D01*
X122266039Y-88118017D01*
X122092642Y-88010655D01*
X122092635Y-88010651D01*
X121997546Y-87973814D01*
X121902456Y-87936976D01*
X121701976Y-87899500D01*
X121498024Y-87899500D01*
X121297544Y-87936976D01*
X121297541Y-87936976D01*
X121297541Y-87936977D01*
X121107364Y-88010651D01*
X121107357Y-88010655D01*
X120933960Y-88118017D01*
X120933958Y-88118019D01*
X120783237Y-88255418D01*
X120660327Y-88418178D01*
X120569422Y-88600739D01*
X120569417Y-88600752D01*
X120513602Y-88796917D01*
X120494785Y-88999999D01*
X120494785Y-89000000D01*
X120513602Y-89203082D01*
X120513603Y-89203084D01*
X120556028Y-89352192D01*
X120555441Y-89422059D01*
X120524443Y-89473807D01*
X118385071Y-91613181D01*
X118323748Y-91646666D01*
X118297390Y-91649500D01*
X116842393Y-91649500D01*
X116707607Y-91649500D01*
X116707605Y-91649500D01*
X116707601Y-91649501D01*
X116684642Y-91656961D01*
X116665724Y-91661503D01*
X116641878Y-91665279D01*
X116641870Y-91665282D01*
X116620352Y-91676245D01*
X116602389Y-91683686D01*
X116579417Y-91691151D01*
X116579416Y-91691151D01*
X116559884Y-91705342D01*
X116543303Y-91715504D01*
X116521780Y-91726472D01*
X116521779Y-91726472D01*
X116497806Y-91750446D01*
X113379621Y-94868629D01*
X113318298Y-94902114D01*
X113248606Y-94897130D01*
X113239536Y-94893331D01*
X113217126Y-94882881D01*
X113196496Y-94873261D01*
X113196493Y-94873260D01*
X113196488Y-94873258D01*
X112976697Y-94814366D01*
X112976693Y-94814365D01*
X112976692Y-94814365D01*
X112976691Y-94814364D01*
X112976686Y-94814364D01*
X112750002Y-94794532D01*
X112749998Y-94794532D01*
X112607437Y-94807004D01*
X112538937Y-94793237D01*
X112488754Y-94744622D01*
X112472821Y-94676593D01*
X112496197Y-94610750D01*
X112505388Y-94599506D01*
X112648571Y-94443969D01*
X112780049Y-94242728D01*
X112876610Y-94022591D01*
X112935620Y-93789563D01*
X112953444Y-93574464D01*
X112955471Y-93550005D01*
X112955471Y-93549994D01*
X112935620Y-93310440D01*
X112935620Y-93310437D01*
X112876610Y-93077409D01*
X112780049Y-92857272D01*
X112765821Y-92835495D01*
X112714310Y-92756651D01*
X112648571Y-92656031D01*
X112485764Y-92479175D01*
X112485759Y-92479171D01*
X112485757Y-92479169D01*
X112296075Y-92331533D01*
X112296069Y-92331529D01*
X112084657Y-92217118D01*
X112084652Y-92217116D01*
X111857300Y-92139066D01*
X111679468Y-92109391D01*
X111620192Y-92099500D01*
X111379808Y-92099500D01*
X111332387Y-92107413D01*
X111142699Y-92139066D01*
X110915347Y-92217116D01*
X110915342Y-92217118D01*
X110703930Y-92331529D01*
X110703924Y-92331533D01*
X110514242Y-92479169D01*
X110514239Y-92479172D01*
X110351430Y-92656029D01*
X110351427Y-92656033D01*
X110219951Y-92857270D01*
X110123389Y-93077410D01*
X110064379Y-93310440D01*
X110044529Y-93549994D01*
X110044529Y-93550005D01*
X108189332Y-93550005D01*
X108035245Y-93247594D01*
X107835446Y-92939929D01*
X107615062Y-92667779D01*
X106945015Y-93337825D01*
X106951954Y-93302944D01*
X106932551Y-93205399D01*
X106877296Y-93122704D01*
X106794601Y-93067449D01*
X106721680Y-93052944D01*
X106672432Y-93052944D01*
X106662171Y-93054984D01*
X107332220Y-92384936D01*
X107060070Y-92164553D01*
X106752406Y-91964754D01*
X106425535Y-91798204D01*
X106083051Y-91666736D01*
X105728685Y-91571784D01*
X105366353Y-91514397D01*
X105000001Y-91495197D01*
X104999999Y-91495197D01*
X104633646Y-91514397D01*
X104271315Y-91571784D01*
X104271313Y-91571784D01*
X103916948Y-91666736D01*
X103574464Y-91798204D01*
X103247594Y-91964754D01*
X102939924Y-92164557D01*
X102667779Y-92384934D01*
X102667778Y-92384935D01*
X103337827Y-93054984D01*
X103327568Y-93052944D01*
X103278320Y-93052944D01*
X103205399Y-93067449D01*
X103122704Y-93122704D01*
X103067449Y-93205399D01*
X103048046Y-93302944D01*
X103054984Y-93337827D01*
X102384935Y-92667778D01*
X102384934Y-92667779D01*
X102164557Y-92939924D01*
X101964754Y-93247594D01*
X101798204Y-93574464D01*
X101666736Y-93916948D01*
X101571784Y-94271313D01*
X101571784Y-94271315D01*
X101514397Y-94633646D01*
X101495197Y-94999999D01*
X101495197Y-95000000D01*
X100000500Y-95000000D01*
X100000500Y-89000000D01*
X117955287Y-89000000D01*
X117974096Y-89202989D01*
X117974097Y-89202992D01*
X118029883Y-89399063D01*
X118029886Y-89399069D01*
X118120750Y-89581549D01*
X118120755Y-89581556D01*
X118152957Y-89624200D01*
X118671714Y-89105443D01*
X118674835Y-89125148D01*
X118732359Y-89238045D01*
X118821955Y-89327641D01*
X118934852Y-89385165D01*
X118954555Y-89388285D01*
X118435641Y-89907199D01*
X118435641Y-89907200D01*
X118567583Y-89988897D01*
X118567587Y-89988899D01*
X118757677Y-90062539D01*
X118958072Y-90100000D01*
X119161928Y-90100000D01*
X119362322Y-90062539D01*
X119552410Y-89988899D01*
X119684357Y-89907200D01*
X119684357Y-89907199D01*
X119165444Y-89388285D01*
X119185148Y-89385165D01*
X119298045Y-89327641D01*
X119387641Y-89238045D01*
X119445165Y-89125148D01*
X119448285Y-89105443D01*
X119967041Y-89624199D01*
X119999244Y-89581558D01*
X119999249Y-89581550D01*
X120090113Y-89399069D01*
X120090116Y-89399063D01*
X120145902Y-89202992D01*
X120145903Y-89202989D01*
X120164713Y-89000000D01*
X120164713Y-88999999D01*
X120145903Y-88797010D01*
X120145902Y-88797007D01*
X120090116Y-88600936D01*
X120090113Y-88600930D01*
X119999245Y-88418443D01*
X119967041Y-88375798D01*
X119448285Y-88894555D01*
X119445165Y-88874852D01*
X119387641Y-88761955D01*
X119298045Y-88672359D01*
X119185148Y-88614835D01*
X119165443Y-88611714D01*
X119684358Y-88092799D01*
X119684357Y-88092798D01*
X119552413Y-88011101D01*
X119552412Y-88011100D01*
X119362322Y-87937460D01*
X119161928Y-87900000D01*
X118958072Y-87900000D01*
X118757678Y-87937460D01*
X118567584Y-88011102D01*
X118435640Y-88092799D01*
X118954556Y-88611714D01*
X118934852Y-88614835D01*
X118821955Y-88672359D01*
X118732359Y-88761955D01*
X118674835Y-88874852D01*
X118671714Y-88894556D01*
X118152956Y-88375798D01*
X118120756Y-88418439D01*
X118029886Y-88600930D01*
X118029883Y-88600936D01*
X117974097Y-88797007D01*
X117974096Y-88797010D01*
X117955287Y-88999999D01*
X117955287Y-89000000D01*
X100000500Y-89000000D01*
X100000500Y-84800000D01*
X122749785Y-84800000D01*
X122768602Y-85003082D01*
X122824417Y-85199247D01*
X122824422Y-85199260D01*
X122915327Y-85381821D01*
X123038237Y-85544581D01*
X123188958Y-85681980D01*
X123188960Y-85681982D01*
X123229689Y-85707200D01*
X123362363Y-85789348D01*
X123552544Y-85863024D01*
X123753024Y-85900500D01*
X123753026Y-85900500D01*
X123956974Y-85900500D01*
X123956976Y-85900500D01*
X124157456Y-85863024D01*
X124347637Y-85789348D01*
X124521041Y-85681981D01*
X124671764Y-85544579D01*
X124794673Y-85381821D01*
X124885582Y-85199250D01*
X124941397Y-85003083D01*
X124960215Y-84800000D01*
X124958709Y-84783752D01*
X124941397Y-84596917D01*
X124918703Y-84517157D01*
X124885582Y-84400750D01*
X124880369Y-84390281D01*
X124836416Y-84302011D01*
X124794673Y-84218179D01*
X124688258Y-84077263D01*
X124671762Y-84055418D01*
X124521041Y-83918019D01*
X124521039Y-83918017D01*
X124347642Y-83810655D01*
X124347635Y-83810651D01*
X124210884Y-83757674D01*
X124157456Y-83736976D01*
X123956976Y-83699500D01*
X123753024Y-83699500D01*
X123552544Y-83736976D01*
X123552541Y-83736976D01*
X123552541Y-83736977D01*
X123362364Y-83810651D01*
X123362357Y-83810655D01*
X123188960Y-83918017D01*
X123188958Y-83918019D01*
X123038237Y-84055418D01*
X122915327Y-84218178D01*
X122824422Y-84400739D01*
X122824417Y-84400752D01*
X122768602Y-84596917D01*
X122749785Y-84799999D01*
X122749785Y-84800000D01*
X100000500Y-84800000D01*
X100000500Y-61469856D01*
X116774500Y-61469856D01*
X116774502Y-61469882D01*
X116777413Y-61494987D01*
X116777415Y-61494991D01*
X116822793Y-61597764D01*
X116822794Y-61597765D01*
X116902235Y-61677206D01*
X117005009Y-61722585D01*
X117030135Y-61725500D01*
X117375500Y-61725499D01*
X117442539Y-61745183D01*
X117488294Y-61797987D01*
X117499500Y-61849499D01*
X117499500Y-74192394D01*
X117506962Y-74215358D01*
X117511503Y-74234273D01*
X117513515Y-74246976D01*
X117515281Y-74258127D01*
X117526243Y-74279641D01*
X117533688Y-74297615D01*
X117541150Y-74320580D01*
X117555340Y-74340110D01*
X117565508Y-74356703D01*
X117576470Y-74378218D01*
X122724443Y-79526191D01*
X122757928Y-79587514D01*
X122756029Y-79647806D01*
X122713602Y-79796921D01*
X122694785Y-79999999D01*
X122694785Y-80000000D01*
X122713602Y-80203082D01*
X122769417Y-80399247D01*
X122769422Y-80399260D01*
X122860327Y-80581821D01*
X122983237Y-80744581D01*
X123133958Y-80881980D01*
X123133960Y-80881982D01*
X123192419Y-80918178D01*
X123307363Y-80989348D01*
X123497544Y-81063024D01*
X123698024Y-81100500D01*
X123698026Y-81100500D01*
X123901974Y-81100500D01*
X123901976Y-81100500D01*
X124102456Y-81063024D01*
X124292637Y-80989348D01*
X124466041Y-80881981D01*
X124616764Y-80744579D01*
X124739673Y-80581821D01*
X124830582Y-80399250D01*
X124886397Y-80203083D01*
X124905215Y-80000000D01*
X124886397Y-79796917D01*
X124830582Y-79600750D01*
X124823991Y-79587514D01*
X124774839Y-79488803D01*
X124739673Y-79418179D01*
X124616764Y-79255421D01*
X124616762Y-79255418D01*
X124466041Y-79118019D01*
X124466039Y-79118017D01*
X124292642Y-79010655D01*
X124292635Y-79010651D01*
X124155884Y-78957674D01*
X124102456Y-78936976D01*
X123901976Y-78899500D01*
X123698024Y-78899500D01*
X123621868Y-78913736D01*
X123497542Y-78936976D01*
X123497540Y-78936977D01*
X123458409Y-78952136D01*
X123388786Y-78957996D01*
X123327046Y-78925285D01*
X123325937Y-78924189D01*
X118654142Y-74252394D01*
X121749500Y-74252394D01*
X121756962Y-74275358D01*
X121761503Y-74294273D01*
X121764470Y-74313010D01*
X121765281Y-74318127D01*
X121776243Y-74339641D01*
X121783688Y-74357615D01*
X121791150Y-74380580D01*
X121805340Y-74400110D01*
X121815508Y-74416703D01*
X121826470Y-74438218D01*
X122224443Y-74836191D01*
X122257928Y-74897514D01*
X122256029Y-74957806D01*
X122213602Y-75106921D01*
X122194785Y-75309999D01*
X122194785Y-75310000D01*
X122213602Y-75513082D01*
X122269417Y-75709247D01*
X122269422Y-75709260D01*
X122360327Y-75891821D01*
X122483237Y-76054581D01*
X122633958Y-76191980D01*
X122633960Y-76191982D01*
X122733141Y-76253392D01*
X122807363Y-76299348D01*
X122997544Y-76373024D01*
X123198024Y-76410500D01*
X123198026Y-76410500D01*
X123401974Y-76410500D01*
X123401976Y-76410500D01*
X123602456Y-76373024D01*
X123792637Y-76299348D01*
X123966041Y-76191981D01*
X124116764Y-76054579D01*
X124239673Y-75891821D01*
X124330582Y-75709250D01*
X124386397Y-75513083D01*
X124405215Y-75310000D01*
X124391403Y-75160941D01*
X124404818Y-75092371D01*
X124453175Y-75041940D01*
X124514874Y-75025500D01*
X126265712Y-75025500D01*
X126332751Y-75045185D01*
X126376710Y-75094225D01*
X126420327Y-75181821D01*
X126420329Y-75181823D01*
X126543237Y-75344581D01*
X126693958Y-75481980D01*
X126693960Y-75481982D01*
X126784725Y-75538181D01*
X126867363Y-75589348D01*
X127057544Y-75663024D01*
X127258024Y-75700500D01*
X127258026Y-75700500D01*
X127461974Y-75700500D01*
X127461976Y-75700500D01*
X127662456Y-75663024D01*
X127852637Y-75589348D01*
X128026041Y-75481981D01*
X128176764Y-75344579D01*
X128299673Y-75181821D01*
X128390582Y-74999250D01*
X128446397Y-74803083D01*
X128446683Y-74800000D01*
X128813820Y-74800000D01*
X128814096Y-74802986D01*
X128814098Y-74802996D01*
X128869883Y-74999063D01*
X128869886Y-74999069D01*
X128960754Y-75181556D01*
X129083608Y-75344242D01*
X129234260Y-75481578D01*
X129407584Y-75588897D01*
X129597677Y-75662539D01*
X129700000Y-75681666D01*
X129700000Y-74947025D01*
X129774852Y-74985165D01*
X129868519Y-75000000D01*
X129931481Y-75000000D01*
X130025148Y-74985165D01*
X130100000Y-74947025D01*
X130100000Y-75681666D01*
X130202322Y-75662539D01*
X130392415Y-75588897D01*
X130565739Y-75481578D01*
X130716391Y-75344242D01*
X130839245Y-75181556D01*
X130930113Y-74999069D01*
X130930116Y-74999063D01*
X130985901Y-74802996D01*
X130985903Y-74802986D01*
X130986179Y-74800000D01*
X130247026Y-74800000D01*
X130285165Y-74725148D01*
X130304986Y-74600000D01*
X130285165Y-74474852D01*
X130247026Y-74400000D01*
X130986180Y-74400000D01*
X130986179Y-74399999D01*
X130985903Y-74397013D01*
X130985901Y-74397003D01*
X130930116Y-74200936D01*
X130930113Y-74200930D01*
X130839245Y-74018443D01*
X130716391Y-73855757D01*
X130565739Y-73718421D01*
X130392415Y-73611102D01*
X130202322Y-73537460D01*
X130100000Y-73518332D01*
X130100000Y-74252974D01*
X130025148Y-74214835D01*
X129931481Y-74200000D01*
X129868519Y-74200000D01*
X129774852Y-74214835D01*
X129700000Y-74252974D01*
X129700000Y-73518332D01*
X129597677Y-73537460D01*
X129407584Y-73611102D01*
X129234260Y-73718421D01*
X129083608Y-73855757D01*
X128960754Y-74018443D01*
X128869886Y-74200930D01*
X128869883Y-74200936D01*
X128814098Y-74397003D01*
X128814096Y-74397013D01*
X128813820Y-74399999D01*
X128813820Y-74400000D01*
X129552974Y-74400000D01*
X129514835Y-74474852D01*
X129495014Y-74600000D01*
X129514835Y-74725148D01*
X129552974Y-74800000D01*
X128813820Y-74800000D01*
X128446683Y-74800000D01*
X128465215Y-74600000D01*
X128460880Y-74553222D01*
X128446683Y-74400000D01*
X128446397Y-74396917D01*
X128403970Y-74247803D01*
X128404556Y-74177940D01*
X128435553Y-74126193D01*
X128854554Y-73707194D01*
X128878528Y-73683220D01*
X128889488Y-73661706D01*
X128899653Y-73645118D01*
X128913849Y-73625581D01*
X128921310Y-73602614D01*
X128928759Y-73584634D01*
X128939718Y-73563128D01*
X128939718Y-73563127D01*
X128939719Y-73563126D01*
X128943495Y-73539276D01*
X128948036Y-73520360D01*
X128955500Y-73497393D01*
X128955500Y-73362607D01*
X128955500Y-72952398D01*
X133280000Y-72952398D01*
X133294965Y-73109122D01*
X133294966Y-73109126D01*
X133354149Y-73310686D01*
X133450413Y-73497414D01*
X133580268Y-73662537D01*
X133580271Y-73662540D01*
X133739030Y-73800105D01*
X133739041Y-73800114D01*
X133920960Y-73905144D01*
X133920967Y-73905147D01*
X134119485Y-73973855D01*
X134179999Y-73982555D01*
X134180000Y-73982555D01*
X134180000Y-72847025D01*
X134254852Y-72885165D01*
X134348519Y-72900000D01*
X134411481Y-72900000D01*
X134505148Y-72885165D01*
X134580000Y-72847025D01*
X134580000Y-73983386D01*
X134741408Y-73944230D01*
X134932507Y-73856959D01*
X135103619Y-73735110D01*
X135103625Y-73735104D01*
X135248592Y-73583067D01*
X135362166Y-73406342D01*
X135440244Y-73211314D01*
X135480000Y-73005037D01*
X135480000Y-72952425D01*
X135819500Y-72952425D01*
X135830015Y-73062539D01*
X135834472Y-73109217D01*
X135834473Y-73109221D01*
X135893628Y-73310686D01*
X135893684Y-73310875D01*
X135943019Y-73406572D01*
X135989991Y-73497686D01*
X136119905Y-73662883D01*
X136119909Y-73662887D01*
X136278746Y-73800521D01*
X136460750Y-73905601D01*
X136460752Y-73905601D01*
X136460756Y-73905604D01*
X136659367Y-73974344D01*
X136867398Y-74004254D01*
X137077330Y-73994254D01*
X137281576Y-73944704D01*
X137439100Y-73872765D01*
X137472743Y-73857401D01*
X137472746Y-73857399D01*
X137472753Y-73857396D01*
X137643952Y-73735486D01*
X137644317Y-73735104D01*
X137788985Y-73583379D01*
X137808708Y-73552690D01*
X137902613Y-73406572D01*
X137980725Y-73211457D01*
X138020500Y-73005085D01*
X138020500Y-72047575D01*
X138005528Y-71890782D01*
X137946316Y-71689125D01*
X137850011Y-71502318D01*
X137850009Y-71502316D01*
X137850008Y-71502313D01*
X137720094Y-71337116D01*
X137720090Y-71337112D01*
X137561253Y-71199478D01*
X137379249Y-71094398D01*
X137379245Y-71094396D01*
X137379244Y-71094396D01*
X137180633Y-71025656D01*
X136972602Y-70995746D01*
X136972598Y-70995746D01*
X136762672Y-71005745D01*
X136558421Y-71055296D01*
X136558417Y-71055298D01*
X136367256Y-71142598D01*
X136367251Y-71142601D01*
X136196046Y-71264515D01*
X136196040Y-71264520D01*
X136051014Y-71416620D01*
X135937388Y-71593425D01*
X135859274Y-71788544D01*
X135819500Y-71994914D01*
X135819500Y-71994915D01*
X135819500Y-72952425D01*
X135480000Y-72952425D01*
X135480000Y-72700000D01*
X134727026Y-72700000D01*
X134765165Y-72625148D01*
X134784986Y-72500000D01*
X134765165Y-72374852D01*
X134727026Y-72300000D01*
X135480000Y-72300000D01*
X135480000Y-72047601D01*
X135465034Y-71890877D01*
X135465033Y-71890873D01*
X135405850Y-71689313D01*
X135309586Y-71502585D01*
X135179731Y-71337462D01*
X135179728Y-71337459D01*
X135020969Y-71199894D01*
X135020958Y-71199885D01*
X134839039Y-71094855D01*
X134839032Y-71094852D01*
X134640517Y-71026144D01*
X134580000Y-71017443D01*
X134580000Y-72152974D01*
X134505148Y-72114835D01*
X134411481Y-72100000D01*
X134348519Y-72100000D01*
X134254852Y-72114835D01*
X134180000Y-72152974D01*
X134180000Y-71016612D01*
X134018590Y-71055770D01*
X133827492Y-71143040D01*
X133656380Y-71264889D01*
X133656374Y-71264895D01*
X133511407Y-71416932D01*
X133397833Y-71593657D01*
X133319755Y-71788685D01*
X133280000Y-71994962D01*
X133280000Y-72300000D01*
X134032974Y-72300000D01*
X133994835Y-72374852D01*
X133975014Y-72500000D01*
X133994835Y-72625148D01*
X134032974Y-72700000D01*
X133280000Y-72700000D01*
X133280000Y-72952398D01*
X128955500Y-72952398D01*
X128955500Y-70404048D01*
X128975185Y-70337009D01*
X128999221Y-70309542D01*
X129082676Y-70238656D01*
X129146513Y-70210259D01*
X129215570Y-70220883D01*
X129252972Y-70247889D01*
X129262431Y-70257875D01*
X129411049Y-70358640D01*
X129411050Y-70358640D01*
X129411051Y-70358641D01*
X129411053Y-70358642D01*
X129577847Y-70425099D01*
X129577848Y-70425099D01*
X129577853Y-70425101D01*
X129755045Y-70454150D01*
X129934339Y-70444429D01*
X129934343Y-70444428D01*
X130107348Y-70396394D01*
X130107348Y-70396393D01*
X130107351Y-70396393D01*
X130265992Y-70312286D01*
X130402843Y-70196044D01*
X130511507Y-70053099D01*
X130586901Y-69890138D01*
X130625500Y-69714779D01*
X130625500Y-69130240D01*
X130610954Y-68996495D01*
X130553622Y-68826338D01*
X130461050Y-68672483D01*
X130413684Y-68622479D01*
X130337568Y-68542123D01*
X130188948Y-68441358D01*
X130188946Y-68441357D01*
X130022152Y-68374900D01*
X130022147Y-68374899D01*
X129844955Y-68345850D01*
X129844951Y-68345850D01*
X129665661Y-68355571D01*
X129665656Y-68355571D01*
X129492651Y-68403605D01*
X129492645Y-68403608D01*
X129334006Y-68487714D01*
X129247325Y-68561342D01*
X129183486Y-68589740D01*
X129114429Y-68579115D01*
X129077026Y-68552109D01*
X129067569Y-68542125D01*
X129067565Y-68542122D01*
X129067564Y-68542121D01*
X128918948Y-68441358D01*
X128918946Y-68441357D01*
X128752152Y-68374900D01*
X128752147Y-68374899D01*
X128574955Y-68345850D01*
X128574951Y-68345850D01*
X128395661Y-68355571D01*
X128395656Y-68355571D01*
X128222651Y-68403605D01*
X128222645Y-68403608D01*
X128134305Y-68450444D01*
X128065855Y-68464455D01*
X128000696Y-68439234D01*
X127988541Y-68428570D01*
X127957765Y-68397794D01*
X127854992Y-68352415D01*
X127829868Y-68349500D01*
X127829865Y-68349500D01*
X126862610Y-68349500D01*
X126795571Y-68329815D01*
X126774929Y-68313181D01*
X125803218Y-67341470D01*
X125781703Y-67330508D01*
X125765110Y-67320340D01*
X125745580Y-67306150D01*
X125722615Y-67298688D01*
X125704641Y-67291243D01*
X125683127Y-67280281D01*
X125678010Y-67279470D01*
X125659273Y-67276503D01*
X125640358Y-67271962D01*
X125617394Y-67264500D01*
X125617393Y-67264500D01*
X125583488Y-67264500D01*
X124524499Y-67264500D01*
X124457460Y-67244815D01*
X124411705Y-67192011D01*
X124400499Y-67140500D01*
X124400499Y-66845143D01*
X124400499Y-66845136D01*
X124400150Y-66842125D01*
X124397586Y-66820012D01*
X124397585Y-66820010D01*
X124397585Y-66820009D01*
X124352206Y-66717235D01*
X124272765Y-66637794D01*
X124188873Y-66600752D01*
X124169992Y-66592415D01*
X124144868Y-66589500D01*
X124144865Y-66589500D01*
X122724500Y-66589500D01*
X122657461Y-66569815D01*
X122611706Y-66517011D01*
X122600500Y-66465500D01*
X122600500Y-64172609D01*
X122620185Y-64105570D01*
X122636814Y-64084933D01*
X125032290Y-61689456D01*
X125093611Y-61655973D01*
X125163303Y-61660957D01*
X125164763Y-61661513D01*
X125205273Y-61677206D01*
X125228802Y-61686321D01*
X125438390Y-61725500D01*
X125438392Y-61725500D01*
X125651608Y-61725500D01*
X125651610Y-61725500D01*
X125861198Y-61686321D01*
X126060019Y-61609298D01*
X126241302Y-61497052D01*
X126398872Y-61353407D01*
X126527366Y-61183255D01*
X126581270Y-61075000D01*
X126622403Y-60992394D01*
X126622403Y-60992393D01*
X126622405Y-60992389D01*
X126680756Y-60787310D01*
X126681897Y-60775000D01*
X126948606Y-60775000D01*
X126949738Y-60787218D01*
X127008058Y-60992196D01*
X127008066Y-60992216D01*
X127103059Y-61182989D01*
X127231500Y-61353071D01*
X127389000Y-61496651D01*
X127389002Y-61496653D01*
X127570201Y-61608846D01*
X127570207Y-61608849D01*
X127768936Y-61685836D01*
X127885000Y-61707532D01*
X127885000Y-61033335D01*
X127942685Y-61059680D01*
X128049237Y-61075000D01*
X128120763Y-61075000D01*
X128227315Y-61059680D01*
X128285000Y-61033335D01*
X128285000Y-61707532D01*
X128401063Y-61685836D01*
X128599792Y-61608849D01*
X128599798Y-61608846D01*
X128780997Y-61496653D01*
X128780999Y-61496651D01*
X128938499Y-61353071D01*
X129066940Y-61182989D01*
X129161933Y-60992216D01*
X129161941Y-60992196D01*
X129220261Y-60787218D01*
X129221394Y-60775000D01*
X128547383Y-60775000D01*
X128585000Y-60646889D01*
X128585000Y-60503111D01*
X128547383Y-60375000D01*
X129221394Y-60375000D01*
X129221393Y-60374999D01*
X129220261Y-60362781D01*
X129161941Y-60157803D01*
X129161933Y-60157783D01*
X129066940Y-59967010D01*
X128938499Y-59796928D01*
X128780999Y-59653348D01*
X128780997Y-59653346D01*
X128599798Y-59541153D01*
X128599789Y-59541149D01*
X128401059Y-59464162D01*
X128285000Y-59442466D01*
X128285000Y-60116664D01*
X128227315Y-60090320D01*
X128120763Y-60075000D01*
X128049237Y-60075000D01*
X127942685Y-60090320D01*
X127885000Y-60116664D01*
X127885000Y-59442466D01*
X127768940Y-59464162D01*
X127768939Y-59464162D01*
X127570210Y-59541149D01*
X127570201Y-59541153D01*
X127389002Y-59653346D01*
X127389000Y-59653348D01*
X127231500Y-59796928D01*
X127103059Y-59967010D01*
X127008066Y-60157783D01*
X127008058Y-60157803D01*
X126949738Y-60362781D01*
X126948606Y-60374999D01*
X126948606Y-60375000D01*
X127622617Y-60375000D01*
X127585000Y-60503111D01*
X127585000Y-60646889D01*
X127622617Y-60775000D01*
X126948606Y-60775000D01*
X126681897Y-60775000D01*
X126700429Y-60575000D01*
X126680756Y-60362690D01*
X126622405Y-60157611D01*
X126622403Y-60157606D01*
X126622403Y-60157605D01*
X126527367Y-59966746D01*
X126398872Y-59796593D01*
X126271133Y-59680143D01*
X126241302Y-59652948D01*
X126060019Y-59540702D01*
X126060017Y-59540701D01*
X125960608Y-59502190D01*
X125861198Y-59463679D01*
X125651610Y-59424500D01*
X125438390Y-59424500D01*
X125228802Y-59463679D01*
X125228799Y-59463679D01*
X125228799Y-59463680D01*
X125029982Y-59540701D01*
X125029980Y-59540702D01*
X124848699Y-59652947D01*
X124691127Y-59796593D01*
X124562632Y-59966746D01*
X124467596Y-60157605D01*
X124467596Y-60157607D01*
X124409244Y-60362689D01*
X124398471Y-60478951D01*
X124372685Y-60543888D01*
X124328130Y-60575804D01*
X124364503Y-60596668D01*
X124396693Y-60658681D01*
X124398471Y-60671048D01*
X124409244Y-60787310D01*
X124460559Y-60967660D01*
X124459973Y-61037527D01*
X124428974Y-61089276D01*
X124177932Y-61340319D01*
X124116609Y-61373804D01*
X124046918Y-61368820D01*
X123990984Y-61326949D01*
X123966567Y-61261484D01*
X123981419Y-61193211D01*
X123984823Y-61187362D01*
X123987359Y-61183263D01*
X123987366Y-61183255D01*
X124041270Y-61075000D01*
X124082403Y-60992394D01*
X124082403Y-60992393D01*
X124082405Y-60992389D01*
X124140756Y-60787310D01*
X124151529Y-60671047D01*
X124177315Y-60606111D01*
X124221869Y-60574194D01*
X124185497Y-60553331D01*
X124153307Y-60491318D01*
X124151529Y-60478951D01*
X124148175Y-60442759D01*
X124140756Y-60362690D01*
X124082405Y-60157611D01*
X124082403Y-60157606D01*
X124082403Y-60157605D01*
X123987367Y-59966746D01*
X123858872Y-59796593D01*
X123731133Y-59680143D01*
X123701302Y-59652948D01*
X123520019Y-59540702D01*
X123520017Y-59540701D01*
X123420608Y-59502190D01*
X123321198Y-59463679D01*
X123111610Y-59424500D01*
X122898390Y-59424500D01*
X122688802Y-59463679D01*
X122688799Y-59463679D01*
X122688799Y-59463680D01*
X122489982Y-59540701D01*
X122489980Y-59540702D01*
X122308699Y-59652947D01*
X122151127Y-59796593D01*
X122022632Y-59966746D01*
X121927596Y-60157605D01*
X121927596Y-60157607D01*
X121869244Y-60362689D01*
X121858471Y-60478951D01*
X121832685Y-60543888D01*
X121788130Y-60575804D01*
X121824503Y-60596668D01*
X121856693Y-60658681D01*
X121858471Y-60671048D01*
X121869244Y-60787310D01*
X121927596Y-60992392D01*
X121927596Y-60992394D01*
X122022632Y-61183253D01*
X122141244Y-61340319D01*
X122151128Y-61353407D01*
X122308698Y-61497052D01*
X122489981Y-61609298D01*
X122688802Y-61686321D01*
X122898390Y-61725500D01*
X122898392Y-61725500D01*
X123111608Y-61725500D01*
X123111610Y-61725500D01*
X123321198Y-61686321D01*
X123520019Y-61609298D01*
X123632585Y-61539599D01*
X123699945Y-61521044D01*
X123766644Y-61541852D01*
X123811506Y-61595417D01*
X123820286Y-61664733D01*
X123790198Y-61727792D01*
X123785543Y-61732708D01*
X121921780Y-63596472D01*
X121895239Y-63623013D01*
X121826471Y-63691780D01*
X121815510Y-63713293D01*
X121805346Y-63729878D01*
X121791152Y-63749414D01*
X121791151Y-63749417D01*
X121783688Y-63772385D01*
X121776243Y-63790358D01*
X121765280Y-63811873D01*
X121761503Y-63835722D01*
X121756962Y-63854639D01*
X121749500Y-63877604D01*
X121749500Y-74252394D01*
X118654142Y-74252394D01*
X118386819Y-73985071D01*
X118353334Y-73923748D01*
X118350500Y-73897390D01*
X118350500Y-61849499D01*
X118370185Y-61782460D01*
X118422989Y-61736705D01*
X118474500Y-61725499D01*
X118819856Y-61725499D01*
X118819864Y-61725499D01*
X118819879Y-61725497D01*
X118819882Y-61725497D01*
X118844987Y-61722586D01*
X118844988Y-61722585D01*
X118844991Y-61722585D01*
X118947765Y-61677206D01*
X119027206Y-61597765D01*
X119072585Y-61494991D01*
X119075500Y-61469865D01*
X119075499Y-60731046D01*
X119095183Y-60664009D01*
X119147987Y-60618254D01*
X119217146Y-60608310D01*
X119280702Y-60637335D01*
X119318476Y-60696113D01*
X119322970Y-60719606D01*
X119329244Y-60787310D01*
X119387596Y-60992392D01*
X119387596Y-60992394D01*
X119482632Y-61183253D01*
X119601244Y-61340319D01*
X119611128Y-61353407D01*
X119768698Y-61497052D01*
X119949981Y-61609298D01*
X120148802Y-61686321D01*
X120358390Y-61725500D01*
X120358392Y-61725500D01*
X120571608Y-61725500D01*
X120571610Y-61725500D01*
X120781198Y-61686321D01*
X120980019Y-61609298D01*
X121161302Y-61497052D01*
X121318872Y-61353407D01*
X121447366Y-61183255D01*
X121501270Y-61075000D01*
X121542403Y-60992394D01*
X121542403Y-60992393D01*
X121542405Y-60992389D01*
X121600756Y-60787310D01*
X121611529Y-60671047D01*
X121637315Y-60606111D01*
X121681869Y-60574194D01*
X121645497Y-60553331D01*
X121613307Y-60491318D01*
X121611529Y-60478951D01*
X121608175Y-60442759D01*
X121600756Y-60362690D01*
X121542405Y-60157611D01*
X121542403Y-60157606D01*
X121542403Y-60157605D01*
X121447367Y-59966746D01*
X121318872Y-59796593D01*
X121191133Y-59680143D01*
X121161302Y-59652948D01*
X120980019Y-59540702D01*
X120980017Y-59540701D01*
X120880608Y-59502190D01*
X120781198Y-59463679D01*
X120571610Y-59424500D01*
X120358390Y-59424500D01*
X120148802Y-59463679D01*
X120148799Y-59463679D01*
X120148799Y-59463680D01*
X119949982Y-59540701D01*
X119949980Y-59540702D01*
X119768699Y-59652947D01*
X119611127Y-59796593D01*
X119482632Y-59966746D01*
X119387596Y-60157605D01*
X119387596Y-60157607D01*
X119329244Y-60362689D01*
X119322970Y-60430394D01*
X119297183Y-60495331D01*
X119240383Y-60536018D01*
X119170602Y-60539538D01*
X119109995Y-60504772D01*
X119077806Y-60442759D01*
X119075499Y-60418952D01*
X119075499Y-59680143D01*
X119075499Y-59680136D01*
X119075497Y-59680117D01*
X119072586Y-59655012D01*
X119072585Y-59655010D01*
X119072585Y-59655009D01*
X119027206Y-59552235D01*
X118947765Y-59472794D01*
X118947763Y-59472793D01*
X118844992Y-59427415D01*
X118819865Y-59424500D01*
X117030143Y-59424500D01*
X117030117Y-59424502D01*
X117005012Y-59427413D01*
X117005008Y-59427415D01*
X116902235Y-59472793D01*
X116822794Y-59552234D01*
X116777415Y-59655006D01*
X116777415Y-59655008D01*
X116774500Y-59680131D01*
X116774500Y-61469856D01*
X100000500Y-61469856D01*
X100000500Y-55000000D01*
X101495197Y-55000000D01*
X101514397Y-55366353D01*
X101571784Y-55728684D01*
X101571784Y-55728686D01*
X101666736Y-56083051D01*
X101798204Y-56425535D01*
X101964754Y-56752406D01*
X102164553Y-57060070D01*
X102384936Y-57332219D01*
X103054985Y-56662169D01*
X103048046Y-56697056D01*
X103067449Y-56794601D01*
X103122704Y-56877296D01*
X103205399Y-56932551D01*
X103278320Y-56947056D01*
X103327568Y-56947056D01*
X103337826Y-56945015D01*
X102667779Y-57615062D01*
X102939929Y-57835446D01*
X103247593Y-58035245D01*
X103574464Y-58201795D01*
X103916948Y-58333263D01*
X104271314Y-58428215D01*
X104633646Y-58485602D01*
X104999999Y-58504803D01*
X105000001Y-58504803D01*
X105366353Y-58485602D01*
X105728684Y-58428215D01*
X105728686Y-58428215D01*
X106083051Y-58333263D01*
X106425535Y-58201795D01*
X106752406Y-58035245D01*
X106806676Y-58000002D01*
X132744723Y-58000002D01*
X132763793Y-58217975D01*
X132763793Y-58217979D01*
X132820422Y-58429322D01*
X132820424Y-58429326D01*
X132820425Y-58429330D01*
X132835185Y-58460982D01*
X132912897Y-58627638D01*
X132912898Y-58627639D01*
X133038402Y-58806877D01*
X133193123Y-58961598D01*
X133372361Y-59087102D01*
X133570670Y-59179575D01*
X133782023Y-59236207D01*
X133964926Y-59252208D01*
X133999998Y-59255277D01*
X134000000Y-59255277D01*
X134000002Y-59255277D01*
X134028254Y-59252805D01*
X134217977Y-59236207D01*
X134429330Y-59179575D01*
X134627639Y-59087102D01*
X134806877Y-58961598D01*
X134961598Y-58806877D01*
X135087102Y-58627639D01*
X135179575Y-58429330D01*
X135236207Y-58217977D01*
X135255277Y-58000000D01*
X135236207Y-57782023D01*
X135191470Y-57615062D01*
X135179577Y-57570677D01*
X135179576Y-57570675D01*
X135179575Y-57570670D01*
X135169044Y-57548087D01*
X135158552Y-57479013D01*
X135187070Y-57415228D01*
X135193746Y-57408001D01*
X135264931Y-57336818D01*
X135326255Y-57303333D01*
X135352611Y-57300500D01*
X137908657Y-57300500D01*
X137975696Y-57320185D01*
X138021451Y-57372989D01*
X138031395Y-57442147D01*
X138019657Y-57479771D01*
X137959424Y-57600734D01*
X137959417Y-57600752D01*
X137903602Y-57796917D01*
X137884785Y-57999999D01*
X137884785Y-58000000D01*
X137903602Y-58203082D01*
X137959417Y-58399247D01*
X137959422Y-58399260D01*
X138050327Y-58581821D01*
X138173237Y-58744581D01*
X138323958Y-58881980D01*
X138323960Y-58881982D01*
X138423141Y-58943392D01*
X138497363Y-58989348D01*
X138687544Y-59063024D01*
X138888024Y-59100500D01*
X138888026Y-59100500D01*
X139091974Y-59100500D01*
X139091976Y-59100500D01*
X139292456Y-59063024D01*
X139482637Y-58989348D01*
X139656041Y-58881981D01*
X139806764Y-58744579D01*
X139929673Y-58581821D01*
X140020582Y-58399250D01*
X140076397Y-58203083D01*
X140095215Y-58000000D01*
X140076397Y-57796917D01*
X140020582Y-57600750D01*
X140020577Y-57600739D01*
X140020575Y-57600734D01*
X139960343Y-57479771D01*
X139948082Y-57410986D01*
X139974955Y-57346491D01*
X140032431Y-57306764D01*
X140071343Y-57300500D01*
X142647390Y-57300500D01*
X142714429Y-57320185D01*
X142735071Y-57336819D01*
X142806254Y-57408002D01*
X142839739Y-57469325D01*
X142834755Y-57539017D01*
X142830960Y-57548077D01*
X142821775Y-57567774D01*
X142820424Y-57570672D01*
X142820422Y-57570677D01*
X142763793Y-57782020D01*
X142763793Y-57782024D01*
X142744723Y-57999997D01*
X142744723Y-58000002D01*
X142763793Y-58217975D01*
X142763793Y-58217979D01*
X142820422Y-58429322D01*
X142820424Y-58429326D01*
X142820425Y-58429330D01*
X142835185Y-58460982D01*
X142912897Y-58627638D01*
X142912898Y-58627639D01*
X143038402Y-58806877D01*
X143193123Y-58961598D01*
X143372361Y-59087102D01*
X143570670Y-59179575D01*
X143782023Y-59236207D01*
X143964926Y-59252208D01*
X143999998Y-59255277D01*
X144000000Y-59255277D01*
X144000002Y-59255277D01*
X144028254Y-59252805D01*
X144217977Y-59236207D01*
X144429330Y-59179575D01*
X144451910Y-59169045D01*
X144520983Y-59158551D01*
X144584768Y-59187068D01*
X144591997Y-59193745D01*
X147338181Y-61939929D01*
X147371666Y-62001252D01*
X147374500Y-62027610D01*
X147374500Y-66695951D01*
X147354815Y-66762990D01*
X147330775Y-66790460D01*
X147247324Y-66861343D01*
X147183486Y-66889740D01*
X147114429Y-66879115D01*
X147077023Y-66852106D01*
X147067572Y-66842128D01*
X147067571Y-66842127D01*
X147067569Y-66842125D01*
X147009913Y-66803033D01*
X146965472Y-66749119D01*
X146955500Y-66700400D01*
X146955500Y-66632606D01*
X146955499Y-66632601D01*
X146948039Y-66609643D01*
X146943495Y-66590719D01*
X146943302Y-66589500D01*
X146939719Y-66566874D01*
X146928757Y-66545362D01*
X146921309Y-66527379D01*
X146913850Y-66504420D01*
X146913850Y-66504419D01*
X146899653Y-66484878D01*
X146889491Y-66468296D01*
X146878528Y-66446780D01*
X146783220Y-66351472D01*
X146682194Y-66250446D01*
X146658220Y-66226472D01*
X146658218Y-66226470D01*
X146636703Y-66215508D01*
X146620110Y-66205340D01*
X146600580Y-66191150D01*
X146577615Y-66183688D01*
X146559641Y-66176243D01*
X146538127Y-66165281D01*
X146533010Y-66164470D01*
X146514273Y-66161503D01*
X146495358Y-66156962D01*
X146472394Y-66149500D01*
X146472393Y-66149500D01*
X146438488Y-66149500D01*
X140192393Y-66149500D01*
X140057607Y-66149500D01*
X140057604Y-66149500D01*
X140034639Y-66156962D01*
X140015722Y-66161503D01*
X139991873Y-66165280D01*
X139970358Y-66176243D01*
X139952386Y-66183688D01*
X139929418Y-66191151D01*
X139929416Y-66191152D01*
X139909884Y-66205343D01*
X139893299Y-66215506D01*
X139871782Y-66226469D01*
X139871780Y-66226471D01*
X139847805Y-66250447D01*
X139474061Y-66624189D01*
X139412738Y-66657674D01*
X139343046Y-66652690D01*
X139341587Y-66652135D01*
X139302460Y-66636977D01*
X139302457Y-66636976D01*
X139218061Y-66621200D01*
X139101976Y-66599500D01*
X138898024Y-66599500D01*
X138697544Y-66636976D01*
X138697541Y-66636976D01*
X138697541Y-66636977D01*
X138507364Y-66710651D01*
X138507357Y-66710655D01*
X138333960Y-66818017D01*
X138333958Y-66818019D01*
X138183237Y-66955418D01*
X138060327Y-67118178D01*
X137969422Y-67300739D01*
X137969417Y-67300752D01*
X137913602Y-67496917D01*
X137894785Y-67699999D01*
X137894785Y-67700000D01*
X137913602Y-67903082D01*
X137969417Y-68099247D01*
X137969422Y-68099260D01*
X138060327Y-68281821D01*
X138183237Y-68444581D01*
X138333958Y-68581980D01*
X138333960Y-68581982D01*
X138429070Y-68640871D01*
X138507363Y-68689348D01*
X138697544Y-68763024D01*
X138898024Y-68800500D01*
X138910500Y-68800500D01*
X138977539Y-68820185D01*
X139023294Y-68872989D01*
X139034500Y-68924500D01*
X139034500Y-71004799D01*
X139014815Y-71071838D01*
X138962013Y-71117593D01*
X138907246Y-71142604D01*
X138736046Y-71264515D01*
X138736040Y-71264520D01*
X138591014Y-71416620D01*
X138477388Y-71593425D01*
X138399274Y-71788544D01*
X138359500Y-71994914D01*
X138359500Y-71994915D01*
X138359500Y-72952425D01*
X138370015Y-73062539D01*
X138374472Y-73109217D01*
X138374473Y-73109221D01*
X138433628Y-73310686D01*
X138433684Y-73310875D01*
X138483019Y-73406572D01*
X138529991Y-73497686D01*
X138659905Y-73662883D01*
X138659909Y-73662887D01*
X138818746Y-73800521D01*
X139000750Y-73905601D01*
X139000752Y-73905601D01*
X139000756Y-73905604D01*
X139199367Y-73974344D01*
X139407398Y-74004254D01*
X139617330Y-73994254D01*
X139821576Y-73944704D01*
X139979100Y-73872765D01*
X140012743Y-73857401D01*
X140012746Y-73857399D01*
X140012753Y-73857396D01*
X140183952Y-73735486D01*
X140184317Y-73735104D01*
X140328985Y-73583379D01*
X140348708Y-73552690D01*
X140442613Y-73406572D01*
X140520725Y-73211457D01*
X140560500Y-73005085D01*
X140560500Y-72047575D01*
X140545528Y-71890782D01*
X140486316Y-71689125D01*
X140390011Y-71502318D01*
X140390009Y-71502316D01*
X140390008Y-71502313D01*
X140260094Y-71337116D01*
X140260090Y-71337112D01*
X140101253Y-71199478D01*
X139947500Y-71110709D01*
X139899284Y-71060142D01*
X139885500Y-71003322D01*
X139885500Y-68395118D01*
X139905185Y-68328079D01*
X139910546Y-68320391D01*
X139915991Y-68313181D01*
X139939673Y-68281821D01*
X140030582Y-68099250D01*
X140086397Y-67903083D01*
X140105215Y-67700000D01*
X140086397Y-67496917D01*
X140043970Y-67347803D01*
X140044556Y-67277940D01*
X140075551Y-67226195D01*
X140264930Y-67036816D01*
X140326253Y-67003334D01*
X140352610Y-67000500D01*
X140459216Y-67000500D01*
X140526255Y-67020185D01*
X140572010Y-67072989D01*
X140581954Y-67142147D01*
X140570216Y-67179772D01*
X140509886Y-67300930D01*
X140509883Y-67300936D01*
X140454098Y-67497003D01*
X140454096Y-67497013D01*
X140453820Y-67499999D01*
X140453820Y-67500000D01*
X141192974Y-67500000D01*
X141154835Y-67574852D01*
X141135014Y-67700000D01*
X141154835Y-67825148D01*
X141192974Y-67900000D01*
X140453820Y-67900000D01*
X140454096Y-67902986D01*
X140454098Y-67902996D01*
X140509883Y-68099063D01*
X140509886Y-68099069D01*
X140600754Y-68281556D01*
X140723608Y-68444242D01*
X140874260Y-68581578D01*
X141047584Y-68688897D01*
X141237677Y-68762539D01*
X141340000Y-68781666D01*
X141340000Y-68047025D01*
X141414852Y-68085165D01*
X141508519Y-68100000D01*
X141571481Y-68100000D01*
X141665148Y-68085165D01*
X141740000Y-68047025D01*
X141740000Y-68781666D01*
X141842322Y-68762539D01*
X142032415Y-68688897D01*
X142205739Y-68581578D01*
X142356391Y-68444242D01*
X142479245Y-68281556D01*
X142570113Y-68099069D01*
X142570116Y-68099063D01*
X142625901Y-67902996D01*
X142625903Y-67902986D01*
X142626179Y-67900000D01*
X141887026Y-67900000D01*
X141925165Y-67825148D01*
X141944986Y-67700000D01*
X141925165Y-67574852D01*
X141887026Y-67500000D01*
X142626180Y-67500000D01*
X142626179Y-67499999D01*
X142625903Y-67497013D01*
X142625901Y-67497003D01*
X142570116Y-67300936D01*
X142570113Y-67300930D01*
X142509784Y-67179772D01*
X142497523Y-67110986D01*
X142524396Y-67046491D01*
X142581872Y-67006764D01*
X142620784Y-67000500D01*
X144311000Y-67000500D01*
X144378039Y-67020185D01*
X144423794Y-67072989D01*
X144435000Y-67124500D01*
X144435000Y-67500000D01*
X144938239Y-67500000D01*
X144891449Y-67606670D01*
X144881114Y-67731395D01*
X144911837Y-67852719D01*
X144942727Y-67900000D01*
X144435001Y-67900000D01*
X144435001Y-68494785D01*
X144435002Y-68494808D01*
X144437908Y-68519869D01*
X144437909Y-68519873D01*
X144483211Y-68622474D01*
X144483214Y-68622479D01*
X144562520Y-68701785D01*
X144562525Y-68701788D01*
X144665123Y-68747089D01*
X144690206Y-68749999D01*
X145059999Y-68749999D01*
X145060000Y-68749998D01*
X145060000Y-68019534D01*
X145079052Y-68034363D01*
X145197424Y-68075000D01*
X145291073Y-68075000D01*
X145383446Y-68059586D01*
X145460000Y-68018156D01*
X145460000Y-68749999D01*
X145829786Y-68749999D01*
X145829808Y-68749997D01*
X145854869Y-68747091D01*
X145854873Y-68747090D01*
X145957474Y-68701788D01*
X145957478Y-68701786D01*
X145984907Y-68674357D01*
X146046229Y-68640871D01*
X146115921Y-68645855D01*
X146135007Y-68655703D01*
X146135118Y-68655495D01*
X146141053Y-68658642D01*
X146307847Y-68725099D01*
X146307848Y-68725099D01*
X146307853Y-68725101D01*
X146485045Y-68754150D01*
X146664339Y-68744429D01*
X146664343Y-68744428D01*
X146837348Y-68696394D01*
X146837348Y-68696393D01*
X146837351Y-68696393D01*
X146995992Y-68612286D01*
X147082674Y-68538657D01*
X147146512Y-68510259D01*
X147215569Y-68520883D01*
X147252972Y-68547889D01*
X147262431Y-68557875D01*
X147262434Y-68557877D01*
X147262435Y-68557878D01*
X147328887Y-68602933D01*
X147411049Y-68658640D01*
X147411050Y-68658640D01*
X147411051Y-68658641D01*
X147411053Y-68658642D01*
X147577847Y-68725099D01*
X147577848Y-68725099D01*
X147577853Y-68725101D01*
X147755045Y-68754150D01*
X147934339Y-68744429D01*
X147934343Y-68744428D01*
X148107348Y-68696394D01*
X148107348Y-68696393D01*
X148107351Y-68696393D01*
X148265992Y-68612286D01*
X148402843Y-68496044D01*
X148511507Y-68353099D01*
X148586901Y-68190138D01*
X148625500Y-68014779D01*
X148625500Y-67430240D01*
X148610954Y-67296495D01*
X148553622Y-67126338D01*
X148461050Y-66972483D01*
X148337569Y-66842125D01*
X148304950Y-66820009D01*
X148279913Y-66803033D01*
X148235472Y-66749119D01*
X148225500Y-66700400D01*
X148225500Y-61732610D01*
X148225500Y-61732607D01*
X148218036Y-61709639D01*
X148213496Y-61690728D01*
X148209719Y-61666874D01*
X148198756Y-61645359D01*
X148191311Y-61627383D01*
X148183850Y-61604420D01*
X148169656Y-61584884D01*
X148159490Y-61568294D01*
X148148528Y-61546780D01*
X148053220Y-61451472D01*
X145193745Y-58591997D01*
X145160260Y-58530674D01*
X145165244Y-58460982D01*
X145169033Y-58451935D01*
X145179575Y-58429330D01*
X145236207Y-58217977D01*
X145255277Y-58000002D01*
X147744723Y-58000002D01*
X147763793Y-58217975D01*
X147763793Y-58217979D01*
X147820422Y-58429322D01*
X147820424Y-58429326D01*
X147820425Y-58429330D01*
X147835185Y-58460982D01*
X147912897Y-58627638D01*
X147912898Y-58627639D01*
X148038402Y-58806877D01*
X148193123Y-58961598D01*
X148372361Y-59087102D01*
X148469396Y-59132350D01*
X148502904Y-59147975D01*
X148555344Y-59194147D01*
X148574500Y-59260357D01*
X148574500Y-64267394D01*
X148581962Y-64290358D01*
X148586503Y-64309273D01*
X148589470Y-64328010D01*
X148590281Y-64333127D01*
X148601243Y-64354641D01*
X148608688Y-64372615D01*
X148616150Y-64395580D01*
X148630340Y-64415110D01*
X148640508Y-64431703D01*
X148651470Y-64453218D01*
X150724443Y-66526191D01*
X150757928Y-66587514D01*
X150756029Y-66647806D01*
X150713602Y-66796921D01*
X150694785Y-66999999D01*
X150694785Y-67000000D01*
X150713602Y-67203082D01*
X150769417Y-67399247D01*
X150769422Y-67399260D01*
X150860327Y-67581821D01*
X150983237Y-67744581D01*
X151133958Y-67881980D01*
X151133960Y-67881982D01*
X151167883Y-67902986D01*
X151307363Y-67989348D01*
X151497544Y-68063024D01*
X151698024Y-68100500D01*
X151698026Y-68100500D01*
X151901974Y-68100500D01*
X151901976Y-68100500D01*
X152102456Y-68063024D01*
X152292637Y-67989348D01*
X152466041Y-67881981D01*
X152616764Y-67744579D01*
X152739673Y-67581821D01*
X152830582Y-67399250D01*
X152886397Y-67203083D01*
X152905215Y-67000000D01*
X152886397Y-66796917D01*
X152830582Y-66600750D01*
X152825587Y-66590719D01*
X152763236Y-66465500D01*
X152739673Y-66418179D01*
X152616764Y-66255421D01*
X152616762Y-66255418D01*
X152466041Y-66118019D01*
X152466039Y-66118017D01*
X152292642Y-66010655D01*
X152292635Y-66010651D01*
X152155884Y-65957674D01*
X152102456Y-65936976D01*
X151901976Y-65899500D01*
X151698024Y-65899500D01*
X151597784Y-65918238D01*
X151497542Y-65936976D01*
X151497540Y-65936977D01*
X151458409Y-65952136D01*
X151388786Y-65957996D01*
X151327046Y-65925285D01*
X151325937Y-65924189D01*
X149461819Y-64060071D01*
X149428334Y-63998748D01*
X149425500Y-63972390D01*
X149425500Y-59260357D01*
X149445185Y-59193318D01*
X149497096Y-59147975D01*
X149530604Y-59132350D01*
X149627639Y-59087102D01*
X149806877Y-58961598D01*
X149961598Y-58806877D01*
X150087102Y-58627639D01*
X150179575Y-58429330D01*
X150236207Y-58217977D01*
X150255277Y-58000000D01*
X152884785Y-58000000D01*
X152903602Y-58203082D01*
X152959417Y-58399247D01*
X152959422Y-58399260D01*
X153050327Y-58581821D01*
X153173237Y-58744581D01*
X153323958Y-58881980D01*
X153323960Y-58881982D01*
X153423141Y-58943392D01*
X153497363Y-58989348D01*
X153687544Y-59063024D01*
X153888024Y-59100500D01*
X153888026Y-59100500D01*
X154091974Y-59100500D01*
X154091976Y-59100500D01*
X154292456Y-59063024D01*
X154482637Y-58989348D01*
X154656041Y-58881981D01*
X154806764Y-58744579D01*
X154929673Y-58581821D01*
X155020582Y-58399250D01*
X155076397Y-58203083D01*
X155095215Y-58000000D01*
X155076397Y-57796917D01*
X155020582Y-57600750D01*
X155020574Y-57600734D01*
X154960342Y-57479771D01*
X154929673Y-57418179D01*
X154864759Y-57332219D01*
X154806762Y-57255418D01*
X154656041Y-57118019D01*
X154656039Y-57118017D01*
X154482642Y-57010655D01*
X154482635Y-57010651D01*
X154387546Y-56973814D01*
X154292456Y-56936976D01*
X154091976Y-56899500D01*
X153888024Y-56899500D01*
X153687544Y-56936976D01*
X153687541Y-56936976D01*
X153687541Y-56936977D01*
X153497364Y-57010651D01*
X153497357Y-57010655D01*
X153323960Y-57118017D01*
X153323958Y-57118019D01*
X153173237Y-57255418D01*
X153050327Y-57418178D01*
X152959422Y-57600739D01*
X152959417Y-57600752D01*
X152903602Y-57796917D01*
X152884785Y-57999999D01*
X152884785Y-58000000D01*
X150255277Y-58000000D01*
X150236207Y-57782023D01*
X150191470Y-57615062D01*
X150179577Y-57570677D01*
X150179576Y-57570676D01*
X150179575Y-57570670D01*
X150087102Y-57372362D01*
X150087100Y-57372359D01*
X150087099Y-57372357D01*
X149961599Y-57193124D01*
X149886492Y-57118017D01*
X149806877Y-57038402D01*
X149627639Y-56912898D01*
X149627640Y-56912898D01*
X149627638Y-56912897D01*
X149528484Y-56866661D01*
X149429330Y-56820425D01*
X149429326Y-56820424D01*
X149429322Y-56820422D01*
X149217977Y-56763793D01*
X149000002Y-56744723D01*
X148999998Y-56744723D01*
X148854682Y-56757436D01*
X148782023Y-56763793D01*
X148782020Y-56763793D01*
X148570677Y-56820422D01*
X148570668Y-56820426D01*
X148372361Y-56912898D01*
X148372357Y-56912900D01*
X148193121Y-57038402D01*
X148038402Y-57193121D01*
X147912900Y-57372357D01*
X147912898Y-57372361D01*
X147820426Y-57570668D01*
X147820422Y-57570677D01*
X147763793Y-57782020D01*
X147763793Y-57782024D01*
X147744723Y-57999997D01*
X147744723Y-58000002D01*
X145255277Y-58000002D01*
X145255277Y-58000000D01*
X145236207Y-57782023D01*
X145191470Y-57615062D01*
X145179577Y-57570677D01*
X145179576Y-57570676D01*
X145179575Y-57570670D01*
X145087102Y-57372362D01*
X145087100Y-57372359D01*
X145087099Y-57372357D01*
X144961599Y-57193124D01*
X144886492Y-57118017D01*
X144806877Y-57038402D01*
X144627639Y-56912898D01*
X144627640Y-56912898D01*
X144627638Y-56912897D01*
X144528484Y-56866661D01*
X144429330Y-56820425D01*
X144429326Y-56820424D01*
X144429322Y-56820422D01*
X144217977Y-56763793D01*
X144000002Y-56744723D01*
X143999998Y-56744723D01*
X143854682Y-56757436D01*
X143782023Y-56763793D01*
X143782020Y-56763793D01*
X143570677Y-56820422D01*
X143570672Y-56820424D01*
X143570670Y-56820425D01*
X143548085Y-56830956D01*
X143479009Y-56841447D01*
X143415225Y-56812926D01*
X143408002Y-56806254D01*
X143128218Y-56526470D01*
X143106703Y-56515508D01*
X143090110Y-56505340D01*
X143070580Y-56491150D01*
X143047615Y-56483688D01*
X143029641Y-56476243D01*
X143008127Y-56465281D01*
X143003010Y-56464470D01*
X142984273Y-56461503D01*
X142965358Y-56456962D01*
X142942394Y-56449500D01*
X142942393Y-56449500D01*
X142908488Y-56449500D01*
X135192393Y-56449500D01*
X135057607Y-56449500D01*
X135057604Y-56449500D01*
X135034639Y-56456962D01*
X135015722Y-56461503D01*
X134991873Y-56465280D01*
X134970358Y-56476243D01*
X134952386Y-56483688D01*
X134929418Y-56491151D01*
X134929416Y-56491152D01*
X134909884Y-56505343D01*
X134893299Y-56515506D01*
X134871782Y-56526469D01*
X134871780Y-56526471D01*
X134847806Y-56550446D01*
X134847805Y-56550447D01*
X134701196Y-56697056D01*
X134591997Y-56806254D01*
X134530674Y-56839738D01*
X134460982Y-56834754D01*
X134451914Y-56830956D01*
X134446948Y-56828640D01*
X134429330Y-56820425D01*
X134429327Y-56820424D01*
X134429322Y-56820422D01*
X134217977Y-56763793D01*
X134000002Y-56744723D01*
X133999998Y-56744723D01*
X133854682Y-56757436D01*
X133782023Y-56763793D01*
X133782020Y-56763793D01*
X133570677Y-56820422D01*
X133570668Y-56820426D01*
X133372361Y-56912898D01*
X133372357Y-56912900D01*
X133193121Y-57038402D01*
X133038402Y-57193121D01*
X132912900Y-57372357D01*
X132912898Y-57372361D01*
X132820426Y-57570668D01*
X132820422Y-57570677D01*
X132763793Y-57782020D01*
X132763793Y-57782024D01*
X132744723Y-57999997D01*
X132744723Y-58000002D01*
X106806676Y-58000002D01*
X107060064Y-57835450D01*
X107332219Y-57615062D01*
X106662172Y-56945015D01*
X106672432Y-56947056D01*
X106721680Y-56947056D01*
X106794601Y-56932551D01*
X106877296Y-56877296D01*
X106932551Y-56794601D01*
X106951954Y-56697056D01*
X106945015Y-56662172D01*
X107615062Y-57332219D01*
X107835450Y-57060064D01*
X108035245Y-56752406D01*
X108201795Y-56425535D01*
X108333263Y-56083051D01*
X108428215Y-55728686D01*
X108428215Y-55728684D01*
X108485602Y-55366353D01*
X108504803Y-55000000D01*
X161495197Y-55000000D01*
X161514397Y-55366353D01*
X161571784Y-55728684D01*
X161571784Y-55728686D01*
X161666736Y-56083051D01*
X161798204Y-56425535D01*
X161964754Y-56752406D01*
X162164553Y-57060070D01*
X162384936Y-57332219D01*
X163054985Y-56662170D01*
X163048046Y-56697056D01*
X163067449Y-56794601D01*
X163122704Y-56877296D01*
X163205399Y-56932551D01*
X163278320Y-56947056D01*
X163327568Y-56947056D01*
X163337826Y-56945015D01*
X162667779Y-57615062D01*
X162939929Y-57835446D01*
X163247593Y-58035245D01*
X163574464Y-58201795D01*
X163916948Y-58333263D01*
X164271314Y-58428215D01*
X164633646Y-58485602D01*
X164999999Y-58504803D01*
X165000001Y-58504803D01*
X165366353Y-58485602D01*
X165728684Y-58428215D01*
X165728686Y-58428215D01*
X166083051Y-58333263D01*
X166425535Y-58201795D01*
X166752406Y-58035245D01*
X167060064Y-57835450D01*
X167332219Y-57615062D01*
X166662172Y-56945015D01*
X166672432Y-56947056D01*
X166721680Y-56947056D01*
X166794601Y-56932551D01*
X166877296Y-56877296D01*
X166932551Y-56794601D01*
X166951954Y-56697056D01*
X166945015Y-56662172D01*
X167615062Y-57332219D01*
X167835450Y-57060064D01*
X168035245Y-56752406D01*
X168201795Y-56425535D01*
X168333263Y-56083051D01*
X168428215Y-55728686D01*
X168428215Y-55728684D01*
X168485602Y-55366353D01*
X168504803Y-55000000D01*
X168504803Y-54999999D01*
X168485602Y-54633646D01*
X168428215Y-54271315D01*
X168428215Y-54271313D01*
X168333263Y-53916948D01*
X168201795Y-53574464D01*
X168035245Y-53247594D01*
X167835446Y-52939929D01*
X167615062Y-52667779D01*
X166945015Y-53337825D01*
X166951954Y-53302944D01*
X166932551Y-53205399D01*
X166877296Y-53122704D01*
X166794601Y-53067449D01*
X166721680Y-53052944D01*
X166672432Y-53052944D01*
X166662171Y-53054984D01*
X167332220Y-52384936D01*
X167060070Y-52164553D01*
X166752406Y-51964754D01*
X166425535Y-51798204D01*
X166083051Y-51666736D01*
X165728685Y-51571784D01*
X165366353Y-51514397D01*
X165000001Y-51495197D01*
X164999999Y-51495197D01*
X164633646Y-51514397D01*
X164271315Y-51571784D01*
X164271313Y-51571784D01*
X163916948Y-51666736D01*
X163574464Y-51798204D01*
X163247594Y-51964754D01*
X162939924Y-52164557D01*
X162667779Y-52384934D01*
X162667778Y-52384935D01*
X163337827Y-53054984D01*
X163327568Y-53052944D01*
X163278320Y-53052944D01*
X163205399Y-53067449D01*
X163122704Y-53122704D01*
X163067449Y-53205399D01*
X163048046Y-53302944D01*
X163054984Y-53337827D01*
X162384935Y-52667778D01*
X162384934Y-52667779D01*
X162164557Y-52939924D01*
X161964754Y-53247594D01*
X161798204Y-53574464D01*
X161666736Y-53916948D01*
X161571784Y-54271313D01*
X161571784Y-54271315D01*
X161514397Y-54633646D01*
X161495197Y-54999999D01*
X161495197Y-55000000D01*
X108504803Y-55000000D01*
X108504803Y-54999999D01*
X108485602Y-54633646D01*
X108428215Y-54271315D01*
X108428215Y-54271313D01*
X108333263Y-53916948D01*
X108201795Y-53574464D01*
X108035245Y-53247594D01*
X107874456Y-53000000D01*
X132894785Y-53000000D01*
X132913602Y-53203082D01*
X132969417Y-53399247D01*
X132969422Y-53399260D01*
X133060327Y-53581821D01*
X133183237Y-53744581D01*
X133333958Y-53881980D01*
X133333960Y-53881982D01*
X133433141Y-53943392D01*
X133507363Y-53989348D01*
X133697544Y-54063024D01*
X133898024Y-54100500D01*
X133898026Y-54100500D01*
X134101974Y-54100500D01*
X134101976Y-54100500D01*
X134302456Y-54063024D01*
X134492637Y-53989348D01*
X134666041Y-53881981D01*
X134816764Y-53744579D01*
X134939673Y-53581821D01*
X135030582Y-53399250D01*
X135086397Y-53203083D01*
X135105215Y-53000000D01*
X137745225Y-53000000D01*
X137764287Y-53217884D01*
X137764289Y-53217894D01*
X137820894Y-53429150D01*
X137820898Y-53429159D01*
X137913333Y-53627387D01*
X137985996Y-53731161D01*
X138419228Y-53297928D01*
X138495186Y-53417619D01*
X138614903Y-53530040D01*
X138703883Y-53578957D01*
X138268837Y-54014002D01*
X138372612Y-54086667D01*
X138570840Y-54179101D01*
X138570849Y-54179105D01*
X138782105Y-54235710D01*
X138782115Y-54235712D01*
X138999999Y-54254775D01*
X139000001Y-54254775D01*
X139217884Y-54235712D01*
X139217894Y-54235710D01*
X139429150Y-54179105D01*
X139429164Y-54179100D01*
X139627383Y-54086669D01*
X139627391Y-54086665D01*
X139731161Y-54014003D01*
X139298189Y-53581031D01*
X139315629Y-53574126D01*
X139448492Y-53477595D01*
X139553175Y-53351055D01*
X139579005Y-53296163D01*
X140014003Y-53731161D01*
X140086665Y-53627391D01*
X140086669Y-53627383D01*
X140179100Y-53429164D01*
X140179105Y-53429150D01*
X140235710Y-53217894D01*
X140235712Y-53217884D01*
X140254775Y-53000000D01*
X142894785Y-53000000D01*
X142913602Y-53203082D01*
X142969417Y-53399247D01*
X142969422Y-53399260D01*
X143060327Y-53581821D01*
X143183237Y-53744581D01*
X143333958Y-53881980D01*
X143333960Y-53881982D01*
X143433141Y-53943392D01*
X143507363Y-53989348D01*
X143697544Y-54063024D01*
X143898024Y-54100500D01*
X143898026Y-54100500D01*
X144101974Y-54100500D01*
X144101976Y-54100500D01*
X144302456Y-54063024D01*
X144492637Y-53989348D01*
X144666041Y-53881981D01*
X144816764Y-53744579D01*
X144939673Y-53581821D01*
X145030582Y-53399250D01*
X145086397Y-53203083D01*
X145105215Y-53000000D01*
X147894785Y-53000000D01*
X147913602Y-53203082D01*
X147969417Y-53399247D01*
X147969422Y-53399260D01*
X148060327Y-53581821D01*
X148183237Y-53744581D01*
X148333958Y-53881980D01*
X148333960Y-53881982D01*
X148433141Y-53943392D01*
X148507363Y-53989348D01*
X148697544Y-54063024D01*
X148898024Y-54100500D01*
X148898026Y-54100500D01*
X149101974Y-54100500D01*
X149101976Y-54100500D01*
X149302456Y-54063024D01*
X149492637Y-53989348D01*
X149666041Y-53881981D01*
X149816764Y-53744579D01*
X149939673Y-53581821D01*
X150030582Y-53399250D01*
X150086397Y-53203083D01*
X150105215Y-53000000D01*
X152745225Y-53000000D01*
X152764287Y-53217884D01*
X152764289Y-53217894D01*
X152820894Y-53429150D01*
X152820898Y-53429159D01*
X152913333Y-53627387D01*
X152985996Y-53731161D01*
X153419228Y-53297928D01*
X153495186Y-53417619D01*
X153614903Y-53530040D01*
X153703883Y-53578957D01*
X153268837Y-54014002D01*
X153372612Y-54086667D01*
X153570840Y-54179101D01*
X153570849Y-54179105D01*
X153782105Y-54235710D01*
X153782115Y-54235712D01*
X153999999Y-54254775D01*
X154000001Y-54254775D01*
X154217884Y-54235712D01*
X154217894Y-54235710D01*
X154429150Y-54179105D01*
X154429164Y-54179100D01*
X154627383Y-54086669D01*
X154627391Y-54086665D01*
X154731161Y-54014003D01*
X154298189Y-53581031D01*
X154315629Y-53574126D01*
X154448492Y-53477595D01*
X154553175Y-53351055D01*
X154579005Y-53296163D01*
X155014003Y-53731161D01*
X155086665Y-53627391D01*
X155086669Y-53627383D01*
X155179100Y-53429164D01*
X155179105Y-53429150D01*
X155235710Y-53217894D01*
X155235712Y-53217884D01*
X155254775Y-53000000D01*
X157894785Y-53000000D01*
X157913602Y-53203082D01*
X157969417Y-53399247D01*
X157969422Y-53399260D01*
X158060327Y-53581821D01*
X158183237Y-53744581D01*
X158333958Y-53881980D01*
X158333960Y-53881982D01*
X158433141Y-53943392D01*
X158507363Y-53989348D01*
X158697544Y-54063024D01*
X158898024Y-54100500D01*
X158898026Y-54100500D01*
X159101974Y-54100500D01*
X159101976Y-54100500D01*
X159302456Y-54063024D01*
X159492637Y-53989348D01*
X159666041Y-53881981D01*
X159816764Y-53744579D01*
X159939673Y-53581821D01*
X160030582Y-53399250D01*
X160086397Y-53203083D01*
X160105215Y-53000000D01*
X160090133Y-52837241D01*
X160086397Y-52796917D01*
X160054971Y-52686467D01*
X160030582Y-52600750D01*
X160021435Y-52582381D01*
X159976180Y-52491495D01*
X159939673Y-52418179D01*
X159826896Y-52268838D01*
X159816762Y-52255418D01*
X159666041Y-52118019D01*
X159666039Y-52118017D01*
X159492642Y-52010655D01*
X159492635Y-52010651D01*
X159374160Y-51964754D01*
X159302456Y-51936976D01*
X159101976Y-51899500D01*
X158898024Y-51899500D01*
X158697544Y-51936976D01*
X158697541Y-51936976D01*
X158697541Y-51936977D01*
X158507364Y-52010651D01*
X158507357Y-52010655D01*
X158333960Y-52118017D01*
X158333958Y-52118019D01*
X158183237Y-52255418D01*
X158060327Y-52418178D01*
X157969422Y-52600739D01*
X157969417Y-52600752D01*
X157913602Y-52796917D01*
X157894785Y-52999999D01*
X157894785Y-53000000D01*
X155254775Y-53000000D01*
X155254775Y-52999999D01*
X155235712Y-52782115D01*
X155235710Y-52782105D01*
X155179105Y-52570849D01*
X155179101Y-52570840D01*
X155086666Y-52372613D01*
X155014001Y-52268837D01*
X154580770Y-52702069D01*
X154504814Y-52582381D01*
X154385097Y-52469960D01*
X154296115Y-52421041D01*
X154731161Y-51985996D01*
X154627387Y-51913333D01*
X154429159Y-51820898D01*
X154429150Y-51820894D01*
X154217894Y-51764289D01*
X154217884Y-51764287D01*
X154000001Y-51745225D01*
X153999999Y-51745225D01*
X153782115Y-51764287D01*
X153782105Y-51764289D01*
X153570849Y-51820894D01*
X153570840Y-51820898D01*
X153372614Y-51913332D01*
X153372612Y-51913333D01*
X153268838Y-51985996D01*
X153268837Y-51985996D01*
X153701810Y-52418969D01*
X153684371Y-52425874D01*
X153551508Y-52522405D01*
X153446825Y-52648945D01*
X153420994Y-52703836D01*
X152985996Y-52268837D01*
X152985996Y-52268838D01*
X152913333Y-52372612D01*
X152913332Y-52372614D01*
X152820898Y-52570840D01*
X152820894Y-52570849D01*
X152764289Y-52782105D01*
X152764287Y-52782115D01*
X152745225Y-52999999D01*
X152745225Y-53000000D01*
X150105215Y-53000000D01*
X150090133Y-52837241D01*
X150086397Y-52796917D01*
X150054971Y-52686467D01*
X150030582Y-52600750D01*
X150021435Y-52582381D01*
X149976180Y-52491495D01*
X149939673Y-52418179D01*
X149826896Y-52268838D01*
X149816762Y-52255418D01*
X149666041Y-52118019D01*
X149666039Y-52118017D01*
X149492642Y-52010655D01*
X149492635Y-52010651D01*
X149374160Y-51964754D01*
X149302456Y-51936976D01*
X149101976Y-51899500D01*
X148898024Y-51899500D01*
X148697544Y-51936976D01*
X148697541Y-51936976D01*
X148697541Y-51936977D01*
X148507364Y-52010651D01*
X148507357Y-52010655D01*
X148333960Y-52118017D01*
X148333958Y-52118019D01*
X148183237Y-52255418D01*
X148060327Y-52418178D01*
X147969422Y-52600739D01*
X147969417Y-52600752D01*
X147913602Y-52796917D01*
X147894785Y-52999999D01*
X147894785Y-53000000D01*
X145105215Y-53000000D01*
X145090133Y-52837241D01*
X145086397Y-52796917D01*
X145054971Y-52686467D01*
X145030582Y-52600750D01*
X145021435Y-52582381D01*
X144976180Y-52491495D01*
X144939673Y-52418179D01*
X144826896Y-52268838D01*
X144816762Y-52255418D01*
X144666041Y-52118019D01*
X144666039Y-52118017D01*
X144492642Y-52010655D01*
X144492635Y-52010651D01*
X144374160Y-51964754D01*
X144302456Y-51936976D01*
X144101976Y-51899500D01*
X143898024Y-51899500D01*
X143697544Y-51936976D01*
X143697541Y-51936976D01*
X143697541Y-51936977D01*
X143507364Y-52010651D01*
X143507357Y-52010655D01*
X143333960Y-52118017D01*
X143333958Y-52118019D01*
X143183237Y-52255418D01*
X143060327Y-52418178D01*
X142969422Y-52600739D01*
X142969417Y-52600752D01*
X142913602Y-52796917D01*
X142894785Y-52999999D01*
X142894785Y-53000000D01*
X140254775Y-53000000D01*
X140254775Y-52999999D01*
X140235712Y-52782115D01*
X140235710Y-52782105D01*
X140179105Y-52570849D01*
X140179101Y-52570840D01*
X140086666Y-52372613D01*
X140014001Y-52268837D01*
X139580770Y-52702069D01*
X139504814Y-52582381D01*
X139385097Y-52469960D01*
X139296115Y-52421041D01*
X139731161Y-51985996D01*
X139627387Y-51913333D01*
X139429159Y-51820898D01*
X139429150Y-51820894D01*
X139217894Y-51764289D01*
X139217884Y-51764287D01*
X139000001Y-51745225D01*
X138999999Y-51745225D01*
X138782115Y-51764287D01*
X138782105Y-51764289D01*
X138570849Y-51820894D01*
X138570840Y-51820898D01*
X138372614Y-51913332D01*
X138372612Y-51913333D01*
X138268838Y-51985996D01*
X138268837Y-51985996D01*
X138701810Y-52418969D01*
X138684371Y-52425874D01*
X138551508Y-52522405D01*
X138446825Y-52648945D01*
X138420994Y-52703836D01*
X137985996Y-52268837D01*
X137985996Y-52268838D01*
X137913333Y-52372612D01*
X137913332Y-52372614D01*
X137820898Y-52570840D01*
X137820894Y-52570849D01*
X137764289Y-52782105D01*
X137764287Y-52782115D01*
X137745225Y-52999999D01*
X137745225Y-53000000D01*
X135105215Y-53000000D01*
X135090133Y-52837241D01*
X135086397Y-52796917D01*
X135054971Y-52686467D01*
X135030582Y-52600750D01*
X135021435Y-52582381D01*
X134976180Y-52491495D01*
X134939673Y-52418179D01*
X134826896Y-52268838D01*
X134816762Y-52255418D01*
X134666041Y-52118019D01*
X134666039Y-52118017D01*
X134492642Y-52010655D01*
X134492635Y-52010651D01*
X134374160Y-51964754D01*
X134302456Y-51936976D01*
X134101976Y-51899500D01*
X133898024Y-51899500D01*
X133697544Y-51936976D01*
X133697541Y-51936976D01*
X133697541Y-51936977D01*
X133507364Y-52010651D01*
X133507357Y-52010655D01*
X133333960Y-52118017D01*
X133333958Y-52118019D01*
X133183237Y-52255418D01*
X133060327Y-52418178D01*
X132969422Y-52600739D01*
X132969417Y-52600752D01*
X132913602Y-52796917D01*
X132894785Y-52999999D01*
X132894785Y-53000000D01*
X107874456Y-53000000D01*
X107835446Y-52939929D01*
X107615062Y-52667779D01*
X106945015Y-53337825D01*
X106951954Y-53302944D01*
X106932551Y-53205399D01*
X106877296Y-53122704D01*
X106794601Y-53067449D01*
X106721680Y-53052944D01*
X106672432Y-53052944D01*
X106662171Y-53054984D01*
X107332220Y-52384936D01*
X107060070Y-52164553D01*
X106752406Y-51964754D01*
X106425535Y-51798204D01*
X106083051Y-51666736D01*
X105728685Y-51571784D01*
X105366353Y-51514397D01*
X105000001Y-51495197D01*
X104999999Y-51495197D01*
X104633646Y-51514397D01*
X104271315Y-51571784D01*
X104271313Y-51571784D01*
X103916948Y-51666736D01*
X103574464Y-51798204D01*
X103247594Y-51964754D01*
X102939924Y-52164557D01*
X102667779Y-52384934D01*
X102667778Y-52384935D01*
X103337827Y-53054984D01*
X103327568Y-53052944D01*
X103278320Y-53052944D01*
X103205399Y-53067449D01*
X103122704Y-53122704D01*
X103067449Y-53205399D01*
X103048046Y-53302944D01*
X103054984Y-53337827D01*
X102384935Y-52667778D01*
X102384934Y-52667779D01*
X102164557Y-52939924D01*
X101964754Y-53247594D01*
X101798204Y-53574464D01*
X101666736Y-53916948D01*
X101571784Y-54271313D01*
X101571784Y-54271315D01*
X101514397Y-54633646D01*
X101495197Y-54999999D01*
X101495197Y-55000000D01*
X100000500Y-55000000D01*
X100000500Y-53152121D01*
X100000549Y-53148643D01*
X100009286Y-52837241D01*
X100010014Y-52826871D01*
X100046258Y-52505199D01*
X100048587Y-52491495D01*
X100072908Y-52384935D01*
X100120234Y-52177583D01*
X100124076Y-52164245D01*
X100230425Y-51860315D01*
X100235743Y-51847480D01*
X100375442Y-51557392D01*
X100382158Y-51545240D01*
X100553465Y-51272606D01*
X100561501Y-51261281D01*
X100762265Y-51009532D01*
X100771514Y-50999183D01*
X100999183Y-50771514D01*
X101009532Y-50762265D01*
X101261281Y-50561501D01*
X101272606Y-50553465D01*
X101545240Y-50382158D01*
X101557392Y-50375442D01*
X101847485Y-50235740D01*
X101860315Y-50230425D01*
X102164245Y-50124076D01*
X102177583Y-50120234D01*
X102407352Y-50067791D01*
X102491495Y-50048587D01*
X102505199Y-50046258D01*
X102826871Y-50010014D01*
X102837241Y-50009286D01*
X103148645Y-50000549D01*
X103152123Y-50000500D01*
X166847877Y-50000500D01*
X166851355Y-50000549D01*
G37*
%TD.AperFunction*%
%TD*%
M02*
